SplineFontDB: 3.0
FontName: Unna-BoldItalic
FullName: Unna-Bold Italic
FamilyName: Unna
Weight: Bold
Copyright: Copyright (c) 2011-2014, Omnibus-Type (www.omnibus-type.com omnibus.type@gmail.com) with Reserved Font Name 'Unna'

StartChar: .notdef
Encoding: 65536 -1 0
Width: 1136
Flags: MW
HStem: 0 102<276 973 276 1137> 1331 102<276 973 276 276>
LayerCount: 2
UndoRedoHistory
Layer: 1
Undoes
EndUndoes
Redoes
EndRedoes
EndUndoRedoHistory
Fore
SplineSet
113 0 m 1,0,-1
 113 1434 l 1,1,-1
 1137 1434 l 1,2,-1
 1137 0 l 1,3,-1
 113 0 l 1,0,-1
625 809 m 1,4,-1
 973 1331 l 1,5,-1
 276 1331 l 1,6,-1
 625 809 l 1,4,-1
686 717 m 1,7,-1
 1034 195 l 1,8,-1
 1034 1239 l 1,9,-1
 686 717 l 1,7,-1
276 102 m 1,10,-1
 973 102 l 1,11,-1
 625 625 l 1,12,-1
 276 102 l 1,10,-1
215 1239 m 1,13,-1
 215 195 l 1,14,-1
 563 717 l 1,15,-1
 215 1239 l 1,13,-1
EndSplineSet
EndChar

StartChar: A
Encoding: 65 65 1
Width: 1245
Flags: MW
HStem: 0 72<-18 11 -18 272 1178 1188> 381 72<319 707 319 727 281 707> 1202 41G<676 776 776 776>
VStem: -96 1337<0 76>
LayerCount: 2
UndoRedoHistory
Layer: 1
Undoes
EndUndoes
Redoes
EndRedoes
EndUndoRedoHistory
Fore
SplineSet
1241 76 m 1,0,-1
 1231 0 l 1,1,-1
 618 0 l 1,2,-1
 629 76 l 1,3,-1
 725 72 l 1,4,5
 787 67 787 67 791 129 c 1,6,7
 791 147 791 147 778 201 c 1,8,-1
 727 381 l 1,9,-1
 281 381 l 1,10,-1
 190 213 l 1,11,12
 150 142 150 142 150 100 c 0,13,14
 150 67 150 67 186 70 c 2,15,-1
 281 76 l 1,16,-1
 272 0 l 1,17,-1
 -96 0 l 1,18,-1
 -88 76 l 1,19,-1
 -18 72 l 1,20,21
 25 72 25 72 63 124 c 0,22,23
 96.7563451777 170.192893401 96.7563451777 170.192893401 127 229 c 1,24,-1
 676 1243 l 1,25,-1
 776 1243 l 1,26,-1
 1067 225 l 2,27,28
 1091 143 1091 143 1113 107.5 c 128,-1,29
 1135 72 1135 72 1178 72 c 2,30,-1
 1188 72 l 1,31,-1
 1241 76 l 1,0,-1
707 453 m 1,32,-1
 573 924 l 1,33,-1
 319 453 l 1,34,-1
 707 453 l 1,32,-1
EndSplineSet
Substitution2: "Single Substitution lookup 21 subtable" ordfeminine
Substitution2: "'aalt' Access All Alternates lookup 0 subtable" ordfeminine
Position2: "'cpsp' Capital Spacing lookup 0 per glyph data 2" dx=10 dy=0 dh=20 dv=0
EndChar

StartChar: Aacute
Encoding: 193 193 2
Width: 1245
Flags: MW
HStem: 0 72<-18 11 -18 272 1178 1188> 381 72<319 707 319 727 281 707> 1202 41G<676 776 776 776>
VStem: -96 1337<0 76>
LayerCount: 2
UndoRedoHistory
Layer: 1
Undoes
EndUndoes
Redoes
EndRedoes
EndUndoRedoHistory
Fore
SplineSet
856 1642 m 2,0,1
 860 1646 860 1646 868 1653.5 c 128,-1,2
 876 1661 876 1661 878.5 1663.5 c 128,-1,3
 881 1666 881 1666 887 1671.5 c 128,-1,4
 893 1677 893 1677 895.5 1678.5 c 128,-1,5
 898 1680 898 1680 902.5 1683.5 c 128,-1,6
 907 1687 907 1687 910 1687.5 c 128,-1,7
 913 1688 913 1688 917.5 1689.5 c 0,8,9
 925 1692 925 1692 948.5 1692 c 128,-1,10
 972 1692 972 1692 1017.5 1666 c 128,-1,11
 1063 1640 1063 1640 1063 1618.5 c 128,-1,12
 1063 1597 1063 1597 1032 1581 c 1,13,-1
 666 1370 l 1,14,15
 639 1352 639 1352 616.5 1352 c 128,-1,16
 594 1352 594 1352 594 1370.5 c 128,-1,17
 594 1389 594 1389 635 1427 c 1,18,-1
 856 1642 l 2,0,1
1231 0 m 1,19,-1
 618 0 l 1,20,-1
 629 76 l 1,21,-1
 725 72 l 1,22,23
 787 67 787 67 791 129 c 1,24,25
 791 147 791 147 778 201 c 1,26,-1
 727 381 l 1,27,-1
 281 381 l 1,28,-1
 190 213 l 1,29,30
 150 142 150 142 150 100 c 0,31,32
 150 67 150 67 186 70 c 2,33,-1
 281 76 l 1,34,-1
 272 0 l 1,35,-1
 -96 0 l 1,36,-1
 -88 76 l 1,37,-1
 -18 72 l 1,38,39
 25 72 25 72 63 124 c 0,40,41
 96.7563451777 170.192893401 96.7563451777 170.192893401 127 229 c 1,42,-1
 676 1243 l 1,43,-1
 776 1243 l 1,44,-1
 1067 225 l 2,45,46
 1091 143 1091 143 1113 107.5 c 128,-1,47
 1135 72 1135 72 1178 72 c 2,48,-1
 1188 72 l 1,49,-1
 1241 76 l 1,50,-1
 1231 0 l 1,19,-1
573 924 m 1,51,-1
 319 453 l 1,52,-1
 707 453 l 1,53,-1
 573 924 l 1,51,-1
EndSplineSet
Position2: "'cpsp' Capital Spacing lookup 0 per glyph data 2" dx=10 dy=0 dh=20 dv=0
EndChar

StartChar: Abreve
Encoding: 258 258 3
Width: 1245
Flags: MW
HStem: 0 72<-18 11 -18 272 1178 1188> 381 72<319 707 319 727 281 707> 1202 41G<676 776 776 776> 1350 133<696 808 696 816>
VStem: -96 1337<0 76>
LayerCount: 2
UndoRedoHistory
Layer: 1
Undoes
EndUndoes
Redoes
EndRedoes
EndUndoRedoHistory
Fore
SplineSet
1047 1618 m 1,0,1
 1027 1499 1027 1499 941.5 1424.5 c 128,-1,2
 856 1350 856 1350 740 1350 c 128,-1,3
 624 1350 624 1350 562 1412 c 128,-1,4
 500 1474 500 1474 500 1577 c 0,5,6
 500 1604 500 1604 502 1618 c 1,7,-1
 598 1618 l 1,8,9
 603 1560 603 1560 639 1521.5 c 128,-1,10
 675 1483 675 1483 752 1483 c 128,-1,11
 829 1483 829 1483 879 1522 c 128,-1,12
 929 1561 929 1561 950 1618 c 1,13,-1
 1047 1618 l 1,0,1
1231 0 m 1,14,-1
 618 0 l 1,15,-1
 629 76 l 1,16,-1
 725 72 l 1,17,18
 787 67 787 67 791 129 c 1,19,20
 791 147 791 147 778 201 c 1,21,-1
 727 381 l 1,22,-1
 281 381 l 1,23,-1
 190 213 l 1,24,25
 150 142 150 142 150 100 c 0,26,27
 150 67 150 67 186 70 c 2,28,-1
 281 76 l 1,29,-1
 272 0 l 1,30,-1
 -96 0 l 1,31,-1
 -88 76 l 1,32,-1
 -18 72 l 1,33,34
 25 72 25 72 63 124 c 0,35,36
 96.7563451777 170.192893401 96.7563451777 170.192893401 127 229 c 1,37,-1
 676 1243 l 1,38,-1
 776 1243 l 1,39,-1
 1067 225 l 2,40,41
 1091 143 1091 143 1113 107.5 c 128,-1,42
 1135 72 1135 72 1178 72 c 2,43,-1
 1188 72 l 1,44,-1
 1241 76 l 1,45,-1
 1231 0 l 1,14,-1
573 924 m 1,46,-1
 319 453 l 1,47,-1
 707 453 l 1,48,-1
 573 924 l 1,46,-1
EndSplineSet
EndChar

StartChar: Acircumflex
Encoding: 194 194 4
Width: 1245
Flags: MW
HStem: 0 72<-18 11 -18 272 1178 1188> 381 72<319 707 319 727 281 707> 1202 41G<676 776 776 776> 1524 123<709 758>
VStem: -96 1337<0 76>
LayerCount: 2
UndoRedoHistory
Layer: 1
Undoes
EndUndoes
Redoes
EndRedoes
EndUndoRedoHistory
Fore
SplineSet
516 1389 m 1,0,1
 476 1364 476 1364 450 1364 c 128,-1,2
 424 1364 424 1364 424 1375 c 128,-1,3
 424 1386 424 1386 445 1406 c 128,-1,4
 466 1426 466 1426 514 1468.5 c 128,-1,5
 562 1511 562 1511 600 1548 c 1,6,-1
 709 1647 l 2,7,8
 748 1683 748 1683 783 1683 c 128,-1,9
 818 1683 818 1683 844 1647 c 1,10,-1
 924 1548 l 1,11,12
 952 1510 952 1510 987 1469.5 c 0,13,14
 1055 1390.81428571 1055 1390.81428571 1055 1382 c 0,15,16
 1055 1364 1055 1364 1026.5 1364 c 128,-1,17
 998 1364 998 1364 963 1389 c 1,18,-1
 758 1524 l 1,19,-1
 516 1389 l 1,0,1
1231 0 m 1,20,-1
 618 0 l 1,21,-1
 629 76 l 1,22,-1
 725 72 l 1,23,24
 787 67 787 67 791 129 c 1,25,26
 791 147 791 147 778 201 c 1,27,-1
 727 381 l 1,28,-1
 281 381 l 1,29,-1
 190 213 l 1,30,31
 150 142 150 142 150 100 c 0,32,33
 150 67 150 67 186 70 c 2,34,-1
 281 76 l 1,35,-1
 272 0 l 1,36,-1
 -96 0 l 1,37,-1
 -88 76 l 1,38,-1
 -18 72 l 1,39,40
 25 72 25 72 63 124 c 0,41,42
 96.7563451777 170.192893401 96.7563451777 170.192893401 127 229 c 1,43,-1
 676 1243 l 1,44,-1
 776 1243 l 1,45,-1
 1067 225 l 2,46,47
 1091 143 1091 143 1113 107.5 c 128,-1,48
 1135 72 1135 72 1178 72 c 2,49,-1
 1188 72 l 1,50,-1
 1241 76 l 1,51,-1
 1231 0 l 1,20,-1
573 924 m 1,52,-1
 319 453 l 1,53,-1
 707 453 l 1,54,-1
 573 924 l 1,52,-1
EndSplineSet
Position2: "'cpsp' Capital Spacing lookup 0 per glyph data 2" dx=10 dy=0 dh=20 dv=0
EndChar

StartChar: Adieresis
Encoding: 196 196 5
Width: 1245
Flags: MW
HStem: 0 72<-18 11 -18 272 1178 1188> 381 72<319 707 319 727 281 707> 1202 41G<676 776 776 776> 1386 256<530 596 926 991>
VStem: 403 319<1487 1540> 799 319<1487 1540>
LayerCount: 2
UndoRedoHistory
Layer: 1
Undoes
EndUndoes
Redoes
EndRedoes
EndUndoRedoHistory
Fore
SplineSet
454 1601.5 m 128,-1,1
 505 1642 505 1642 575 1642 c 128,-1,2
 645 1642 645 1642 684 1612.5 c 128,-1,3
 723 1583 723 1583 723 1524 c 128,-1,4
 723 1465 723 1465 673.5 1425.5 c 128,-1,5
 624 1386 624 1386 553 1386 c 128,-1,6
 482 1386 482 1386 442.5 1416 c 128,-1,7
 403 1446 403 1446 403 1503.5 c 128,-1,0
 403 1561 403 1561 454 1601.5 c 128,-1,1
849.5 1601.5 m 128,-1,9
 900 1642 900 1642 970 1642 c 128,-1,10
 1040 1642 1040 1642 1079 1612.5 c 128,-1,11
 1118 1583 1118 1583 1118 1524 c 128,-1,12
 1118 1465 1118 1465 1068.5 1425.5 c 128,-1,13
 1019 1386 1019 1386 948 1386 c 128,-1,14
 877 1386 877 1386 838 1416 c 128,-1,15
 799 1446 799 1446 799 1503.5 c 128,-1,8
 799 1561 799 1561 849.5 1601.5 c 128,-1,9
1231 0 m 1,16,-1
 618 0 l 1,17,-1
 629 76 l 1,18,-1
 725 72 l 1,19,20
 787 67 787 67 791 129 c 1,21,22
 791 147 791 147 778 201 c 1,23,-1
 727 381 l 1,24,-1
 281 381 l 1,25,-1
 190 213 l 1,26,27
 150 142 150 142 150 100 c 0,28,29
 150 67 150 67 186 70 c 2,30,-1
 281 76 l 1,31,-1
 272 0 l 1,32,-1
 -96 0 l 1,33,-1
 -88 76 l 1,34,-1
 -18 72 l 1,35,36
 25 72 25 72 63 124 c 0,37,38
 96.7563451777 170.192893401 96.7563451777 170.192893401 127 229 c 1,39,-1
 676 1243 l 1,40,-1
 776 1243 l 1,41,-1
 1067 225 l 2,42,43
 1091 143 1091 143 1113 107.5 c 128,-1,44
 1135 72 1135 72 1178 72 c 2,45,-1
 1188 72 l 1,46,-1
 1241 76 l 1,47,-1
 1231 0 l 1,16,-1
573 924 m 1,48,-1
 319 453 l 1,49,-1
 707 453 l 1,50,-1
 573 924 l 1,48,-1
EndSplineSet
Position2: "'cpsp' Capital Spacing lookup 0 per glyph data 2" dx=10 dy=0 dh=20 dv=0
EndChar

StartChar: Agrave
Encoding: 192 192 6
Width: 1245
Flags: MW
HStem: 0 72<-18 11 -18 272 1178 1188> 381 72<319 707 319 727 281 707> 1202 41G<676 776 776 776>
VStem: -96 1337<0 76>
LayerCount: 2
UndoRedoHistory
Layer: 1
Undoes
EndUndoes
Redoes
EndRedoes
EndUndoRedoHistory
Fore
SplineSet
500 1581 m 2,0,1
 479 1596 479 1596 479 1616 c 1,2,3
 482 1637 482 1637 537 1664.5 c 128,-1,4
 592 1692 592 1692 614 1692 c 128,-1,5
 636 1692 636 1692 640.5 1691.5 c 128,-1,6
 645 1691 645 1691 650 1688.5 c 128,-1,7
 655 1686 655 1686 657.5 1684.5 c 128,-1,8
 660 1683 660 1683 665 1677.5 c 128,-1,9
 670 1672 670 1672 672 1669 c 0,10,11
 680 1657 680 1657 692 1642 c 2,12,-1
 860 1425 l 1,13,14
 906.794871795 1352 906.794871795 1352 854 1352 c 0,15,16
 834 1352 834 1352 807 1370 c 2,17,-1
 500 1581 l 2,0,1
1231 0 m 1,18,-1
 618 0 l 1,19,-1
 629 76 l 1,20,-1
 725 72 l 1,21,22
 787 67 787 67 791 129 c 1,23,24
 791 147 791 147 778 201 c 1,25,-1
 727 381 l 1,26,-1
 281 381 l 1,27,-1
 190 213 l 1,28,29
 150 142 150 142 150 100 c 0,30,31
 150 67 150 67 186 70 c 2,32,-1
 281 76 l 1,33,-1
 272 0 l 1,34,-1
 -96 0 l 1,35,-1
 -88 76 l 1,36,-1
 -18 72 l 1,37,38
 25 72 25 72 63 124 c 0,39,40
 96.7563451777 170.192893401 96.7563451777 170.192893401 127 229 c 1,41,-1
 676 1243 l 1,42,-1
 776 1243 l 1,43,-1
 1067 225 l 2,44,45
 1091 143 1091 143 1113 107.5 c 128,-1,46
 1135 72 1135 72 1178 72 c 2,47,-1
 1188 72 l 1,48,-1
 1241 76 l 1,49,-1
 1231 0 l 1,18,-1
573 924 m 1,50,-1
 319 453 l 1,51,-1
 707 453 l 1,52,-1
 573 924 l 1,50,-1
EndSplineSet
Position2: "'cpsp' Capital Spacing lookup 0 per glyph data 2" dx=10 dy=0 dh=20 dv=0
EndChar

StartChar: Amacron
Encoding: 256 256 7
Width: 1245
Flags: MW
HStem: 0 72<-18 11 -18 272 1178 1188> 381 72<319 707 319 727 281 707> 1202 41G<676 776 776 776> 1386 96<506 983 492 997>
VStem: -96 1337<0 76>
LayerCount: 2
UndoRedoHistory
Layer: 1
Undoes
EndUndoes
Redoes
EndRedoes
EndUndoRedoHistory
Fore
SplineSet
983 1386 m 1,0,-1
 492 1386 l 1,1,-1
 506 1483 l 1,2,-1
 997 1483 l 1,3,-1
 983 1386 l 1,0,-1
1231 0 m 1,4,-1
 618 0 l 1,5,-1
 629 76 l 1,6,-1
 725 72 l 1,7,8
 787 67 787 67 791 129 c 1,9,10
 791 147 791 147 778 201 c 1,11,-1
 727 381 l 1,12,-1
 281 381 l 1,13,-1
 190 213 l 1,14,15
 150 142 150 142 150 100 c 0,16,17
 150 67 150 67 186 70 c 2,18,-1
 281 76 l 1,19,-1
 272 0 l 1,20,-1
 -96 0 l 1,21,-1
 -88 76 l 1,22,-1
 -18 72 l 1,23,24
 25 72 25 72 63 124 c 0,25,26
 96.7563451777 170.192893401 96.7563451777 170.192893401 127 229 c 1,27,-1
 676 1243 l 1,28,-1
 776 1243 l 1,29,-1
 1067 225 l 2,30,31
 1091 143 1091 143 1113 107.5 c 128,-1,32
 1135 72 1135 72 1178 72 c 2,33,-1
 1188 72 l 1,34,-1
 1241 76 l 1,35,-1
 1231 0 l 1,4,-1
573 924 m 1,36,-1
 319 453 l 1,37,-1
 707 453 l 1,38,-1
 573 924 l 1,36,-1
EndSplineSet
EndChar

StartChar: Aogonek
Encoding: 260 260 8
Width: 1245
Flags: MW
HStem: -326 119<1009 1160> 0 72<-18 11 -18 272 1178 1188> 381 72<319 707 319 727 281 707> 1202 41G<676 776 776 776>
VStem: 899 147<-240 -101>
LayerCount: 2
UndoRedoHistory
Layer: 1
Undoes
EndUndoes
Redoes
EndRedoes
EndUndoRedoHistory
Fore
SplineSet
899 -197 m 0,0,1
 899 -81.1451612903 899 -81.1451612903 1028 0 c 1,2,-1
 618 0 l 1,3,-1
 629 76 l 1,4,-1
 725 72 l 1,5,6
 787 67 787 67 791 129 c 1,7,8
 791 147 791 147 778 201 c 1,9,-1
 727 381 l 1,10,-1
 281 381 l 1,11,-1
 190 213 l 1,12,13
 150 142 150 142 150 100 c 0,14,15
 150 67 150 67 186 70 c 2,16,-1
 281 76 l 1,17,-1
 272 0 l 1,18,-1
 -96 0 l 1,19,-1
 -88 76 l 1,20,-1
 -18 72 l 1,21,22
 25 72 25 72 63 124 c 0,23,24
 96.7563451777 170.192893401 96.7563451777 170.192893401 127 229 c 1,25,-1
 676 1243 l 1,26,-1
 776 1243 l 1,27,-1
 1067 225 l 2,28,29
 1091 143 1091 143 1113 107.5 c 128,-1,30
 1135 72 1135 72 1178 72 c 2,31,-1
 1188 72 l 1,32,-1
 1241 76 l 1,33,-1
 1231 0 l 1,34,-1
 1110 0 l 1,35,36
 1047 -51 1047 -51 1047 -125 c 0,37,38
 1047 -161 1047 -161 1069.5 -184 c 128,-1,39
 1092 -207 1092 -207 1149 -207 c 128,-1,40
 1206 -207 1206 -207 1282 -162 c 1,41,-1
 1303 -203 l 1,42,43
 1180 -326 1180 -326 1047 -326 c 0,44,45
 986 -326 986 -326 942.5 -292 c 128,-1,46
 899 -258 899 -258 899 -197 c 0,0,1
707 453 m 1,47,-1
 573 924 l 1,48,-1
 319 453 l 1,49,-1
 707 453 l 1,47,-1
EndSplineSet
EndChar

StartChar: Aring
Encoding: 197 197 9
Width: 1245
Flags: MW
HStem: 0 72<-18 11 -18 272 1178 1188> 381 72<319 707 319 727 281 707> 1202 41G<676 776 776 776> 1362 84<730 775 730 795> 1616 86<748 794>
VStem: 584 102<1496 1546 1496 1564> 838 104<1516 1566>
LayerCount: 2
UndoRedoHistory
Layer: 1
Undoes
EndUndoes
Redoes
EndRedoes
EndUndoRedoHistory
Fore
SplineSet
625.5 1402.5 m 128,-1,1
 584 1443 584 1443 584 1516.5 c 128,-1,2
 584 1590 584 1590 643 1646 c 128,-1,3
 702 1702 702 1702 778.5 1702 c 128,-1,4
 855 1702 855 1702 898.5 1660.5 c 128,-1,5
 942 1619 942 1619 942 1544.5 c 128,-1,6
 942 1470 942 1470 883 1416 c 128,-1,7
 824 1362 824 1362 745.5 1362 c 128,-1,0
 667 1362 667 1362 625.5 1402.5 c 128,-1,1
838 1544 m 0,8,9
 838 1616 838 1616 772 1616 c 0,10,11
 735 1616 735 1616 710.5 1588.5 c 128,-1,12
 686 1561 686 1561 686 1523.5 c 128,-1,13
 686 1486 686 1486 703.5 1466 c 128,-1,14
 721 1446 721 1446 754.5 1446 c 128,-1,15
 788 1446 788 1446 813 1473.5 c 128,-1,16
 838 1501 838 1501 838 1544 c 0,8,9
1231 0 m 1,17,-1
 618 0 l 1,18,-1
 629 76 l 1,19,-1
 725 72 l 1,20,21
 787 67 787 67 791 129 c 1,22,23
 791 147 791 147 778 201 c 1,24,-1
 727 381 l 1,25,-1
 281 381 l 1,26,-1
 190 213 l 1,27,28
 150 142 150 142 150 100 c 0,29,30
 150 67 150 67 186 70 c 2,31,-1
 281 76 l 1,32,-1
 272 0 l 1,33,-1
 -96 0 l 1,34,-1
 -88 76 l 1,35,-1
 -18 72 l 1,36,37
 25 72 25 72 63 124 c 0,38,39
 96.7563451777 170.192893401 96.7563451777 170.192893401 127 229 c 1,40,-1
 676 1243 l 1,41,-1
 776 1243 l 1,42,-1
 1067 225 l 2,43,44
 1091 143 1091 143 1113 107.5 c 128,-1,45
 1135 72 1135 72 1178 72 c 2,46,-1
 1188 72 l 1,47,-1
 1241 76 l 1,48,-1
 1231 0 l 1,17,-1
573 924 m 1,49,-1
 319 453 l 1,50,-1
 707 453 l 1,51,-1
 573 924 l 1,49,-1
EndSplineSet
Position2: "'cpsp' Capital Spacing lookup 0 per glyph data 2" dx=10 dy=0 dh=20 dv=0
EndChar

StartChar: Atilde
Encoding: 195 195 10
Width: 1245
Flags: MW
HStem: 0 72<-18 11 -18 272 1178 1188> 381 72<319 707 319 727 281 707> 1202 41G<676 776 776 776> 1374 125<885 943 885 944> 1456 123<562 621>
VStem: 446 57<1376 1376> 1001 57<1577 1577>
LayerCount: 2
UndoRedoHistory
Layer: 1
Undoes
EndUndoes
Redoes
EndRedoes
EndUndoRedoHistory
Fore
SplineSet
446 1376 m 1,0,1
 459 1468 459 1468 499.5 1523.5 c 128,-1,2
 540 1579 540 1579 599 1579 c 128,-1,3
 658 1579 658 1579 773 1539 c 128,-1,4
 888 1499 888 1499 921 1499 c 128,-1,5
 954 1499 954 1499 975.5 1520.5 c 128,-1,6
 997 1542 997 1542 1001 1577 c 1,7,-1
 1059 1577 l 1,8,9
 1046 1485 1046 1485 1005 1429.5 c 128,-1,10
 964 1374 964 1374 905 1374 c 128,-1,11
 846 1374 846 1374 732 1415 c 128,-1,12
 618 1456 618 1456 585 1456 c 128,-1,13
 552 1456 552 1456 530 1434 c 128,-1,14
 508 1412 508 1412 504 1376 c 1,15,-1
 446 1376 l 1,0,1
1231 0 m 1,16,-1
 618 0 l 1,17,-1
 629 76 l 1,18,-1
 725 72 l 1,19,20
 787 67 787 67 791 129 c 1,21,22
 791 147 791 147 778 201 c 1,23,-1
 727 381 l 1,24,-1
 281 381 l 1,25,-1
 190 213 l 1,26,27
 150 142 150 142 150 100 c 0,28,29
 150 67 150 67 186 70 c 2,30,-1
 281 76 l 1,31,-1
 272 0 l 1,32,-1
 -96 0 l 1,33,-1
 -88 76 l 1,34,-1
 -18 72 l 1,35,36
 25 72 25 72 63 124 c 0,37,38
 96.7563451777 170.192893401 96.7563451777 170.192893401 127 229 c 1,39,-1
 676 1243 l 1,40,-1
 776 1243 l 1,41,-1
 1067 225 l 2,42,43
 1091 143 1091 143 1113 107.5 c 128,-1,44
 1135 72 1135 72 1178 72 c 2,45,-1
 1188 72 l 1,46,-1
 1241 76 l 1,47,-1
 1231 0 l 1,16,-1
573 924 m 1,48,-1
 319 453 l 1,49,-1
 707 453 l 1,50,-1
 573 924 l 1,48,-1
EndSplineSet
Position2: "'cpsp' Capital Spacing lookup 0 per glyph data 2" dx=10 dy=0 dh=20 dv=0
EndChar

StartChar: AE
Encoding: 198 198 11
Width: 1732
Flags: MW
HStem: 0 70<1147 1235 1235 1330> 381 72<393 799 393 803 338 799> 592 72<1083 1198 1083 1206> 831 41G<1386 1460 1460 1460> 907 315<1599 1628 1628 1647 674 1669 1599 1599> 1151 72<1063 1346 1063 1063>
VStem: 787 286 815 282 1386 74<872 872>
LayerCount: 2
UndoRedoHistory
Layer: 1
Undoes
EndUndoes
Redoes
EndRedoes
EndUndoRedoHistory
Fore
SplineSet
1235 70 m 2,0,1
 1520.16788321 70 1520.16788321 70 1559 350 c 1,2,-1
 1630 350 l 1,3,-1
 1581 -6 l 1,4,5
 1501 0 1501 0 1386 0 c 2,6,-1
 637 0 l 1,7,-1
 649 78 l 1,8,-1
 764 72 l 2,9,10
 787 71 787 71 801 85.5 c 128,-1,11
 815 100 815 100 815 119 c 2,12,-1
 803 381 l 1,13,-1
 338 381 l 1,14,-1
 193 180 l 2,15,16
 154 126 154 126 154 94 c 0,17,18
 154 69 154 69 186 72 c 1,19,-1
 293 78 l 1,20,-1
 283 0 l 1,21,-1
 -96 0 l 1,22,-1
 -86 78 l 1,23,-1
 -23 72 l 1,24,25
 4 68 4 68 35.5 96.5 c 128,-1,26
 67 125 67 125 117 193 c 2,27,-1
 791 1098 l 2,28,29
 799 1110 799 1110 799 1119 c 128,-1,30
 799 1128 799 1128 789 1137.5 c 128,-1,31
 779 1147 779 1147 768 1147 c 2,32,-1
 664 1143 l 1,33,-1
 674 1223 l 1,34,-1
 1628 1223 l 2,35,36
 1678 1223 1678 1223 1714 1227 c 1,37,-1
 1669 907 l 1,38,-1
 1599 907 l 1,39,40
 1604 952 1604 952 1604 961 c 0,41,42
 1604 1060 1604 1060 1540.5 1105.5 c 128,-1,43
 1477 1151 1477 1151 1346 1151 c 2,44,-1
 1063 1151 l 1,45,-1
 1083 664 l 1,46,-1
 1206 664 l 2,47,48
 1271 664 1271 664 1322 721.5 c 128,-1,49
 1373 779 1373 779 1386 872 c 1,50,-1
 1460 872 l 1,51,-1
 1393 391 l 1,52,-1
 1323 391 l 1,53,54
 1325 403 1325 403 1325 428 c 0,55,56
 1325 500 1325 500 1290 546 c 128,-1,57
 1255 592 1255 592 1198 592 c 2,58,-1
 1083 592 l 1,59,-1
 1110 109 l 2,60,61
 1113 70 1113 70 1147 70 c 2,62,-1
 1235 70 l 2,0,1
393 453 m 1,63,-1
 799 453 l 1,64,-1
 776 967 l 1,65,-1
 393 453 l 1,63,-1
EndSplineSet
Position2: "'cpsp' Capital Spacing lookup 0 per glyph data 2" dx=10 dy=0 dh=20 dv=0
EndChar

StartChar: B
Encoding: 66 66 12
Width: 1181
Flags: MW
HStem: 0 74<467 567 567 618> 602 72<514 629 524 629 629 668> 1151 72<276 286 609 616 616 692>
VStem: 829 289<290 449 249 473> 850 287<887 1033>
LayerCount: 2
UndoRedoHistory
Layer: 1
Undoes
EndUndoes
Redoes
EndRedoes
EndUndoRedoHistory
Fore
SplineSet
303 1116 m 2,0,1
 303 1151 303 1151 276 1151 c 1,2,-1
 178 1147 l 1,3,-1
 188 1223 l 1,4,-1
 821 1223 l 2,5,6
 975 1223 975 1223 1056 1160 c 128,-1,7
 1137 1097 1137 1097 1137 971.5 c 128,-1,8
 1137 846 1137 846 1047.5 760.5 c 128,-1,9
 958 675 958 675 813 649 c 1,10,11
 945 649 945 649 1031.5 569.5 c 128,-1,12
 1118 490 1118 490 1118 367 c 0,13,14
 1118 188 1118 188 992 94 c 128,-1,15
 866 0 866 0 618 0 c 2,16,-1
 16 0 l 1,17,-1
 27 76 l 1,18,-1
 125 72 l 1,19,20
 158 72 158 72 164 117 c 2,21,-1
 303 1110 l 1,22,-1
 303 1116 l 2,0,1
616 1151 m 2,23,24
 594 1151 594 1151 588 1126 c 1,25,-1
 524 674 l 1,26,-1
 629 674 l 2,27,28
 744 674 744 674 797 750 c 128,-1,29
 850 826 850 826 850 973 c 0,30,31
 850 1151 850 1151 692 1151 c 2,32,-1
 616 1151 l 2,23,24
829 403 m 0,33,34
 829 602 829 602 668 602 c 2,35,-1
 514 602 l 1,36,-1
 444 100 l 1,37,-1
 442 92 l 1,38,39
 442 74 442 74 467 74 c 2,40,-1
 567 74 l 2,41,42
 686 74 686 74 757.5 156.5 c 128,-1,43
 829 239 829 239 829 403 c 0,33,34
EndSplineSet
Position2: "'cpsp' Capital Spacing lookup 0 per glyph data 2" dx=10 dy=0 dh=20 dv=0
EndChar

StartChar: C
Encoding: 67 67 13
Width: 1214
Flags: MW
HStem: -20 72<591 726> 72 270<1069 1090 1090 1102> 846 41G<1128 1194 1128 1128> 887 268<1148 1194 1128 1227> 1178 66<687 901>
VStem: 80 305<348 697 348 739>
LayerCount: 2
UndoRedoHistory
Layer: 1
Undoes
EndUndoes
Redoes
EndRedoes
EndUndoRedoHistory
Fore
SplineSet
1090 72 m 2,0,1
 1037 72 1037 72 961.5 49 c 128,-1,2
 886 26 886 26 799 3 c 128,-1,3
 712 -20 712 -20 631 -20 c 0,4,5
 371 -20 371 -20 225.5 122 c 128,-1,6
 80 264 80 264 80 514 c 0,7,8
 80 852 80 852 274 1047.5 c 128,-1,9
 468 1243 468 1243 801 1243 c 0,10,11
 954.205882353 1243 954.205882353 1243 1043.5 1199 c 128,-1,12
 1132.79411765 1155 1132.79411765 1155 1227 1155 c 1,13,14
 1192 1015 1192 1015 1192 952 c 128,-1,15
 1192 889 1192 889 1194 887 c 1,16,-1
 1128 887 l 1,17,18
 1117 1008 1117 1008 1029 1093 c 128,-1,19
 941 1178 941 1178 819 1178 c 0,20,21
 621 1178 621 1178 503 990 c 128,-1,22
 385 802 385 802 385 487 c 0,23,24
 385 279 385 279 464.5 165 c 128,-1,25
 544 51 544 51 677.5 51 c 128,-1,26
 811 51 811 51 918 134 c 128,-1,27
 1025 217 1025 217 1069 342 c 1,28,-1
 1143 342 l 1,29,30
 1102 179 1102 179 1102 100 c 2,31,-1
 1102 72 l 1,32,-1
 1090 72 l 2,0,1
EndSplineSet
Position2: "'cpsp' Capital Spacing lookup 0 per glyph data 2" dx=10 dy=0 dh=20 dv=0
EndChar

StartChar: Cacute
Encoding: 262 262 14
Width: 1214
Flags: MW
HStem: -20 72<591 726> 72 270<1069 1090 1090 1102> 846 41G<1128 1194 1128 1128> 887 268<1148 1194 1128 1227> 1178 66<687 901>
VStem: 80 305<348 697 348 739>
LayerCount: 2
UndoRedoHistory
Layer: 1
Undoes
EndUndoes
Redoes
EndRedoes
EndUndoRedoHistory
Fore
SplineSet
940 1642 m 2,0,1
 944 1646 944 1646 952 1653.5 c 128,-1,2
 960 1661 960 1661 962.5 1663.5 c 128,-1,3
 965 1666 965 1666 971 1671.5 c 128,-1,4
 977 1677 977 1677 979.5 1678.5 c 128,-1,5
 982 1680 982 1680 986.5 1683.5 c 128,-1,6
 991 1687 991 1687 994 1687.5 c 128,-1,7
 997 1688 997 1688 1001.5 1689.5 c 0,8,9
 1009 1692 1009 1692 1032.5 1692 c 128,-1,10
 1056 1692 1056 1692 1101.5 1666 c 128,-1,11
 1147 1640 1147 1640 1147 1618.5 c 128,-1,12
 1147 1597 1147 1597 1116 1581 c 1,13,-1
 750 1370 l 1,14,15
 723 1352 723 1352 700.5 1352 c 128,-1,16
 678 1352 678 1352 678 1370.5 c 128,-1,17
 678 1389 678 1389 719 1427 c 1,18,-1
 940 1642 l 2,0,1
1090 72 m 2,19,20
 1037 72 1037 72 961.5 49 c 128,-1,21
 886 26 886 26 799 3 c 128,-1,22
 712 -20 712 -20 631 -20 c 0,23,24
 371 -20 371 -20 225.5 122 c 128,-1,25
 80 264 80 264 80 514 c 0,26,27
 80 852 80 852 274 1047.5 c 128,-1,28
 468 1243 468 1243 801 1243 c 0,29,30
 954.205882353 1243 954.205882353 1243 1043.5 1199 c 128,-1,31
 1132.79411765 1155 1132.79411765 1155 1227 1155 c 1,32,33
 1192 1015 1192 1015 1192 952 c 128,-1,34
 1192 889 1192 889 1194 887 c 1,35,-1
 1128 887 l 1,36,37
 1117 1008 1117 1008 1029 1093 c 128,-1,38
 941 1178 941 1178 819 1178 c 0,39,40
 621 1178 621 1178 503 990 c 128,-1,41
 385 802 385 802 385 487 c 0,42,43
 385 279 385 279 464.5 165 c 128,-1,44
 544 51 544 51 677.5 51 c 128,-1,45
 811 51 811 51 918 134 c 128,-1,46
 1025 217 1025 217 1069 342 c 1,47,-1
 1143 342 l 1,48,49
 1102 179 1102 179 1102 100 c 2,50,-1
 1102 72 l 1,51,-1
 1090 72 l 2,19,20
EndSplineSet
EndChar

StartChar: Ccaron
Encoding: 268 268 15
Width: 1214
Flags: MW
HStem: -20 72<591 726> 72 270<1069 1090 1090 1102> 846 41G<1128 1194 1128 1128> 887 268<1148 1194 1128 1227> 1178 66<687 901> 1405 123<756 842 842 891>
VStem: 80 305<348 697 348 739>
LayerCount: 2
UndoRedoHistory
Layer: 1
Undoes
EndUndoes
Redoes
EndRedoes
EndUndoRedoHistory
Fore
SplineSet
1083 1663 m 1,0,1
 1123 1688 1123 1688 1149.5 1688 c 128,-1,2
 1176 1688 1176 1688 1176 1673 c 0,3,4
 1176 1661.37113402 1176 1661.37113402 1106.5 1601.18556701 c 128,-1,5
 1037 1541 1037 1541 999 1503 c 1,6,-1
 891 1405 l 2,7,8
 851 1368 851 1368 817 1368 c 128,-1,9
 783 1368 783 1368 756 1405 c 1,10,-1
 676 1503 l 1,11,12
 648 1541 648 1541 613 1581.5 c 0,13,14
 545 1660.18571429 545 1660.18571429 545 1669 c 0,15,16
 545 1688 545 1688 573.5 1688 c 128,-1,17
 602 1688 602 1688 637 1663 c 1,18,-1
 842 1528 l 1,19,-1
 1083 1663 l 1,0,1
1090 72 m 2,20,21
 1037 72 1037 72 961.5 49 c 128,-1,22
 886 26 886 26 799 3 c 128,-1,23
 712 -20 712 -20 631 -20 c 0,24,25
 371 -20 371 -20 225.5 122 c 128,-1,26
 80 264 80 264 80 514 c 0,27,28
 80 852 80 852 274 1047.5 c 128,-1,29
 468 1243 468 1243 801 1243 c 0,30,31
 954.205882353 1243 954.205882353 1243 1043.5 1199 c 128,-1,32
 1132.79411765 1155 1132.79411765 1155 1227 1155 c 1,33,34
 1192 1015 1192 1015 1192 952 c 128,-1,35
 1192 889 1192 889 1194 887 c 1,36,-1
 1128 887 l 1,37,38
 1117 1008 1117 1008 1029 1093 c 128,-1,39
 941 1178 941 1178 819 1178 c 0,40,41
 621 1178 621 1178 503 990 c 128,-1,42
 385 802 385 802 385 487 c 0,43,44
 385 279 385 279 464.5 165 c 128,-1,45
 544 51 544 51 677.5 51 c 128,-1,46
 811 51 811 51 918 134 c 128,-1,47
 1025 217 1025 217 1069 342 c 1,48,-1
 1143 342 l 1,49,50
 1102 179 1102 179 1102 100 c 2,51,-1
 1102 72 l 1,52,-1
 1090 72 l 2,20,21
EndSplineSet
EndChar

StartChar: Ccedilla
Encoding: 199 199 16
Width: 1214
Flags: MW
HStem: -438 72<505 518 475 582> -18 70<582 770 670 670> 72 270<1069 1090 1090 1102> 846 41G<1128 1128 1128 1194> 887 268<1128 1227 1148 1194> 1178 66<687 901>
VStem: 80 305<356 697> 485 125<-138 -130> 604 182<-292 -251>
LayerCount: 2
UndoRedoHistory
Layer: 1
Undoes
EndUndoes
Redoes
EndRedoes
EndUndoRedoHistory
Fore
SplineSet
1128 887 m 1,0,1
 1117 1008 1117 1008 1029 1093 c 128,-1,2
 941 1178 941 1178 819 1178 c 0,3,4
 621 1178 621 1178 503 990 c 128,-1,5
 385 802 385 802 385 487 c 0,6,7
 385 279 385 279 464.5 165 c 128,-1,8
 544 51 544 51 677.5 51 c 128,-1,9
 811 51 811 51 918 134 c 128,-1,10
 1025 217 1025 217 1069 342 c 1,11,-1
 1143 342 l 1,12,13
 1102 179 1102 179 1102 100 c 2,14,-1
 1102 72 l 1,15,-1
 1090 72 l 2,16,17
 1030 72 1030 72 893.5 29.5 c 128,-1,18
 757 -13 757 -13 670 -18 c 1,19,-1
 627 -74 l 1,20,21
 610 -101 610 -101 610 -115.5 c 128,-1,22
 610 -130 610 -130 637.5 -139 c 128,-1,23
 665 -148 665 -148 698 -153 c 128,-1,24
 731 -158 731 -158 758.5 -179.5 c 128,-1,25
 786 -201 786 -201 786 -251 c 128,-1,26
 786 -301 786 -301 744 -348 c 0,27,28
 663.574468085 -438 663.574468085 -438 522 -438 c 0,29,30
 429 -438 429 -438 385 -406 c 1,31,-1
 422 -338 l 1,32,33
 442 -367 442 -367 487 -367 c 128,-1,34
 532 -367 532 -367 568 -335.5 c 128,-1,35
 604 -304 604 -304 604 -264 c 128,-1,36
 604 -224 604 -224 547 -193 c 1,37,-1
 504 -164 l 1,38,39
 485 -148 485 -148 485 -134 c 128,-1,40
 485 -120 485 -120 502 -106 c 1,41,-1
 582 -18 l 1,42,43
 345 -6 345 -6 212.5 135.5 c 128,-1,44
 80 277 80 277 80 514 c 0,45,46
 80 852 80 852 274 1047.5 c 128,-1,47
 468 1243 468 1243 801 1243 c 0,48,49
 954.205882353 1243 954.205882353 1243 1043.5 1199 c 128,-1,50
 1132.79411765 1155 1132.79411765 1155 1227 1155 c 1,51,52
 1192 1015 1192 1015 1192 952 c 128,-1,53
 1192 889 1192 889 1194 887 c 1,54,-1
 1128 887 l 1,0,1
EndSplineSet
Position2: "'cpsp' Capital Spacing lookup 0 per glyph data 2" dx=10 dy=0 dh=20 dv=0
EndChar

StartChar: D
Encoding: 68 68 17
Width: 1302
Flags: MW
HStem: 0 74<442 487 487 537> 1151 72<252 263 588 596 596 641>
VStem: 975 295<683 866 507 886>
LayerCount: 2
UndoRedoHistory
Layer: 1
Undoes
EndUndoes
Redoes
EndRedoes
EndUndoRedoHistory
Fore
SplineSet
684 1223 m 2,0,1
 978 1223 978 1223 1124 1088.5 c 128,-1,2
 1270 954 1270 954 1270 696 c 0,3,4
 1270 400.609195402 1270 400.609195402 1095 206.5 c 0,5,6
 1008 110 1008 110 865 55 c 128,-1,7
 722 0 722 0 537 0 c 2,8,-1
 16 0 l 1,9,-1
 27 76 l 1,10,-1
 106 72 l 1,11,-1
 109 72 l 2,12,13
 139 72 139 72 143 117 c 1,14,-1
 283 1108 l 1,15,-1
 283 1116 l 2,16,17
 283 1151 283 1151 252 1151 c 1,18,-1
 178 1147 l 1,19,-1
 188 1223 l 1,20,-1
 684 1223 l 2,0,1
424 100 m 1,21,-1
 422 92 l 1,22,23
 422 74 422 74 442 74 c 2,24,-1
 487 74 l 2,25,26
 670 74 670 74 775 164 c 128,-1,27
 880 254 880 254 927.5 406.5 c 128,-1,28
 975 559 975 559 975 759 c 128,-1,29
 975 959 975 959 897 1055 c 128,-1,30
 819 1151 819 1151 641 1151 c 2,31,-1
 596 1151 l 2,32,33
 570 1151 570 1151 567 1124 c 2,34,-1
 424 100 l 1,21,-1
EndSplineSet
Position2: "'cpsp' Capital Spacing lookup 0 per glyph data 2" dx=10 dy=0 dh=20 dv=0
EndChar

StartChar: Eth
Encoding: 208 208 18
Width: 1302
Flags: MW
HStem: 0 74<442 487 487 537> 586 88<115 209 102 221 504 799> 1151 72<252 263 588 596 596 641>
VStem: 975 295<683 866 507 886>
LayerCount: 2
UndoRedoHistory
Layer: 1
Undoes
EndUndoes
Redoes
EndRedoes
EndUndoRedoHistory
Fore
SplineSet
684 1223 m 2,0,1
 978 1223 978 1223 1124 1088.5 c 128,-1,2
 1270 954 1270 954 1270 696 c 0,3,4
 1270 400.609195402 1270 400.609195402 1095 206.5 c 0,5,6
 1008 110 1008 110 865 55 c 128,-1,7
 722 0 722 0 537 0 c 2,8,-1
 16 0 l 1,9,-1
 27 76 l 1,10,-1
 109 72 l 1,11,12
 139 72 139 72 143 117 c 1,13,-1
 209 586 l 1,14,-1
 102 586 l 1,15,-1
 115 674 l 1,16,-1
 221 674 l 1,17,-1
 283 1108 l 1,18,-1
 283 1116 l 2,19,20
 283 1151 283 1151 252 1151 c 1,21,-1
 178 1147 l 1,22,-1
 188 1223 l 1,23,-1
 684 1223 l 2,0,1
424 100 m 1,24,-1
 422 92 l 1,25,26
 422 74 422 74 442 74 c 2,27,-1
 487 74 l 2,28,29
 670 74 670 74 775 164 c 128,-1,30
 880 254 880 254 927.5 406.5 c 128,-1,31
 975 559 975 559 975 759 c 128,-1,32
 975 959 975 959 897 1055 c 128,-1,33
 819 1151 819 1151 641 1151 c 2,34,-1
 596 1151 l 2,35,36
 570 1151 570 1151 567 1124 c 2,37,-1
 504 674 l 1,38,-1
 811 674 l 1,39,-1
 799 586 l 1,40,-1
 492 586 l 1,41,-1
 424 100 l 1,24,-1
EndSplineSet
Position2: "'cpsp' Capital Spacing lookup 0 per glyph data 2" dx=10 dy=0 dh=20 dv=0
EndChar

StartChar: Dcaron
Encoding: 270 270 19
Width: 1302
Flags: MW
HStem: 0 74<442 487 487 537> 1151 72<252 263 588 596 596 641> 1405 123<662 748 748 797>
VStem: 975 295<683 866 507 886>
LayerCount: 2
UndoRedoHistory
Layer: 1
Undoes
EndUndoes
Redoes
EndRedoes
EndUndoRedoHistory
Fore
SplineSet
989 1663 m 1,0,1
 1029 1688 1029 1688 1055 1688 c 128,-1,2
 1081 1688 1081 1688 1081 1673 c 0,3,4
 1081 1662.1875 1081 1662.1875 1012 1601.09375 c 128,-1,5
 943 1540 943 1540 905 1503 c 1,6,-1
 797 1405 l 2,7,8
 757 1368 757 1368 723 1368 c 128,-1,9
 689 1368 689 1368 662 1405 c 1,10,-1
 582 1503 l 1,11,12
 554 1541 554 1541 519 1581.5 c 0,13,14
 451 1660.18571429 451 1660.18571429 451 1669 c 0,15,16
 451 1688 451 1688 479.5 1688 c 128,-1,17
 508 1688 508 1688 543 1663 c 1,18,-1
 748 1528 l 1,19,-1
 989 1663 l 1,0,1
684 1223 m 2,20,21
 978 1223 978 1223 1124 1088.5 c 128,-1,22
 1270 954 1270 954 1270 696 c 0,23,24
 1270 400.609195402 1270 400.609195402 1095 206.5 c 0,25,26
 1008 110 1008 110 865 55 c 128,-1,27
 722 0 722 0 537 0 c 2,28,-1
 16 0 l 1,29,-1
 27 76 l 1,30,-1
 109 72 l 1,31,32
 139 72 139 72 143 117 c 1,33,-1
 283 1108 l 1,34,-1
 283 1116 l 2,35,36
 283 1151 283 1151 252 1151 c 1,37,-1
 178 1147 l 1,38,-1
 188 1223 l 1,39,-1
 684 1223 l 2,20,21
424 100 m 1,40,-1
 422 92 l 1,41,42
 422 74 422 74 442 74 c 2,43,-1
 487 74 l 2,44,45
 670 74 670 74 775 164 c 128,-1,46
 880 254 880 254 927.5 406.5 c 128,-1,47
 975 559 975 559 975 759 c 128,-1,48
 975 959 975 959 897 1055 c 128,-1,49
 819 1151 819 1151 641 1151 c 2,50,-1
 596 1151 l 2,51,52
 570 1151 570 1151 567 1124 c 2,53,-1
 424 100 l 1,40,-1
EndSplineSet
EndChar

StartChar: Dcroat
Encoding: 272 272 20
Width: 1302
Flags: MW
HStem: 0 74<442 487 487 537> 586 88<115 209 102 221 504 799> 1151 72<252 263 588 596 596 641>
VStem: 975 295<683 866 507 886>
LayerCount: 2
UndoRedoHistory
Layer: 1
Undoes
EndUndoes
Redoes
EndRedoes
EndUndoRedoHistory
Fore
SplineSet
684 1223 m 2,0,1
 978 1223 978 1223 1124 1088.5 c 128,-1,2
 1270 954 1270 954 1270 696 c 0,3,4
 1270 400.609195402 1270 400.609195402 1095 206.5 c 0,5,6
 1008 110 1008 110 865 55 c 128,-1,7
 722 0 722 0 537 0 c 2,8,-1
 16 0 l 1,9,-1
 27 76 l 1,10,-1
 109 72 l 1,11,12
 139 72 139 72 143 117 c 1,13,-1
 209 586 l 1,14,-1
 102 586 l 1,15,-1
 115 674 l 1,16,-1
 221 674 l 1,17,-1
 283 1108 l 1,18,-1
 283 1116 l 2,19,20
 283 1151 283 1151 252 1151 c 1,21,-1
 178 1147 l 1,22,-1
 188 1223 l 1,23,-1
 684 1223 l 2,0,1
424 100 m 1,24,-1
 422 92 l 1,25,26
 422 74 422 74 442 74 c 2,27,-1
 487 74 l 2,28,29
 670 74 670 74 775 164 c 128,-1,30
 880 254 880 254 927.5 406.5 c 128,-1,31
 975 559 975 559 975 759 c 128,-1,32
 975 959 975 959 897 1055 c 128,-1,33
 819 1151 819 1151 641 1151 c 2,34,-1
 596 1151 l 2,35,36
 570 1151 570 1151 567 1124 c 2,37,-1
 504 674 l 1,38,-1
 811 674 l 1,39,-1
 799 586 l 1,40,-1
 492 586 l 1,41,-1
 424 100 l 1,24,-1
EndSplineSet
EndChar

StartChar: E
Encoding: 69 69 21
Width: 1159
Flags: MW
HStem: 0 74<442 666 666 758> 594 72<504 637 492 647> 831 41G<829 901 901 901> 907 315<1004 1075 1004 1004> 1151 72<250 260 588 596 596 752>
VStem: 829 72<872 872>
LayerCount: 2
UndoRedoHistory
Layer: 1
Undoes
EndUndoes
Redoes
EndRedoes
EndUndoRedoHistory
Fore
SplineSet
283 1116 m 2,0,1
 283 1151 283 1151 250 1151 c 1,2,-1
 178 1147 l 1,3,-1
 188 1223 l 1,4,-1
 1085 1223 l 2,5,6
 1112 1223 1112 1223 1120 1225 c 1,7,-1
 1075 907 l 1,8,-1
 1004 907 l 1,9,10
 1008 947 1008 947 1008 965 c 0,11,12
 1008 1063 1008 1063 946.5 1107 c 128,-1,13
 885 1151 885 1151 752 1151 c 2,14,-1
 596 1151 l 2,15,16
 570 1151 570 1151 567 1122 c 2,17,-1
 504 666 l 1,18,-1
 647 666 l 2,19,20
 716 666 716 666 766 721 c 128,-1,21
 816 776 816 776 829 872 c 1,22,-1
 901 872 l 1,23,-1
 834 391 l 1,24,-1
 762 391 l 1,25,26
 764 403 764 403 764 430 c 0,27,28
 764 501 764 501 727.5 547.5 c 128,-1,29
 691 594 691 594 637 594 c 2,30,-1
 492 594 l 1,31,-1
 424 100 l 1,32,-1
 424 94 l 2,33,34
 424 74 424 74 442 74 c 2,35,-1
 666 74 l 2,36,37
 803 74 803 74 886 149.5 c 128,-1,38
 969 225 969 225 989 367 c 1,39,-1
 1061 367 l 1,40,-1
 1010 -6 l 1,41,42
 964 0 964 0 815 0 c 2,43,-1
 16 0 l 1,44,-1
 29 78 l 1,45,-1
 100 72 l 1,46,47
 137 72 137 72 143 117 c 2,48,-1
 283 1108 l 1,49,-1
 283 1116 l 2,0,1
EndSplineSet
Position2: "'cpsp' Capital Spacing lookup 0 per glyph data 2" dx=10 dy=0 dh=20 dv=0
EndChar

StartChar: Eacute
Encoding: 201 201 22
Width: 1159
Flags: MW
HStem: 0 74<442 666 666 758> 594 72<504 637 492 647> 831 41G<829 901 901 901> 907 315<1004 1004 1004 1075> 1151 72<250 260 588 596 596 752>
VStem: 829 72<872 872>
LayerCount: 2
UndoRedoHistory
Layer: 1
Undoes
EndUndoes
Redoes
EndRedoes
EndUndoRedoHistory
Fore
SplineSet
831 1642 m 2,0,1
 835 1646 835 1646 843 1653.5 c 128,-1,2
 851 1661 851 1661 853.5 1663.5 c 128,-1,3
 856 1666 856 1666 862 1671.5 c 128,-1,4
 868 1677 868 1677 870.5 1678.5 c 128,-1,5
 873 1680 873 1680 877.5 1683.5 c 128,-1,6
 882 1687 882 1687 885 1687.5 c 128,-1,7
 888 1688 888 1688 892.5 1689.5 c 0,8,9
 900 1692 900 1692 923.5 1692 c 128,-1,10
 947 1692 947 1692 992.5 1666 c 128,-1,11
 1038 1640 1038 1640 1038 1618.5 c 128,-1,12
 1038 1597 1038 1597 1008 1581 c 1,13,-1
 641 1370 l 1,14,15
 614 1352 614 1352 591.5 1352 c 128,-1,16
 569 1352 569 1352 569 1370.5 c 128,-1,17
 569 1389 569 1389 610 1427 c 1,18,-1
 831 1642 l 2,0,1
283 1116 m 2,19,20
 283 1151 283 1151 250 1151 c 1,21,-1
 178 1147 l 1,22,-1
 188 1223 l 1,23,-1
 1085 1223 l 2,24,25
 1112 1223 1112 1223 1120 1225 c 1,26,-1
 1075 907 l 1,27,-1
 1004 907 l 1,28,29
 1008 947 1008 947 1008 965 c 0,30,31
 1008 1063 1008 1063 946.5 1107 c 128,-1,32
 885 1151 885 1151 752 1151 c 2,33,-1
 596 1151 l 2,34,35
 570 1151 570 1151 567 1122 c 2,36,-1
 504 666 l 1,37,-1
 647 666 l 2,38,39
 716 666 716 666 766 721 c 128,-1,40
 816 776 816 776 829 872 c 1,41,-1
 901 872 l 1,42,-1
 834 391 l 1,43,-1
 762 391 l 1,44,45
 764 403 764 403 764 430 c 0,46,47
 764 501 764 501 727.5 547.5 c 128,-1,48
 691 594 691 594 637 594 c 2,49,-1
 492 594 l 1,50,-1
 424 100 l 1,51,-1
 424 94 l 2,52,53
 424 74 424 74 442 74 c 2,54,-1
 666 74 l 2,55,56
 803 74 803 74 886 149.5 c 128,-1,57
 969 225 969 225 989 367 c 1,58,-1
 1061 367 l 1,59,-1
 1010 -6 l 1,60,61
 964 0 964 0 815 0 c 2,62,-1
 16 0 l 1,63,-1
 29 78 l 1,64,-1
 100 72 l 1,65,66
 137 72 137 72 143 117 c 2,67,-1
 283 1108 l 1,68,-1
 283 1116 l 2,19,20
EndSplineSet
Position2: "'cpsp' Capital Spacing lookup 0 per glyph data 2" dx=10 dy=0 dh=20 dv=0
EndChar

StartChar: Ecaron
Encoding: 282 282 23
Width: 1159
Flags: MW
HStem: 0 74<442 666 666 758> 594 72<504 637 492 647> 831 41G<829 901 901 901> 907 315<1004 1004 1004 1075> 1151 72<250 260 588 596 596 752> 1405 123<647 733 733 782>
VStem: 829 72<872 872>
LayerCount: 2
UndoRedoHistory
Layer: 1
Undoes
EndUndoes
Redoes
EndRedoes
EndUndoRedoHistory
Fore
SplineSet
975 1663 m 1,0,1
 1015 1688 1015 1688 1041 1688 c 128,-1,2
 1067 1688 1067 1688 1067 1673 c 0,3,4
 1067 1662.1875 1067 1662.1875 998 1601.09375 c 128,-1,5
 929 1540 929 1540 891 1503 c 1,6,-1
 782 1405 l 2,7,8
 742 1368 742 1368 708 1368 c 128,-1,9
 674 1368 674 1368 647 1405 c 1,10,-1
 567 1503 l 1,11,12
 539 1541 539 1541 504 1581.5 c 0,13,14
 436 1660.18571429 436 1660.18571429 436 1669 c 0,15,16
 436 1688 436 1688 464.5 1688 c 128,-1,17
 493 1688 493 1688 528 1663 c 1,18,-1
 733 1528 l 1,19,-1
 975 1663 l 1,0,1
283 1116 m 2,20,21
 283 1151 283 1151 250 1151 c 1,22,-1
 178 1147 l 1,23,-1
 188 1223 l 1,24,-1
 1085 1223 l 2,25,26
 1112 1223 1112 1223 1120 1225 c 1,27,-1
 1075 907 l 1,28,-1
 1004 907 l 1,29,30
 1008 947 1008 947 1008 965 c 0,31,32
 1008 1063 1008 1063 946.5 1107 c 128,-1,33
 885 1151 885 1151 752 1151 c 2,34,-1
 596 1151 l 2,35,36
 570 1151 570 1151 567 1122 c 2,37,-1
 504 666 l 1,38,-1
 647 666 l 2,39,40
 716 666 716 666 766 721 c 128,-1,41
 816 776 816 776 829 872 c 1,42,-1
 901 872 l 1,43,-1
 834 391 l 1,44,-1
 762 391 l 1,45,46
 764 403 764 403 764 430 c 0,47,48
 764 501 764 501 727.5 547.5 c 128,-1,49
 691 594 691 594 637 594 c 2,50,-1
 492 594 l 1,51,-1
 424 100 l 1,52,-1
 424 94 l 2,53,54
 424 74 424 74 442 74 c 2,55,-1
 666 74 l 2,56,57
 803 74 803 74 886 149.5 c 128,-1,58
 969 225 969 225 989 367 c 1,59,-1
 1061 367 l 1,60,-1
 1010 -6 l 1,61,62
 964 0 964 0 815 0 c 2,63,-1
 16 0 l 1,64,-1
 29 78 l 1,65,-1
 100 72 l 1,66,67
 137 72 137 72 143 117 c 2,68,-1
 283 1108 l 1,69,-1
 283 1116 l 2,20,21
EndSplineSet
EndChar

StartChar: Ecircumflex
Encoding: 202 202 24
Width: 1159
Flags: MW
HStem: 0 74<442 666 666 758> 594 72<504 637 492 647> 831 41G<829 901 901 901> 907 315<1004 1004 1004 1075> 1151 72<250 260 588 596 596 752> 1524 123<682 731>
VStem: 829 72<872 872>
LayerCount: 2
UndoRedoHistory
Layer: 1
Undoes
EndUndoes
Redoes
EndRedoes
EndUndoRedoHistory
Fore
SplineSet
489 1389 m 1,0,1
 449 1364 449 1364 423 1364 c 128,-1,2
 397 1364 397 1364 397 1375 c 128,-1,3
 397 1386 397 1386 418 1406 c 128,-1,4
 439 1426 439 1426 487 1468.5 c 128,-1,5
 535 1511 535 1511 573 1548 c 1,6,-1
 682 1647 l 2,7,8
 721 1683 721 1683 756 1683 c 128,-1,9
 791 1683 791 1683 817 1647 c 1,10,-1
 897 1548 l 1,11,12
 925 1510 925 1510 960 1469.5 c 0,13,14
 1028 1390.81428571 1028 1390.81428571 1028 1382 c 0,15,16
 1028 1364 1028 1364 999.5 1364 c 128,-1,17
 971 1364 971 1364 936 1389 c 1,18,-1
 731 1524 l 1,19,-1
 489 1389 l 1,0,1
283 1116 m 2,20,21
 283 1151 283 1151 250 1151 c 1,22,-1
 178 1147 l 1,23,-1
 188 1223 l 1,24,-1
 1085 1223 l 2,25,26
 1112 1223 1112 1223 1120 1225 c 1,27,-1
 1075 907 l 1,28,-1
 1004 907 l 1,29,30
 1008 947 1008 947 1008 965 c 0,31,32
 1008 1063 1008 1063 946.5 1107 c 128,-1,33
 885 1151 885 1151 752 1151 c 2,34,-1
 596 1151 l 2,35,36
 570 1151 570 1151 567 1122 c 2,37,-1
 504 666 l 1,38,-1
 647 666 l 2,39,40
 716 666 716 666 766 721 c 128,-1,41
 816 776 816 776 829 872 c 1,42,-1
 901 872 l 1,43,-1
 834 391 l 1,44,-1
 762 391 l 1,45,46
 764 403 764 403 764 430 c 0,47,48
 764 501 764 501 727.5 547.5 c 128,-1,49
 691 594 691 594 637 594 c 2,50,-1
 492 594 l 1,51,-1
 424 100 l 1,52,-1
 424 94 l 2,53,54
 424 74 424 74 442 74 c 2,55,-1
 666 74 l 2,56,57
 803 74 803 74 886 149.5 c 128,-1,58
 969 225 969 225 989 367 c 1,59,-1
 1061 367 l 1,60,-1
 1010 -6 l 1,61,62
 964 0 964 0 815 0 c 2,63,-1
 16 0 l 1,64,-1
 29 78 l 1,65,-1
 100 72 l 1,66,67
 137 72 137 72 143 117 c 2,68,-1
 283 1108 l 1,69,-1
 283 1116 l 2,20,21
EndSplineSet
Position2: "'cpsp' Capital Spacing lookup 0 per glyph data 2" dx=10 dy=0 dh=20 dv=0
EndChar

StartChar: Edieresis
Encoding: 203 203 25
Width: 1159
Flags: MW
HStem: 0 74<442 666 666 758> 594 72<504 637 492 647> 831 41G<829 901 901 901> 907 315<1004 1004 1004 1075> 1151 72<250 260 588 596 596 752> 1386 256<504 569 899 965>
VStem: 377 319<1487 1540> 772 319<1487 1540> 829 72<872 872>
LayerCount: 2
UndoRedoHistory
Layer: 1
Undoes
EndUndoes
Redoes
EndRedoes
EndUndoRedoHistory
Fore
SplineSet
427.5 1601.5 m 128,-1,1
 478 1642 478 1642 548 1642 c 128,-1,2
 618 1642 618 1642 657 1612.5 c 128,-1,3
 696 1583 696 1583 696 1524 c 128,-1,4
 696 1465 696 1465 646.5 1425.5 c 128,-1,5
 597 1386 597 1386 526 1386 c 128,-1,6
 455 1386 455 1386 416 1416 c 128,-1,7
 377 1446 377 1446 377 1503.5 c 128,-1,0
 377 1561 377 1561 427.5 1601.5 c 128,-1,1
822.5 1601.5 m 128,-1,9
 873 1642 873 1642 943 1642 c 128,-1,10
 1013 1642 1013 1642 1052.5 1612.5 c 128,-1,11
 1092 1583 1092 1583 1092 1524 c 128,-1,12
 1092 1465 1092 1465 1042 1425.5 c 128,-1,13
 992 1386 992 1386 921 1386 c 128,-1,14
 850 1386 850 1386 811 1416 c 128,-1,15
 772 1446 772 1446 772 1503.5 c 128,-1,8
 772 1561 772 1561 822.5 1601.5 c 128,-1,9
283 1116 m 2,16,17
 283 1151 283 1151 250 1151 c 1,18,-1
 178 1147 l 1,19,-1
 188 1223 l 1,20,-1
 1085 1223 l 2,21,22
 1112 1223 1112 1223 1120 1225 c 1,23,-1
 1075 907 l 1,24,-1
 1004 907 l 1,25,26
 1008 947 1008 947 1008 965 c 0,27,28
 1008 1063 1008 1063 946.5 1107 c 128,-1,29
 885 1151 885 1151 752 1151 c 2,30,-1
 596 1151 l 2,31,32
 570 1151 570 1151 567 1122 c 2,33,-1
 504 666 l 1,34,-1
 647 666 l 2,35,36
 716 666 716 666 766 721 c 128,-1,37
 816 776 816 776 829 872 c 1,38,-1
 901 872 l 1,39,-1
 834 391 l 1,40,-1
 762 391 l 1,41,42
 764 403 764 403 764 430 c 0,43,44
 764 501 764 501 727.5 547.5 c 128,-1,45
 691 594 691 594 637 594 c 2,46,-1
 492 594 l 1,47,-1
 424 100 l 1,48,-1
 424 94 l 2,49,50
 424 74 424 74 442 74 c 2,51,-1
 666 74 l 2,52,53
 803 74 803 74 886 149.5 c 128,-1,54
 969 225 969 225 989 367 c 1,55,-1
 1061 367 l 1,56,-1
 1010 -6 l 1,57,58
 964 0 964 0 815 0 c 2,59,-1
 16 0 l 1,60,-1
 29 78 l 1,61,-1
 100 72 l 1,62,63
 137 72 137 72 143 117 c 2,64,-1
 283 1108 l 1,65,-1
 283 1116 l 2,16,17
EndSplineSet
Position2: "'cpsp' Capital Spacing lookup 0 per glyph data 2" dx=10 dy=0 dh=20 dv=0
EndChar

StartChar: Edotaccent
Encoding: 278 278 26
Width: 1159
Flags: MW
HStem: 0 74<442 666 666 758> 594 72<504 637 492 647> 831 41G<829 901 901 901> 907 315<1004 1004 1004 1075> 1151 72<250 260 588 596 596 752> 1391 256<698 764>
VStem: 571 319<1491 1544> 829 72<872 872>
LayerCount: 2
UndoRedoHistory
Layer: 1
Undoes
EndUndoes
Redoes
EndRedoes
EndUndoRedoHistory
Fore
SplineSet
622 1606 m 128,-1,1
 673 1647 673 1647 743 1647 c 128,-1,2
 813 1647 813 1647 852 1617 c 128,-1,3
 891 1587 891 1587 891 1528 c 128,-1,4
 891 1469 891 1469 841.5 1430 c 128,-1,5
 792 1391 792 1391 721 1391 c 128,-1,6
 650 1391 650 1391 610.5 1420.5 c 128,-1,7
 571 1450 571 1450 571 1507.5 c 128,-1,0
 571 1565 571 1565 622 1606 c 128,-1,1
283 1116 m 2,8,9
 283 1151 283 1151 250 1151 c 1,10,-1
 178 1147 l 1,11,-1
 188 1223 l 1,12,-1
 1085 1223 l 2,13,14
 1112 1223 1112 1223 1120 1225 c 1,15,-1
 1075 907 l 1,16,-1
 1004 907 l 1,17,18
 1008 947 1008 947 1008 965 c 0,19,20
 1008 1063 1008 1063 946.5 1107 c 128,-1,21
 885 1151 885 1151 752 1151 c 2,22,-1
 596 1151 l 2,23,24
 570 1151 570 1151 567 1122 c 2,25,-1
 504 666 l 1,26,-1
 647 666 l 2,27,28
 716 666 716 666 766 721 c 128,-1,29
 816 776 816 776 829 872 c 1,30,-1
 901 872 l 1,31,-1
 834 391 l 1,32,-1
 762 391 l 1,33,34
 764 403 764 403 764 430 c 0,35,36
 764 501 764 501 727.5 547.5 c 128,-1,37
 691 594 691 594 637 594 c 2,38,-1
 492 594 l 1,39,-1
 424 100 l 1,40,-1
 424 94 l 2,41,42
 424 74 424 74 442 74 c 2,43,-1
 666 74 l 2,44,45
 803 74 803 74 886 149.5 c 128,-1,46
 969 225 969 225 989 367 c 1,47,-1
 1061 367 l 1,48,-1
 1010 -6 l 1,49,50
 964 0 964 0 815 0 c 2,51,-1
 16 0 l 1,52,-1
 29 78 l 1,53,-1
 100 72 l 1,54,55
 137 72 137 72 143 117 c 2,56,-1
 283 1108 l 1,57,-1
 283 1116 l 2,8,9
EndSplineSet
EndChar

StartChar: Egrave
Encoding: 200 200 27
Width: 1159
Flags: MW
HStem: 0 74<442 666 666 758> 594 72<504 637 492 647> 831 41G<829 901 901 901> 907 315<1004 1004 1004 1075> 1151 72<250 260 588 596 596 752>
VStem: 829 72<872 872>
LayerCount: 2
UndoRedoHistory
Layer: 1
Undoes
EndUndoes
Redoes
EndRedoes
EndUndoRedoHistory
Fore
SplineSet
475 1581 m 2,0,1
 455 1595 455 1595 455 1616 c 1,2,3
 458 1637 458 1637 512.5 1664.5 c 128,-1,4
 567 1692 567 1692 588.5 1692 c 128,-1,5
 610 1692 610 1692 614.5 1691 c 128,-1,6
 619 1690 619 1690 622.5 1689.5 c 128,-1,7
 626 1689 626 1689 630 1686 c 128,-1,8
 634 1683 634 1683 636.5 1681.5 c 128,-1,9
 639 1680 639 1680 643.5 1674.5 c 128,-1,10
 648 1669 648 1669 650 1666.5 c 128,-1,11
 652 1664 652 1664 658.5 1655 c 128,-1,12
 665 1646 665 1646 668 1642 c 2,13,-1
 836 1425 l 1,14,15
 883.351351351 1352 883.351351351 1352 829 1352 c 0,16,17
 809 1352 809 1352 782 1370 c 2,18,-1
 475 1581 l 2,0,1
283 1116 m 2,19,20
 283 1151 283 1151 250 1151 c 1,21,-1
 178 1147 l 1,22,-1
 188 1223 l 1,23,-1
 1085 1223 l 2,24,25
 1112 1223 1112 1223 1120 1225 c 1,26,-1
 1075 907 l 1,27,-1
 1004 907 l 1,28,29
 1008 947 1008 947 1008 965 c 0,30,31
 1008 1063 1008 1063 946.5 1107 c 128,-1,32
 885 1151 885 1151 752 1151 c 2,33,-1
 596 1151 l 2,34,35
 570 1151 570 1151 567 1122 c 2,36,-1
 504 666 l 1,37,-1
 647 666 l 2,38,39
 716 666 716 666 766 721 c 128,-1,40
 816 776 816 776 829 872 c 1,41,-1
 901 872 l 1,42,-1
 834 391 l 1,43,-1
 762 391 l 1,44,45
 764 403 764 403 764 430 c 0,46,47
 764 501 764 501 727.5 547.5 c 128,-1,48
 691 594 691 594 637 594 c 2,49,-1
 492 594 l 1,50,-1
 424 100 l 1,51,-1
 424 94 l 2,52,53
 424 74 424 74 442 74 c 2,54,-1
 666 74 l 2,55,56
 803 74 803 74 886 149.5 c 128,-1,57
 969 225 969 225 989 367 c 1,58,-1
 1061 367 l 1,59,-1
 1010 -6 l 1,60,61
 964 0 964 0 815 0 c 2,62,-1
 16 0 l 1,63,-1
 29 78 l 1,64,-1
 100 72 l 1,65,66
 137 72 137 72 143 117 c 2,67,-1
 283 1108 l 1,68,-1
 283 1116 l 2,19,20
EndSplineSet
Position2: "'cpsp' Capital Spacing lookup 0 per glyph data 2" dx=10 dy=0 dh=20 dv=0
EndChar

StartChar: Emacron
Encoding: 274 274 28
Width: 1159
Flags: MW
HStem: 0 74<442 666 666 758> 594 72<504 637 492 647> 831 41G<829 901 901 901> 907 315<1004 1004 1004 1075> 1151 72<250 260 588 596 596 752> 1386 96<479 956 465 971>
VStem: 829 72<872 872>
LayerCount: 2
UndoRedoHistory
Layer: 1
Undoes
EndUndoes
Redoes
EndRedoes
EndUndoRedoHistory
Fore
SplineSet
956 1386 m 1,0,-1
 465 1386 l 1,1,-1
 479 1483 l 1,2,-1
 971 1483 l 1,3,-1
 956 1386 l 1,0,-1
283 1116 m 2,4,5
 283 1151 283 1151 250 1151 c 1,6,-1
 178 1147 l 1,7,-1
 188 1223 l 1,8,-1
 1085 1223 l 2,9,10
 1112 1223 1112 1223 1120 1225 c 1,11,-1
 1075 907 l 1,12,-1
 1004 907 l 1,13,14
 1008 947 1008 947 1008 965 c 0,15,16
 1008 1063 1008 1063 946.5 1107 c 128,-1,17
 885 1151 885 1151 752 1151 c 2,18,-1
 596 1151 l 2,19,20
 570 1151 570 1151 567 1122 c 2,21,-1
 504 666 l 1,22,-1
 647 666 l 2,23,24
 716 666 716 666 766 721 c 128,-1,25
 816 776 816 776 829 872 c 1,26,-1
 901 872 l 1,27,-1
 834 391 l 1,28,-1
 762 391 l 1,29,30
 764 403 764 403 764 430 c 0,31,32
 764 501 764 501 727.5 547.5 c 128,-1,33
 691 594 691 594 637 594 c 2,34,-1
 492 594 l 1,35,-1
 424 100 l 1,36,-1
 424 94 l 2,37,38
 424 74 424 74 442 74 c 2,39,-1
 666 74 l 2,40,41
 803 74 803 74 886 149.5 c 128,-1,42
 969 225 969 225 989 367 c 1,43,-1
 1061 367 l 1,44,-1
 1010 -6 l 1,45,46
 964 0 964 0 815 0 c 2,47,-1
 16 0 l 1,48,-1
 29 78 l 1,49,-1
 100 72 l 1,50,51
 137 72 137 72 143 117 c 2,52,-1
 283 1108 l 1,53,-1
 283 1116 l 2,4,5
EndSplineSet
EndChar

StartChar: Eogonek
Encoding: 280 280 29
Width: 1159
Flags: MW
HStem: -326 119<777 929> 0 74<442 666 666 758> 594 72<504 637 492 647> 831 41G<829 901 901 901> 907 315<1004 1004 1004 1075> 1151 72<250 260 588 596 596 752>
VStem: 668 147<-240 -101> 829 72<872 872>
LayerCount: 2
UndoRedoHistory
Layer: 1
Undoes
EndUndoes
Redoes
EndRedoes
EndUndoRedoHistory
Fore
SplineSet
283 1116 m 2,0,1
 283 1151 283 1151 250 1151 c 1,2,-1
 178 1147 l 1,3,-1
 188 1223 l 1,4,-1
 1085 1223 l 2,5,6
 1112 1223 1112 1223 1120 1225 c 1,7,-1
 1075 907 l 1,8,-1
 1004 907 l 1,9,10
 1008 947 1008 947 1008 965 c 0,11,12
 1008 1063 1008 1063 946.5 1107 c 128,-1,13
 885 1151 885 1151 752 1151 c 2,14,-1
 596 1151 l 2,15,16
 570 1151 570 1151 567 1122 c 2,17,-1
 504 666 l 1,18,-1
 647 666 l 2,19,20
 716 666 716 666 766 721 c 128,-1,21
 816 776 816 776 829 872 c 1,22,-1
 901 872 l 1,23,-1
 834 391 l 1,24,-1
 762 391 l 1,25,26
 764 403 764 403 764 430 c 0,27,28
 764 501 764 501 727.5 547.5 c 128,-1,29
 691 594 691 594 637 594 c 2,30,-1
 492 594 l 1,31,-1
 424 100 l 1,32,-1
 424 94 l 2,33,34
 424 74 424 74 442 74 c 2,35,-1
 666 74 l 2,36,37
 803 74 803 74 886 149.5 c 128,-1,38
 969 225 969 225 989 367 c 1,39,-1
 1061 367 l 1,40,-1
 1010 -6 l 1,41,42
 981 -3 981 -3 879 0 c 1,43,44
 815 -52 815 -52 815 -125 c 0,45,46
 815 -161 815 -161 837.5 -184 c 128,-1,47
 860 -207 860 -207 917.5 -207 c 128,-1,48
 975 -207 975 -207 1051 -162 c 1,49,-1
 1071 -203 l 1,50,51
 948 -326 948 -326 815 -326 c 0,52,53
 754 -326 754 -326 711 -292 c 128,-1,54
 668 -258 668 -258 668 -197 c 0,55,56
 668 -81.1451612903 668 -81.1451612903 797 0 c 1,57,-1
 16 0 l 1,58,-1
 29 78 l 1,59,-1
 100 72 l 1,60,61
 137 72 137 72 143 117 c 2,62,-1
 283 1108 l 1,63,-1
 283 1116 l 2,0,1
EndSplineSet
EndChar

StartChar: F
Encoding: 70 70 30
Width: 1075
Flags: MW
HStem: 0 72<100 113 447 457> 573 72<500 627 489 635> 907 315<1024 1096 1024 1024> 1151 72<256 265 588 596 596 772>
VStem: 825 72<854 854>
LayerCount: 2
UndoRedoHistory
Layer: 1
Undoes
EndUndoes
Redoes
EndRedoes
EndUndoRedoHistory
Fore
SplineSet
426 106 m 2,0,1
 426 72 426 72 457 72 c 1,2,-1
 565 78 l 1,3,-1
 553 0 l 1,4,-1
 16 0 l 1,5,-1
 29 78 l 1,6,-1
 100 72 l 1,7,8
 137 72 137 72 143 117 c 2,9,-1
 283 1108 l 1,10,-1
 283 1120 l 2,11,12
 283 1151 283 1151 256 1151 c 1,13,-1
 178 1147 l 1,14,-1
 188 1223 l 1,15,-1
 1110 1223 l 2,16,17
 1133 1223 1133 1223 1141 1225 c 1,18,-1
 1096 907 l 1,19,-1
 1024 907 l 1,20,21
 1030 942 1030 942 1030 969 c 0,22,23
 1030 1063 1030 1063 967 1107 c 128,-1,24
 904 1151 904 1151 772 1151 c 2,25,-1
 596 1151 l 2,26,27
 570 1151 570 1151 567 1124 c 2,28,-1
 500 645 l 1,29,-1
 635 645 l 2,30,31
 708 645 708 645 760 701 c 128,-1,32
 812 757 812 757 825 854 c 1,33,-1
 897 854 l 1,34,-1
 829 369 l 1,35,-1
 758 369 l 1,36,37
 760 383 760 383 760 412 c 0,38,39
 760 487 760 487 724.5 530 c 128,-1,40
 689 573 689 573 627 573 c 2,41,-1
 489 573 l 1,42,-1
 426 115 l 1,43,-1
 426 106 l 2,0,1
EndSplineSet
Position2: "'cpsp' Capital Spacing lookup 0 per glyph data 2" dx=10 dy=0 dh=20 dv=0
EndChar

StartChar: G
Encoding: 71 71 31
Width: 1323
Flags: MW
HStem: -20 72<561 687 561 752> 487 70<868 879 1214 1225> 872 283<1203 1210 1106 1251> 1178 66<687 925>
VStem: 78 301<327 664 306 739> 1114 96<872 920>
LayerCount: 2
UndoRedoHistory
Layer: 1
Undoes
EndUndoes
Redoes
EndRedoes
EndUndoRedoHistory
Fore
SplineSet
1130 72 m 1,0,1
 1106 76 1106 76 1083 76 c 128,-1,2
 1060 76 1060 76 1012.5 61 c 128,-1,3
 965 46 965 46 918 28 c 0,4,5
 792.666666667 -20 792.666666667 -20 621 -20 c 0,6,7
 363 -20 363 -20 220.5 112.5 c 128,-1,8
 78 245 78 245 78 500 c 0,9,10
 78 857 78 857 272 1050 c 128,-1,11
 466 1243 466 1243 813 1243 c 0,12,13
 961 1243 961 1243 1151.5 1177 c 0,14,15
 1215 1155 1215 1155 1251 1155 c 1,16,17
 1219 1034 1219 1034 1210 872 c 1,18,-1
 1106 872 l 1,19,20
 1114 891 1114 891 1114 920 c 1,21,22
 1123 1045 1123 1045 1048.5 1111.5 c 128,-1,23
 974 1178 974 1178 825 1178 c 0,24,25
 619 1178 619 1178 499 978 c 128,-1,26
 379 778 379 778 379 438 c 0,27,28
 379 51 379 51 647 51 c 0,29,30
 768 51 768 51 856 139 c 1,31,-1
 899 442 l 1,32,-1
 899 455 l 2,33,34
 899 487 899 487 868 487 c 1,35,-1
 748 483 l 1,36,-1
 758 557 l 1,37,-1
 1303 557 l 1,38,-1
 1292 483 l 1,39,-1
 1225 487 l 2,40,41
 1210 487 1210 487 1197.5 474 c 128,-1,42
 1185 461 1185 461 1182 444 c 2,43,-1
 1130 72 l 1,0,1
EndSplineSet
Position2: "'cpsp' Capital Spacing lookup 0 per glyph data 2" dx=10 dy=0 dh=20 dv=0
EndChar

StartChar: Gbreve
Encoding: 286 286 32
Width: 1323
Flags: MW
HStem: -20 72<561 687 561 752> 487 70<868 879 1214 1225> 872 283<1203 1210 1106 1251> 1178 66<687 925> 1350 133<748 859 748 867>
VStem: 78 301<327 664 306 739> 1114 96<872 920>
LayerCount: 2
UndoRedoHistory
Layer: 1
Undoes
EndUndoes
Redoes
EndRedoes
EndUndoRedoHistory
Fore
SplineSet
1098 1618 m 1,0,1
 1078 1499 1078 1499 992.5 1424.5 c 128,-1,2
 907 1350 907 1350 791 1350 c 128,-1,3
 675 1350 675 1350 613 1412 c 128,-1,4
 551 1474 551 1474 551 1577 c 0,5,6
 551 1604 551 1604 553 1618 c 1,7,-1
 649 1618 l 1,8,9
 654 1560 654 1560 690 1521.5 c 128,-1,10
 726 1483 726 1483 803 1483 c 128,-1,11
 880 1483 880 1483 930 1522 c 128,-1,12
 980 1561 980 1561 1001 1618 c 1,13,-1
 1098 1618 l 1,0,1
1130 72 m 1,14,15
 1106 76 1106 76 1083 76 c 128,-1,16
 1060 76 1060 76 1012.5 61 c 128,-1,17
 965 46 965 46 918 28 c 0,18,19
 792.666666667 -20 792.666666667 -20 621 -20 c 0,20,21
 363 -20 363 -20 220.5 112.5 c 128,-1,22
 78 245 78 245 78 500 c 0,23,24
 78 857 78 857 272 1050 c 128,-1,25
 466 1243 466 1243 813 1243 c 0,26,27
 961 1243 961 1243 1151.5 1177 c 0,28,29
 1215 1155 1215 1155 1251 1155 c 1,30,31
 1219 1034 1219 1034 1210 872 c 1,32,-1
 1106 872 l 1,33,34
 1114 891 1114 891 1114 920 c 1,35,36
 1123 1045 1123 1045 1048.5 1111.5 c 128,-1,37
 974 1178 974 1178 825 1178 c 0,38,39
 619 1178 619 1178 499 978 c 128,-1,40
 379 778 379 778 379 438 c 0,41,42
 379 51 379 51 647 51 c 0,43,44
 768 51 768 51 856 139 c 1,45,-1
 899 442 l 1,46,-1
 899 455 l 2,47,48
 899 487 899 487 868 487 c 1,49,-1
 748 483 l 1,50,-1
 758 557 l 1,51,-1
 1303 557 l 1,52,-1
 1292 483 l 1,53,-1
 1225 487 l 2,54,55
 1210 487 1210 487 1197.5 474 c 128,-1,56
 1185 461 1185 461 1182 444 c 2,57,-1
 1130 72 l 1,14,15
EndSplineSet
EndChar

StartChar: Gcommaaccent
Encoding: 290 290 33
Width: 1323
Flags: MW
HStem: -289 219<513 656> -20 72<561 687 561 752> 487 70<868 879 1214 1225> 872 283<1203 1210 1106 1251> 1178 66<687 925>
VStem: 78 301<327 664 306 739> 465 289<-225 -173 -276 -172> 1114 96<872 920>
LayerCount: 2
UndoRedoHistory
Layer: 1
Undoes
EndUndoes
Redoes
EndRedoes
EndUndoRedoHistory
Fore
SplineSet
1130 72 m 1,0,1
 1106 76 1106 76 1083 76 c 128,-1,2
 1060 76 1060 76 1012.5 61 c 128,-1,3
 965 46 965 46 918 28 c 0,4,5
 792.666666667 -20 792.666666667 -20 621 -20 c 0,6,7
 363 -20 363 -20 220.5 112.5 c 128,-1,8
 78 245 78 245 78 500 c 0,9,10
 78 857 78 857 272 1050 c 128,-1,11
 466 1243 466 1243 813 1243 c 0,12,13
 961 1243 961 1243 1151.5 1177 c 0,14,15
 1215 1155 1215 1155 1251 1155 c 1,16,17
 1219 1034 1219 1034 1210 872 c 1,18,-1
 1106 872 l 1,19,20
 1114 891 1114 891 1114 920 c 1,21,22
 1123 1045 1123 1045 1048.5 1111.5 c 128,-1,23
 974 1178 974 1178 825 1178 c 0,24,25
 619 1178 619 1178 499 978 c 128,-1,26
 379 778 379 778 379 438 c 0,27,28
 379 51 379 51 647 51 c 0,29,30
 768 51 768 51 856 139 c 1,31,-1
 899 442 l 1,32,-1
 899 455 l 2,33,34
 899 487 899 487 868 487 c 1,35,-1
 748 483 l 1,36,-1
 758 557 l 1,37,-1
 1303 557 l 1,38,-1
 1292 483 l 1,39,-1
 1225 487 l 2,40,41
 1210 487 1210 487 1197.5 474 c 128,-1,42
 1185 461 1185 461 1182 444 c 2,43,-1
 1130 72 l 1,0,1
473 -469 m 1,44,45
 519 -441 519 -441 552.5 -405.5 c 128,-1,46
 586 -370 586 -370 586 -340 c 1,47,48
 588 -289 588 -289 537 -289 c 0,49,50
 503 -289 503 -289 484 -264 c 128,-1,51
 465 -239 465 -239 465 -195.5 c 128,-1,52
 465 -152 465 -152 503.5 -111 c 128,-1,53
 542 -70 542 -70 609 -70 c 128,-1,54
 676 -70 676 -70 715 -111 c 128,-1,55
 754 -152 754 -152 754 -209 c 0,56,57
 754 -304 754 -304 681.5 -386 c 128,-1,58
 609 -468 609 -468 508 -514 c 1,59,-1
 473 -469 l 1,44,45
EndSplineSet
EndChar

StartChar: H
Encoding: 72 72 34
Width: 1415
Flags: MW
HStem: 0 72<98 102 102 115 449 459 854 867> 588 72<502 965 492 975> 1151 72<252 252 599 612 1006 1019 1352 1364>
VStem: 16 1430<0 1223>
LayerCount: 2
UndoRedoHistory
Layer: 1
Undoes
EndUndoes
Redoes
EndRedoes
EndUndoRedoHistory
Fore
SplineSet
285 1120 m 1,0,1
 285 1153.0625 285 1153.0625 252 1151 c 2,2,-1
 178 1147 l 1,3,-1
 188 1223 l 1,4,-1
 721 1223 l 1,5,-1
 711 1147 l 1,6,-1
 612 1151 l 1,7,8
 569.526315789 1151 569.526315789 1151 565 1108 c 1,9,-1
 502 659 l 1,10,-1
 975 659 l 1,11,-1
 1038 1108 l 1,12,-1
 1038 1116 l 2,13,14
 1038 1151 1038 1151 1006 1151 c 1,15,-1
 905 1147 l 1,16,-1
 915 1223 l 1,17,-1
 1446 1223 l 1,18,-1
 1436 1147 l 1,19,-1
 1364 1151 l 1,20,21
 1325.52631579 1151 1325.52631579 1151 1321 1108 c 1,22,-1
 1180 117 l 1,23,-1
 1180 104 l 2,24,25
 1180 69 1180 69 1212 72 c 1,26,-1
 1284 76 l 1,27,-1
 1274 0 l 1,28,-1
 743 0 l 1,29,-1
 754 76 l 1,30,-1
 854 72 l 1,31,32
 891 72 891 72 897 117 c 2,33,-1
 965 588 l 1,34,-1
 492 588 l 1,35,-1
 426 117 l 1,36,-1
 426 106 l 2,37,38
 426 72 426 72 459 72 c 1,39,-1
 559 76 l 1,40,-1
 549 0 l 1,41,-1
 16 0 l 1,42,-1
 27 76 l 1,43,-1
 98 72 l 1,44,-1
 102 72 l 2,45,46
 137 72 137 72 143 117 c 2,47,-1
 283 1108 l 1,48,-1
 285 1120 l 1,0,1
EndSplineSet
Position2: "'cpsp' Capital Spacing lookup 0 per glyph data 2" dx=10 dy=0 dh=20 dv=0
EndChar

StartChar: I
Encoding: 73 73 35
Width: 661
Flags: MW
HStem: 0 72<98 102 102 115> 1151 72<252 262 600 612>
VStem: 16 678
LayerCount: 2
UndoRedoHistory
Layer: 1
Undoes
EndUndoes
Redoes
EndRedoes
EndUndoRedoHistory
Fore
SplineSet
283 1118 m 2,0,1
 283 1151 283 1151 252 1151 c 1,2,-1
 178 1147 l 1,3,-1
 188 1223 l 1,4,-1
 694 1223 l 1,5,-1
 682 1147 l 1,6,-1
 612 1151 l 1,7,8
 593 1151 593 1151 579.5 1139 c 128,-1,9
 566 1127 566 1127 565 1108 c 1,10,-1
 426 117 l 1,11,-1
 426 106 l 2,12,13
 426 88 426 88 435 79 c 128,-1,14
 444 70 444 70 459 72 c 1,15,-1
 530 76 l 1,16,-1
 522 0 l 1,17,-1
 16 0 l 1,18,-1
 27 76 l 1,19,-1
 98 72 l 1,20,-1
 102 72 l 2,21,22
 137 72 137 72 143 117 c 2,23,-1
 283 1108 l 1,24,-1
 283 1118 l 2,0,1
EndSplineSet
Position2: "'cpsp' Capital Spacing lookup 0 per glyph data 2" dx=10 dy=0 dh=20 dv=0
EndChar

StartChar: IJ
Encoding: 306 306 36
Width: 1593
Flags: MW
HStem: -20 70<901 975 865 1084> 0 72<98 102 102 115> 10 342<711 750> 1151 72<252 262 600 612 1196 1206 1543 1556>
VStem: 16 1620<0 1223>
LayerCount: 2
UndoRedoHistory
Layer: 1
Undoes
EndUndoes
Redoes
EndRedoes
EndUndoRedoHistory
Fore
SplineSet
283 1118 m 2,0,1
 283 1151 283 1151 252 1151 c 1,2,-1
 178 1147 l 1,3,-1
 188 1223 l 1,4,-1
 694 1223 l 1,5,-1
 682 1147 l 1,6,-1
 612 1151 l 1,7,8
 593 1151 593 1151 579.5 1139 c 128,-1,9
 566 1127 566 1127 565 1108 c 1,10,-1
 426 117 l 1,11,-1
 426 106 l 2,12,13
 426 88 426 88 435 79 c 128,-1,14
 444 70 444 70 459 72 c 1,15,-1
 530 76 l 1,16,-1
 522 0 l 1,17,-1
 16 0 l 1,18,-1
 27 76 l 1,19,-1
 98 72 l 1,20,-1
 102 72 l 2,21,22
 137 72 137 72 143 117 c 2,23,-1
 283 1108 l 1,24,-1
 283 1118 l 2,0,1
1227 1116 m 2,25,26
 1227 1151 1227 1151 1196 1151 c 2,27,-1
 1053 1147 l 1,28,-1
 1065 1223 l 1,29,-1
 1636 1223 l 1,30,-1
 1624 1147 l 1,31,-1
 1556 1151 l 1,32,33
 1516 1151 1516 1151 1509 1110 c 1,34,-1
 1405 367 l 2,35,36
 1350 -20 1350 -20 954 -20 c 0,37,38
 894 -20 894 -20 818.5 -5 c 128,-1,39
 743 10 743 10 704 10 c 128,-1,40
 665 10 665 10 647 -4 c 1,41,-1
 698 352 l 1,42,-1
 788 352 l 1,43,44
 782 312 782 312 782 260.5 c 128,-1,45
 782 209 782 209 793.5 163 c 128,-1,46
 805 117 805 117 837 83 c 128,-1,47
 869 49 869 49 918 49 c 0,48,49
 1005 49 1005 49 1051 120 c 128,-1,50
 1097 191 1097 191 1122 367 c 2,51,-1
 1227 1108 l 1,52,-1
 1227 1116 l 2,25,26
EndSplineSet
Position2: "'cpsp' Capital Spacing lookup 0 per glyph data 2" dx=10 dy=0 dh=20 dv=0
EndChar

StartChar: Iacute
Encoding: 205 205 37
Width: 661
Flags: MW
HStem: 0 72<98 102 102 115> 1151 72<252 262 600 612>
VStem: 16 754
LayerCount: 2
UndoRedoHistory
Layer: 1
Undoes
EndUndoes
Redoes
EndRedoes
EndUndoRedoHistory
Fore
SplineSet
563 1642 m 2,0,1
 567 1646 567 1646 575 1653.5 c 128,-1,2
 583 1661 583 1661 585.5 1663.5 c 128,-1,3
 588 1666 588 1666 594 1671.5 c 128,-1,4
 600 1677 600 1677 602.5 1678.5 c 128,-1,5
 605 1680 605 1680 609.5 1683.5 c 128,-1,6
 614 1687 614 1687 617 1687.5 c 128,-1,7
 620 1688 620 1688 624.5 1689.5 c 0,8,9
 632 1692 632 1692 655.5 1692 c 128,-1,10
 679 1692 679 1692 724.5 1666 c 128,-1,11
 770 1640 770 1640 770 1618.5 c 128,-1,12
 770 1597 770 1597 739 1581 c 1,13,-1
 373 1370 l 1,14,15
 346 1352 346 1352 323.5 1352 c 128,-1,16
 301 1352 301 1352 301 1370.5 c 128,-1,17
 301 1389 301 1389 342 1427 c 1,18,-1
 563 1642 l 2,0,1
283 1118 m 2,19,20
 283 1151 283 1151 252 1151 c 1,21,-1
 178 1147 l 1,22,-1
 188 1223 l 1,23,-1
 694 1223 l 1,24,-1
 682 1147 l 1,25,-1
 612 1151 l 1,26,27
 593 1151 593 1151 579.5 1139 c 128,-1,28
 566 1127 566 1127 565 1108 c 1,29,-1
 426 117 l 1,30,-1
 426 106 l 2,31,32
 426 88 426 88 435 79 c 128,-1,33
 444 70 444 70 459 72 c 1,34,-1
 530 76 l 1,35,-1
 522 0 l 1,36,-1
 16 0 l 1,37,-1
 27 76 l 1,38,-1
 98 72 l 1,39,-1
 102 72 l 2,40,41
 137 72 137 72 143 117 c 2,42,-1
 283 1108 l 1,43,-1
 283 1118 l 2,19,20
EndSplineSet
Position2: "'cpsp' Capital Spacing lookup 0 per glyph data 2" dx=10 dy=0 dh=20 dv=0
EndChar

StartChar: Icircumflex
Encoding: 206 206 38
Width: 661
Flags: MW
HStem: 0 72<98 102 102 115> 1151 72<252 262 600 612> 1524 123<414 463>
VStem: 16 743
LayerCount: 2
UndoRedoHistory
Layer: 1
Undoes
EndUndoes
Redoes
EndRedoes
EndUndoRedoHistory
Fore
SplineSet
221 1389 m 1,0,1
 181 1364 181 1364 155 1364 c 128,-1,2
 129 1364 129 1364 129 1375 c 128,-1,3
 129 1386 129 1386 150 1406 c 128,-1,4
 171 1426 171 1426 219 1468.5 c 128,-1,5
 267 1511 267 1511 305 1548 c 1,6,-1
 414 1647 l 2,7,8
 453 1683 453 1683 488 1683 c 128,-1,9
 523 1683 523 1683 549 1647 c 1,10,-1
 629 1548 l 1,11,12
 657 1510 657 1510 692 1469.5 c 0,13,14
 760 1390.81428571 760 1390.81428571 760 1382 c 0,15,16
 760 1364 760 1364 731.5 1364 c 128,-1,17
 703 1364 703 1364 668 1389 c 1,18,-1
 463 1524 l 1,19,-1
 221 1389 l 1,0,1
283 1118 m 2,20,21
 283 1151 283 1151 252 1151 c 1,22,-1
 178 1147 l 1,23,-1
 188 1223 l 1,24,-1
 694 1223 l 1,25,-1
 682 1147 l 1,26,-1
 612 1151 l 1,27,28
 593 1151 593 1151 579.5 1139 c 128,-1,29
 566 1127 566 1127 565 1108 c 1,30,-1
 426 117 l 1,31,-1
 426 106 l 2,32,33
 426 88 426 88 435 79 c 128,-1,34
 444 70 444 70 459 72 c 1,35,-1
 530 76 l 1,36,-1
 522 0 l 1,37,-1
 16 0 l 1,38,-1
 27 76 l 1,39,-1
 98 72 l 1,40,-1
 102 72 l 2,41,42
 137 72 137 72 143 117 c 2,43,-1
 283 1108 l 1,44,-1
 283 1118 l 2,20,21
EndSplineSet
Position2: "'cpsp' Capital Spacing lookup 0 per glyph data 2" dx=10 dy=0 dh=20 dv=0
EndChar

StartChar: Idieresis
Encoding: 207 207 39
Width: 661
Flags: MW
HStem: 0 72<98 102 102 115> 1151 72<252 262 600 612> 1386 256<236 301 633 698>
VStem: 109 319<1487 1540> 506 319<1487 1540>
LayerCount: 2
UndoRedoHistory
Layer: 1
Undoes
EndUndoes
Redoes
EndRedoes
EndUndoRedoHistory
Fore
SplineSet
159.5 1601.5 m 128,-1,1
 210 1642 210 1642 280 1642 c 128,-1,2
 350 1642 350 1642 389 1612.5 c 128,-1,3
 428 1583 428 1583 428 1524 c 128,-1,4
 428 1465 428 1465 378.5 1425.5 c 128,-1,5
 329 1386 329 1386 258 1386 c 128,-1,6
 187 1386 187 1386 148 1416 c 128,-1,7
 109 1446 109 1446 109 1503.5 c 128,-1,0
 109 1561 109 1561 159.5 1601.5 c 128,-1,1
556.5 1601.5 m 128,-1,9
 607 1642 607 1642 677 1642 c 128,-1,10
 747 1642 747 1642 786 1612.5 c 128,-1,11
 825 1583 825 1583 825 1524 c 128,-1,12
 825 1465 825 1465 775.5 1425.5 c 128,-1,13
 726 1386 726 1386 655 1386 c 128,-1,14
 584 1386 584 1386 545 1416 c 128,-1,15
 506 1446 506 1446 506 1503.5 c 128,-1,8
 506 1561 506 1561 556.5 1601.5 c 128,-1,9
283 1118 m 2,16,17
 283 1151 283 1151 252 1151 c 1,18,-1
 178 1147 l 1,19,-1
 188 1223 l 1,20,-1
 694 1223 l 1,21,-1
 682 1147 l 1,22,-1
 612 1151 l 1,23,24
 593 1151 593 1151 579.5 1139 c 128,-1,25
 566 1127 566 1127 565 1108 c 1,26,-1
 426 117 l 1,27,-1
 426 106 l 2,28,29
 426 88 426 88 435 79 c 128,-1,30
 444 70 444 70 459 72 c 1,31,-1
 530 76 l 1,32,-1
 522 0 l 1,33,-1
 16 0 l 1,34,-1
 27 76 l 1,35,-1
 98 72 l 1,36,-1
 102 72 l 2,37,38
 137 72 137 72 143 117 c 2,39,-1
 283 1108 l 1,40,-1
 283 1118 l 2,16,17
EndSplineSet
Position2: "'cpsp' Capital Spacing lookup 0 per glyph data 2" dx=10 dy=0 dh=20 dv=0
EndChar

StartChar: Idotaccent
Encoding: 304 304 40
Width: 661
Flags: MW
HStem: 0 72<98 102 102 115> 1151 72<252 262 600 612> 1391 256<430 496>
VStem: 303 319<1491 1544>
LayerCount: 2
UndoRedoHistory
Layer: 1
Undoes
EndUndoes
Redoes
EndRedoes
EndUndoRedoHistory
Fore
SplineSet
353.5 1606 m 128,-1,1
 404 1647 404 1647 474 1647 c 128,-1,2
 544 1647 544 1647 583.5 1617 c 128,-1,3
 623 1587 623 1587 623 1528 c 128,-1,4
 623 1469 623 1469 573 1430 c 128,-1,5
 523 1391 523 1391 452 1391 c 128,-1,6
 381 1391 381 1391 342 1420.5 c 128,-1,7
 303 1450 303 1450 303 1507.5 c 128,-1,0
 303 1565 303 1565 353.5 1606 c 128,-1,1
283 1118 m 2,8,9
 283 1151 283 1151 252 1151 c 1,10,-1
 178 1147 l 1,11,-1
 188 1223 l 1,12,-1
 694 1223 l 1,13,-1
 682 1147 l 1,14,-1
 612 1151 l 1,15,16
 593 1151 593 1151 579.5 1139 c 128,-1,17
 566 1127 566 1127 565 1108 c 1,18,-1
 426 117 l 1,19,-1
 426 106 l 2,20,21
 426 88 426 88 435 79 c 128,-1,22
 444 70 444 70 459 72 c 1,23,-1
 530 76 l 1,24,-1
 522 0 l 1,25,-1
 16 0 l 1,26,-1
 27 76 l 1,27,-1
 98 72 l 1,28,-1
 102 72 l 2,29,30
 137 72 137 72 143 117 c 2,31,-1
 283 1108 l 1,32,-1
 283 1118 l 2,8,9
EndSplineSet
EndChar

StartChar: Igrave
Encoding: 204 204 41
Width: 661
Flags: MW
HStem: 0 72<98 102 102 115> 1151 72<252 262 600 612>
VStem: 16 678
LayerCount: 2
UndoRedoHistory
Layer: 1
Undoes
EndUndoes
Redoes
EndRedoes
EndUndoRedoHistory
Fore
SplineSet
207 1581 m 2,0,1
 186 1596 186 1596 186 1616 c 1,2,3
 189 1637 189 1637 244 1664.5 c 128,-1,4
 299 1692 299 1692 321 1692 c 128,-1,5
 343 1692 343 1692 347.5 1691.5 c 128,-1,6
 352 1691 352 1691 357 1688.5 c 128,-1,7
 362 1686 362 1686 364.5 1684.5 c 128,-1,8
 367 1683 367 1683 372 1677.5 c 128,-1,9
 377 1672 377 1672 379 1669 c 0,10,11
 387 1657 387 1657 399 1642 c 2,12,-1
 567 1425 l 1,13,14
 613.794871795 1352 613.794871795 1352 561 1352 c 0,15,16
 541 1352 541 1352 514 1370 c 2,17,-1
 207 1581 l 2,0,1
283 1118 m 2,18,19
 283 1151 283 1151 252 1151 c 1,20,-1
 178 1147 l 1,21,-1
 188 1223 l 1,22,-1
 694 1223 l 1,23,-1
 682 1147 l 1,24,-1
 612 1151 l 1,25,26
 593 1151 593 1151 579.5 1139 c 128,-1,27
 566 1127 566 1127 565 1108 c 1,28,-1
 426 117 l 1,29,-1
 426 106 l 2,30,31
 426 88 426 88 435 79 c 128,-1,32
 444 70 444 70 459 72 c 1,33,-1
 530 76 l 1,34,-1
 522 0 l 1,35,-1
 16 0 l 1,36,-1
 27 76 l 1,37,-1
 98 72 l 1,38,-1
 102 72 l 2,39,40
 137 72 137 72 143 117 c 2,41,-1
 283 1108 l 1,42,-1
 283 1118 l 2,18,19
EndSplineSet
Position2: "'cpsp' Capital Spacing lookup 0 per glyph data 2" dx=10 dy=0 dh=20 dv=0
EndChar

StartChar: Imacron
Encoding: 298 298 42
Width: 661
Flags: MW
HStem: 0 72<98 102 102 115> 1151 72<252 262 600 612> 1386 96<211 688 197 702>
VStem: 16 686
LayerCount: 2
UndoRedoHistory
Layer: 1
Undoes
EndUndoes
Redoes
EndRedoes
EndUndoRedoHistory
Fore
SplineSet
688 1386 m 1,0,-1
 197 1386 l 1,1,-1
 211 1483 l 1,2,-1
 702 1483 l 1,3,-1
 688 1386 l 1,0,-1
283 1118 m 2,4,5
 283 1151 283 1151 252 1151 c 1,6,-1
 178 1147 l 1,7,-1
 188 1223 l 1,8,-1
 694 1223 l 1,9,-1
 682 1147 l 1,10,-1
 612 1151 l 1,11,12
 593 1151 593 1151 579.5 1139 c 128,-1,13
 566 1127 566 1127 565 1108 c 1,14,-1
 426 117 l 1,15,-1
 426 106 l 2,16,17
 426 88 426 88 435 79 c 128,-1,18
 444 70 444 70 459 72 c 1,19,-1
 530 76 l 1,20,-1
 522 0 l 1,21,-1
 16 0 l 1,22,-1
 27 76 l 1,23,-1
 98 72 l 1,24,-1
 102 72 l 2,25,26
 137 72 137 72 143 117 c 2,27,-1
 283 1108 l 1,28,-1
 283 1118 l 2,4,5
EndSplineSet
EndChar

StartChar: Iogonek
Encoding: 302 302 43
Width: 661
Flags: MW
HStem: -326 119<302 454> 0 72<98 102 102 115 98 322> 1151 72<252 262 600 612>
VStem: 193 147<-240 -101>
LayerCount: 2
UndoRedoHistory
Layer: 1
Undoes
EndUndoes
Redoes
EndRedoes
EndUndoRedoHistory
Fore
SplineSet
283 1118 m 2,0,1
 283 1151 283 1151 252 1151 c 1,2,-1
 178 1147 l 1,3,-1
 188 1223 l 1,4,-1
 694 1223 l 1,5,-1
 682 1147 l 1,6,-1
 612 1151 l 1,7,8
 593 1151 593 1151 579.5 1139 c 128,-1,9
 566 1127 566 1127 565 1108 c 1,10,-1
 426 117 l 1,11,-1
 426 106 l 2,12,13
 426 88 426 88 435 79 c 128,-1,14
 444 70 444 70 459 72 c 1,15,-1
 530 76 l 1,16,-1
 522 0 l 1,17,-1
 403 0 l 1,18,19
 340 -51 340 -51 340 -125 c 0,20,21
 340 -161 340 -161 362.5 -184 c 128,-1,22
 385 -207 385 -207 442 -207 c 128,-1,23
 499 -207 499 -207 575 -162 c 1,24,-1
 596 -203 l 1,25,26
 473 -326 473 -326 340 -326 c 0,27,28
 279 -326 279 -326 236 -292 c 128,-1,29
 193 -258 193 -258 193 -197 c 0,30,31
 193 -81.1451612903 193 -81.1451612903 322 0 c 1,32,-1
 16 0 l 1,33,-1
 27 76 l 1,34,-1
 98 72 l 1,35,-1
 102 72 l 2,36,37
 137 72 137 72 143 117 c 2,38,-1
 283 1108 l 1,39,-1
 283 1118 l 2,0,1
EndSplineSet
EndChar

StartChar: J
Encoding: 74 74 44
Width: 931
Flags: MW
HStem: -20 70<240 313 204 423> 10 342<49 88> 1151 72<535 545 882 895>
VStem: -14 989
LayerCount: 2
UndoRedoHistory
Layer: 1
Undoes
EndUndoes
Redoes
EndRedoes
EndUndoRedoHistory
Fore
SplineSet
963 1147 m 1,0,-1
 895 1151 l 1,1,2
 855 1151 855 1151 848 1110 c 1,3,-1
 743 367 l 2,4,5
 688 -20 688 -20 293 -20 c 0,6,7
 233 -20 233 -20 157 -5 c 128,-1,8
 81 10 81 10 42.5 10 c 128,-1,9
 4 10 4 10 -14 -4 c 1,10,-1
 37 352 l 1,11,-1
 127 352 l 1,12,13
 121 312 121 312 121 268 c 128,-1,14
 121 224 121 224 128 187.5 c 128,-1,15
 135 151 135 151 149.5 119 c 0,16,17
 181.21875 49 181.21875 49 262.109375 49 c 128,-1,18
 343 49 343 49 389.5 120.5 c 128,-1,19
 436 192 436 192 461 367 c 2,20,-1
 565 1108 l 1,21,-1
 565 1116 l 2,22,23
 565 1151 565 1151 535 1151 c 2,24,-1
 391 1147 l 1,25,-1
 403 1223 l 1,26,-1
 975 1223 l 1,27,-1
 963 1147 l 1,0,-1
EndSplineSet
Position2: "'cpsp' Capital Spacing lookup 0 per glyph data 2" dx=10 dy=0 dh=20 dv=0
EndChar

StartChar: K
Encoding: 75 75 45
Width: 1298
Flags: MW
HStem: 0 70<743 748 748 764 1164 1183> 1151 72<252 262 599 612 1010 1016 1229 1229>
VStem: 16 1294<0 1223>
LayerCount: 2
UndoRedoHistory
Layer: 1
Undoes
EndUndoes
Redoes
EndRedoes
EndUndoRedoHistory
Fore
SplineSet
283 1118 m 2,0,1
 283 1151 283 1151 252 1151 c 1,2,-1
 178 1147 l 1,3,-1
 188 1223 l 1,4,-1
 721 1223 l 1,5,-1
 711 1147 l 1,6,-1
 612 1151 l 1,7,8
 572 1151 572 1151 563 1106 c 1,9,-1
 489 571 l 1,10,-1
 991 1083 l 1,11,12
 1026 1123 1026 1123 1026 1137 c 128,-1,13
 1026 1151 1026 1151 1010 1151 c 2,14,-1
 934 1147 l 1,15,-1
 946 1223 l 1,16,-1
 1311 1223 l 1,17,-1
 1300 1147 l 1,18,-1
 1229 1151 l 2,19,20
 1168.76470588 1154.76470588 1168.76470588 1154.76470588 1106 1092 c 2,21,-1
 778 764 l 1,22,-1
 1128 98 l 1,23,24
 1144 70 1144 70 1174.5 70 c 128,-1,25
 1205 70 1205 70 1235 76 c 1,26,-1
 1225 0 l 1,27,-1
 643 0 l 1,28,-1
 653 76 l 1,29,-1
 743 70 l 1,30,-1
 748 70 l 2,31,32
 802.48 70 802.48 70 778 121 c 1,33,-1
 557 543 l 1,34,-1
 473 459 l 1,35,-1
 426 117 l 1,36,-1
 426 106 l 2,37,38
 426 88 426 88 435 79 c 128,-1,39
 444 70 444 70 459 72 c 1,40,-1
 551 76 l 1,41,-1
 543 0 l 1,42,-1
 16 0 l 1,43,-1
 27 76 l 1,44,-1
 98 72 l 1,45,-1
 102 72 l 2,46,47
 137 72 137 72 143 117 c 2,48,-1
 283 1108 l 1,49,-1
 283 1118 l 2,0,1
EndSplineSet
Position2: "'cpsp' Capital Spacing lookup 0 per glyph data 2" dx=10 dy=0 dh=20 dv=0
EndChar

StartChar: Kcommaaccent
Encoding: 310 310 46
Width: 1298
Flags: MW
HStem: -289 219<499 642> 0 70<743 748 748 759 1164 1183> 1151 72<252 262 599 612 1010 1016 1229 1229>
VStem: 451 289<-225 -173 -276 -172>
LayerCount: 2
UndoRedoHistory
Layer: 1
Undoes
EndUndoes
Redoes
EndRedoes
EndUndoRedoHistory
Fore
SplineSet
283 1118 m 2,0,1
 283 1151 283 1151 252 1151 c 1,2,-1
 178 1147 l 1,3,-1
 188 1223 l 1,4,-1
 721 1223 l 1,5,-1
 711 1147 l 1,6,-1
 612 1151 l 1,7,8
 572 1151 572 1151 563 1106 c 1,9,-1
 489 571 l 1,10,-1
 991 1083 l 1,11,12
 1026 1123 1026 1123 1026 1137 c 128,-1,13
 1026 1151 1026 1151 1010 1151 c 2,14,-1
 934 1147 l 1,15,-1
 946 1223 l 1,16,-1
 1311 1223 l 1,17,-1
 1300 1147 l 1,18,-1
 1229 1151 l 2,19,20
 1168.76470588 1154.76470588 1168.76470588 1154.76470588 1106 1092 c 2,21,-1
 778 764 l 1,22,-1
 1128 98 l 1,23,24
 1144 70 1144 70 1174.5 70 c 128,-1,25
 1205 70 1205 70 1235 76 c 1,26,-1
 1225 0 l 1,27,-1
 643 0 l 1,28,-1
 653 76 l 1,29,-1
 743 70 l 1,30,-1
 748 70 l 2,31,32
 784 70 784 70 784 96 c 0,33,34
 784 106 784 106 778 121 c 1,35,-1
 557 543 l 1,36,-1
 473 459 l 1,37,-1
 426 117 l 1,38,-1
 426 106 l 2,39,40
 426 88 426 88 435 79 c 128,-1,41
 444 70 444 70 459 72 c 1,42,-1
 551 76 l 1,43,-1
 543 0 l 1,44,-1
 16 0 l 1,45,-1
 27 76 l 1,46,-1
 98 72 l 1,47,-1
 102 72 l 2,48,49
 137 72 137 72 143 117 c 2,50,-1
 283 1108 l 1,51,-1
 283 1118 l 2,0,1
459 -469 m 1,52,53
 505 -442 505 -442 538 -406 c 128,-1,54
 571 -370 571 -370 571 -340 c 1,55,56
 573 -289 573 -289 522 -289 c 0,57,58
 488 -289 488 -289 469.5 -264 c 128,-1,59
 451 -239 451 -239 451 -195.5 c 128,-1,60
 451 -152 451 -152 489.5 -111 c 128,-1,61
 528 -70 528 -70 595 -70 c 128,-1,62
 662 -70 662 -70 700.5 -111 c 128,-1,63
 739 -152 739 -152 739 -209 c 0,64,65
 739 -304 739 -304 666.5 -386 c 128,-1,66
 594 -468 594 -468 494 -514 c 1,67,-1
 459 -469 l 1,52,53
EndSplineSet
EndChar

StartChar: L
Encoding: 76 76 47
Width: 1044
Flags: MW
HStem: 0 74<442 610 610 686> 1151 72<252 262 600 612>
VStem: 16 971<0 350>
LayerCount: 2
UndoRedoHistory
Layer: 1
Undoes
EndUndoes
Redoes
EndRedoes
EndUndoRedoHistory
Fore
SplineSet
711 1147 m 1,0,-1
 612 1151 l 2,1,2
 593 1151 593 1151 579.5 1139 c 128,-1,3
 566 1127 566 1127 565 1108 c 1,4,-1
 424 100 l 1,5,-1
 424 94 l 2,6,7
 424 74 424 74 442 74 c 2,8,-1
 610 74 l 2,9,10
 742 74 742 74 820.5 144.5 c 128,-1,11
 899 215 899 215 918 350 c 1,12,-1
 987 350 l 1,13,-1
 938 -6 l 1,14,15
 900.5 0 900.5 0 686 0 c 2,16,-1
 16 0 l 1,17,-1
 29 78 l 1,18,-1
 106 72 l 1,19,20
 139 72 139 72 143 117 c 1,21,-1
 283 1108 l 1,22,-1
 283 1116 l 2,23,24
 283 1130 283 1130 274.5 1140.5 c 128,-1,25
 266 1151 266 1151 252 1151 c 2,26,-1
 178 1147 l 1,27,-1
 188 1223 l 1,28,-1
 721 1223 l 1,29,-1
 711 1147 l 1,0,-1
EndSplineSet
Position2: "Single Positioning lookup 3 subtable" dx=0 dy=0 dh=-82 dv=0
Position2: "'cpsp' Capital Spacing lookup 0 per glyph data 2" dx=10 dy=0 dh=20 dv=0
EndChar

StartChar: Lacute
Encoding: 313 313 48
Width: 1044
Flags: MW
HStem: 0 74<442 610 610 686> 1151 72<252 262 600 612>
VStem: 16 971<0 350>
LayerCount: 2
UndoRedoHistory
Layer: 1
Undoes
EndUndoes
Redoes
EndRedoes
EndUndoRedoHistory
Fore
SplineSet
582 1642 m 2,0,1
 586 1646 586 1646 594 1653.5 c 128,-1,2
 602 1661 602 1661 604.5 1663.5 c 128,-1,3
 607 1666 607 1666 613 1671.5 c 128,-1,4
 619 1677 619 1677 621.5 1678.5 c 128,-1,5
 624 1680 624 1680 628.5 1683.5 c 128,-1,6
 633 1687 633 1687 636 1687.5 c 128,-1,7
 639 1688 639 1688 643.5 1689.5 c 0,8,9
 651 1692 651 1692 674.5 1692 c 128,-1,10
 698 1692 698 1692 743 1666 c 128,-1,11
 788 1640 788 1640 788 1618.5 c 128,-1,12
 788 1597 788 1597 758 1581 c 1,13,-1
 391 1370 l 1,14,15
 364 1352 364 1352 341.5 1352 c 128,-1,16
 319 1352 319 1352 319 1370.5 c 128,-1,17
 319 1389 319 1389 360 1427 c 1,18,-1
 582 1642 l 2,0,1
612 1151 m 2,19,20
 593 1151 593 1151 579.5 1139 c 128,-1,21
 566 1127 566 1127 565 1108 c 1,22,-1
 424 100 l 1,23,-1
 424 94 l 2,24,25
 424 74 424 74 442 74 c 2,26,-1
 610 74 l 2,27,28
 742 74 742 74 820.5 144.5 c 128,-1,29
 899 215 899 215 918 350 c 1,30,-1
 987 350 l 1,31,-1
 938 -6 l 1,32,33
 900.5 0 900.5 0 686 0 c 2,34,-1
 16 0 l 1,35,-1
 29 78 l 1,36,-1
 106 72 l 1,37,38
 139 72 139 72 143 117 c 1,39,-1
 283 1108 l 1,40,-1
 283 1116 l 2,41,42
 283 1130 283 1130 274.5 1140.5 c 128,-1,43
 266 1151 266 1151 252 1151 c 2,44,-1
 178 1147 l 1,45,-1
 188 1223 l 1,46,-1
 721 1223 l 1,47,-1
 711 1147 l 1,48,-1
 612 1151 l 2,19,20
EndSplineSet
EndChar

StartChar: Lcaron
Encoding: 317 317 49
Width: 1044
Flags: MW
HStem: 0 74<442 610 610 686> 1094 199<837 971> 1151 72<252 262 600 612>
VStem: 791 268<1145 1204 1109 1205>
LayerCount: 2
UndoRedoHistory
Layer: 1
Undoes
EndUndoes
Redoes
EndRedoes
EndUndoRedoHistory
Fore
SplineSet
858 1094 m 0,0,1
 791 1094 791 1094 791 1167 c 0,2,3
 791 1223 791 1223 832.5 1257.5 c 128,-1,4
 874 1292 874 1292 932 1292 c 128,-1,5
 990 1292 990 1292 1024.5 1257 c 128,-1,6
 1059 1222 1059 1222 1059 1153.5 c 128,-1,7
 1059 1085 1059 1085 992.5 1011 c 128,-1,8
 926 937 926 937 840 899 c 1,9,-1
 803 944 l 1,10,11
 895 1002 895 1002 895 1055 c 2,12,-1
 895 1059 l 2,13,14
 895 1094 895 1094 858 1094 c 0,0,1
612 1151 m 2,15,16
 593 1151 593 1151 579.5 1139 c 128,-1,17
 566 1127 566 1127 565 1108 c 1,18,-1
 424 100 l 1,19,-1
 424 94 l 2,20,21
 424 74 424 74 442 74 c 2,22,-1
 610 74 l 2,23,24
 742 74 742 74 820.5 144.5 c 128,-1,25
 899 215 899 215 918 350 c 1,26,-1
 987 350 l 1,27,-1
 938 -6 l 1,28,29
 900.5 0 900.5 0 686 0 c 2,30,-1
 16 0 l 1,31,-1
 29 78 l 1,32,-1
 106 72 l 1,33,34
 139 72 139 72 143 117 c 1,35,-1
 283 1108 l 1,36,-1
 283 1116 l 2,37,38
 283 1130 283 1130 274.5 1140.5 c 128,-1,39
 266 1151 266 1151 252 1151 c 2,40,-1
 178 1147 l 1,41,-1
 188 1223 l 1,42,-1
 721 1223 l 1,43,-1
 711 1147 l 1,44,-1
 612 1151 l 2,15,16
EndSplineSet
EndChar

StartChar: Lcommaaccent
Encoding: 315 315 50
Width: 1044
Flags: MW
HStem: -289 219<329 472> 0 74<442 610 610 686> 1151 72<252 262 600 612>
VStem: 281 289<-225 -173 -276 -172>
LayerCount: 2
UndoRedoHistory
Layer: 1
Undoes
EndUndoes
Redoes
EndRedoes
EndUndoRedoHistory
Fore
SplineSet
612 1151 m 2,0,1
 593 1151 593 1151 579.5 1139 c 128,-1,2
 566 1127 566 1127 565 1108 c 1,3,-1
 424 100 l 1,4,-1
 424 94 l 2,5,6
 424 74 424 74 442 74 c 2,7,-1
 610 74 l 2,8,9
 742 74 742 74 820.5 144.5 c 128,-1,10
 899 215 899 215 918 350 c 1,11,-1
 987 350 l 1,12,-1
 938 -6 l 1,13,14
 900.5 0 900.5 0 686 0 c 2,15,-1
 16 0 l 1,16,-1
 29 78 l 1,17,-1
 106 72 l 1,18,19
 139 72 139 72 143 117 c 1,20,-1
 283 1108 l 1,21,-1
 283 1116 l 2,22,23
 283 1130 283 1130 274.5 1140.5 c 128,-1,24
 266 1151 266 1151 252 1151 c 2,25,-1
 178 1147 l 1,26,-1
 188 1223 l 1,27,-1
 721 1223 l 1,28,-1
 711 1147 l 1,29,-1
 612 1151 l 2,0,1
289 -469 m 1,30,31
 335 -442 335 -442 368 -406 c 128,-1,32
 401 -370 401 -370 401 -340 c 1,33,34
 403 -289 403 -289 352 -289 c 0,35,36
 318 -289 318 -289 299.5 -264 c 128,-1,37
 281 -239 281 -239 281 -195.5 c 0,38,39
 281 -152 281 -152 319.5 -111 c 128,-1,40
 358 -70 358 -70 425 -70 c 0,41,42
 492 -70 492 -70 530.5 -111 c 128,-1,43
 569 -152 569 -152 569 -209 c 0,44,45
 569 -304 569 -304 496.5 -386 c 128,-1,46
 424 -468 424 -468 324 -514 c 1,47,-1
 289 -469 l 1,30,31
EndSplineSet
EndChar

StartChar: Ldot
Encoding: 319 319 51
Width: 1044
Flags: MW
HStem: 0 74<442 610 610 686> 551 307<836 913> 1151 72<252 262 600 612>
VStem: 16 1049<0 765> 686 379<670 738>
LayerCount: 2
UndoRedoHistory
Layer: 1
Undoes
EndUndoes
Redoes
EndRedoes
EndUndoRedoHistory
Fore
SplineSet
612 1151 m 2,0,1
 593 1151 593 1151 579.5 1139 c 128,-1,2
 566 1127 566 1127 565 1108 c 1,3,-1
 424 100 l 1,4,-1
 424 94 l 2,5,6
 424 74 424 74 442 74 c 2,7,-1
 610 74 l 2,8,9
 742 74 742 74 820.5 144.5 c 128,-1,10
 899 215 899 215 918 350 c 1,11,-1
 987 350 l 1,12,-1
 938 -6 l 1,13,14
 900.5 0 900.5 0 686 0 c 2,15,-1
 16 0 l 1,16,-1
 29 78 l 1,17,-1
 106 72 l 1,18,19
 139 72 139 72 143 117 c 1,20,-1
 283 1108 l 1,21,-1
 283 1116 l 2,22,23
 283 1130 283 1130 274.5 1140.5 c 128,-1,24
 266 1151 266 1151 252 1151 c 2,25,-1
 178 1147 l 1,26,-1
 188 1223 l 1,27,-1
 721 1223 l 1,28,-1
 711 1147 l 1,29,-1
 612 1151 l 2,0,1
731.5 586.5 m 128,-1,31
 686 622 686 622 686 692.5 c 128,-1,32
 686 763 686 763 745 810.5 c 128,-1,33
 804 858 804 858 888 858 c 128,-1,34
 972 858 972 858 1018.5 821.5 c 128,-1,35
 1065 785 1065 785 1065 715 c 128,-1,36
 1065 645 1065 645 1005 598 c 128,-1,37
 945 551 945 551 861 551 c 128,-1,30
 777 551 777 551 731.5 586.5 c 128,-1,31
EndSplineSet
Ligature2: "Ligature Substitution lookup 20 subtable" L periodcentered
Position2: "'cpsp' Capital Spacing lookup 0 per glyph data 2" dx=10 dy=0 dh=20 dv=0
EndChar

StartChar: Lslash
Encoding: 321 321 52
Width: 1019
Flags: MW
HStem: 0 74<442 610 610 686> 829 41G<657 657> 1151 72<252 262 600 612>
VStem: 16 971<0 350>
LayerCount: 2
UndoRedoHistory
Layer: 1
Undoes
EndUndoes
Redoes
EndRedoes
EndUndoRedoHistory
Fore
SplineSet
987 350 m 1,0,-1
 938 -6 l 1,1,2
 900.5 0 900.5 0 686 0 c 2,3,-1
 16 0 l 1,4,-1
 29 78 l 1,5,-1
 106 72 l 1,6,7
 139 72 139 72 143 117 c 1,8,-1
 188 432 l 1,9,-1
 86 354 l 1,10,-1
 100 451 l 1,11,-1
 201 528 l 1,12,-1
 283 1108 l 1,13,-1
 283 1116 l 2,14,15
 283 1130 283 1130 274.5 1140.5 c 128,-1,16
 266 1151 266 1151 252 1151 c 2,17,-1
 178 1147 l 1,18,-1
 188 1223 l 1,19,-1
 721 1223 l 1,20,-1
 711 1147 l 1,21,-1
 612 1151 l 2,22,23
 593 1151 593 1151 579.5 1139 c 128,-1,24
 566 1127 566 1127 565 1108 c 1,25,-1
 516 762 l 1,26,-1
 657 870 l 1,27,-1
 643 772 l 1,28,-1
 504 664 l 1,29,-1
 424 100 l 1,30,-1
 424 94 l 2,31,32
 424 74 424 74 442 74 c 2,33,-1
 610 74 l 2,34,35
 742 74 742 74 820.5 144.5 c 128,-1,36
 899 215 899 215 918 350 c 1,37,-1
 987 350 l 1,0,-1
EndSplineSet
Position2: "'cpsp' Capital Spacing lookup 0 per glyph data 2" dx=10 dy=0 dh=20 dv=0
EndChar

StartChar: M
Encoding: 77 77 53
Width: 1796
Flags: MW
HStem: 0 72<96 110 249 260 1235 1247> 1151 72<270 276 1735 1747>
VStem: 6 1812<0 1223>
LayerCount: 2
UndoRedoHistory
Layer: 1
Undoes
EndUndoes
Redoes
EndRedoes
EndUndoRedoHistory
Fore
SplineSet
1561 106 m 2,0,1
 1561 68 1561 68 1595 72 c 1,2,-1
 1667 76 l 1,3,-1
 1657 0 l 1,4,-1
 1124 0 l 1,5,-1
 1135 76 l 1,6,-1
 1235 72 l 1,7,8
 1274 72 1274 72 1280 117 c 2,9,-1
 1409 1028 l 1,10,-1
 797 -20 l 1,11,-1
 731 -20 l 1,12,-1
 362 1075 l 1,13,-1
 229 117 l 1,14,-1
 229 102 l 2,15,16
 229 72 229 72 260 72 c 1,17,-1
 360 76 l 1,18,-1
 350 0 l 1,19,-1
 6 0 l 1,20,-1
 16 76 l 1,21,-1
 96 72 l 1,22,23
 137 72 137 72 143 117 c 2,24,-1
 287 1139 l 1,25,26
 287 1151 287 1151 270 1151 c 2,27,-1
 182 1147 l 1,28,-1
 193 1223 l 1,29,-1
 614 1223 l 1,30,-1
 911 328 l 1,31,-1
 1438 1223 l 1,32,-1
 1819 1223 l 1,33,-1
 1808 1147 l 1,34,-1
 1747 1151 l 1,35,36
 1729 1151 1729 1151 1716.5 1139.5 c 128,-1,37
 1704 1128 1704 1128 1702 1110 c 2,38,-1
 1561 117 l 1,39,-1
 1561 106 l 2,0,1
EndSplineSet
Position2: "'cpsp' Capital Spacing lookup 0 per glyph data 2" dx=10 dy=0 dh=20 dv=0
EndChar

StartChar: N
Encoding: 78 78 54
Width: 1376
Flags: MW
HStem: 0 55<94 108 248 258> 1165 57<250 250 1174 1183 1316 1327>
VStem: 6 1413<0 1223>
LayerCount: 2
UndoRedoHistory
Layer: 1
Undoes
EndUndoes
Redoes
EndRedoes
EndUndoRedoHistory
Fore
SplineSet
1411 1161 m 1,0,-1
 1327 1165 l 1,1,2
 1292 1165 1292 1165 1286 1122 c 2,3,-1
 1126 -12 l 1,4,-1
 1004 -12 l 1,5,-1
 362 1073 l 1,6,-1
 227 100 l 1,7,-1
 227 88 l 2,8,9
 227 55 227 55 258 55 c 1,10,-1
 358 59 l 1,11,-1
 350 0 l 1,12,-1
 6 0 l 1,13,-1
 14 59 l 1,14,-1
 94 55 l 1,15,16
 135 55 135 55 141 100 c 2,17,-1
 285 1133 l 1,18,19
 285 1147 285 1147 275.5 1156.5 c 128,-1,20
 266 1166 266 1166 250 1165 c 2,21,-1
 170 1161 l 1,22,-1
 178 1223 l 1,23,-1
 600 1223 l 1,24,-1
 1096 377 l 1,25,-1
 1200 1124 l 1,26,-1
 1200 1135 l 2,27,28
 1200 1165 1200 1165 1174 1165 c 2,29,-1
 1067 1161 l 1,30,-1
 1075 1223 l 1,31,-1
 1419 1223 l 1,32,-1
 1411 1161 l 1,0,-1
EndSplineSet
Position2: "'cpsp' Capital Spacing lookup 0 per glyph data 2" dx=10 dy=0 dh=20 dv=0
EndChar

StartChar: Nacute
Encoding: 323 323 55
Width: 1376
Flags: MW
HStem: 0 55<94 108 248 258> 1165 57<250 250 1174 1183 1316 1327>
VStem: 6 1413<0 1223>
LayerCount: 2
UndoRedoHistory
Layer: 1
Undoes
EndUndoes
Redoes
EndRedoes
EndUndoRedoHistory
Fore
SplineSet
909 1642 m 2,0,1
 913 1646 913 1646 921 1653.5 c 128,-1,2
 929 1661 929 1661 931.5 1663.5 c 128,-1,3
 934 1666 934 1666 940 1671.5 c 128,-1,4
 946 1677 946 1677 948.5 1678.5 c 128,-1,5
 951 1680 951 1680 955.5 1683.5 c 128,-1,6
 960 1687 960 1687 963 1687.5 c 128,-1,7
 966 1688 966 1688 970.5 1689.5 c 0,8,9
 978 1692 978 1692 1001.5 1692 c 128,-1,10
 1025 1692 1025 1692 1070.5 1666 c 128,-1,11
 1116 1640 1116 1640 1116 1618.5 c 128,-1,12
 1116 1597 1116 1597 1085 1581 c 1,13,-1
 719 1370 l 1,14,15
 692 1352 692 1352 669.5 1352 c 128,-1,16
 647 1352 647 1352 647 1370.5 c 128,-1,17
 647 1389 647 1389 688 1427 c 1,18,-1
 909 1642 l 2,0,1
1327 1165 m 1,19,20
 1292 1165 1292 1165 1286 1122 c 2,21,-1
 1126 -12 l 1,22,-1
 1004 -12 l 1,23,-1
 362 1073 l 1,24,-1
 227 100 l 1,25,-1
 227 88 l 2,26,27
 227 55 227 55 258 55 c 1,28,-1
 358 59 l 1,29,-1
 350 0 l 1,30,-1
 6 0 l 1,31,-1
 14 59 l 1,32,-1
 94 55 l 1,33,34
 135 55 135 55 141 100 c 2,35,-1
 285 1133 l 1,36,37
 285 1147 285 1147 275.5 1156.5 c 128,-1,38
 266 1166 266 1166 250 1165 c 2,39,-1
 170 1161 l 1,40,-1
 178 1223 l 1,41,-1
 600 1223 l 1,42,-1
 1096 377 l 1,43,-1
 1200 1124 l 1,44,-1
 1200 1135 l 2,45,46
 1200 1165 1200 1165 1174 1165 c 2,47,-1
 1067 1161 l 1,48,-1
 1075 1223 l 1,49,-1
 1419 1223 l 1,50,-1
 1411 1161 l 1,51,-1
 1327 1165 l 1,19,20
EndSplineSet
EndChar

StartChar: Ncaron
Encoding: 327 327 56
Width: 1376
Flags: MW
HStem: 0 55<94 108 248 258> 1165 57<250 250 1174 1183 1316 1327> 1405 123<725 811 811 860>
VStem: 6 1413<0 1223>
LayerCount: 2
UndoRedoHistory
Layer: 1
Undoes
EndUndoes
Redoes
EndRedoes
EndUndoRedoHistory
Fore
SplineSet
1053 1663 m 1,0,1
 1093 1688 1093 1688 1119 1688 c 128,-1,2
 1145 1688 1145 1688 1145 1673 c 0,3,4
 1145 1662.1875 1145 1662.1875 1076 1601.09375 c 128,-1,5
 1007 1540 1007 1540 969 1503 c 1,6,-1
 860 1405 l 2,7,8
 820 1368 820 1368 786 1368 c 128,-1,9
 752 1368 752 1368 725 1405 c 1,10,-1
 645 1503 l 1,11,12
 617 1541 617 1541 582 1581.5 c 0,13,14
 514 1660.18571429 514 1660.18571429 514 1669 c 0,15,16
 514 1688 514 1688 542.5 1688 c 128,-1,17
 571 1688 571 1688 606 1663 c 1,18,-1
 811 1528 l 1,19,-1
 1053 1663 l 1,0,1
1327 1165 m 1,20,21
 1292 1165 1292 1165 1286 1122 c 2,22,-1
 1126 -12 l 1,23,-1
 1004 -12 l 1,24,-1
 362 1073 l 1,25,-1
 227 100 l 1,26,-1
 227 88 l 2,27,28
 227 55 227 55 258 55 c 1,29,-1
 358 59 l 1,30,-1
 350 0 l 1,31,-1
 6 0 l 1,32,-1
 14 59 l 1,33,-1
 94 55 l 1,34,35
 135 55 135 55 141 100 c 2,36,-1
 285 1133 l 1,37,38
 285 1147 285 1147 275.5 1156.5 c 128,-1,39
 266 1166 266 1166 250 1165 c 2,40,-1
 170 1161 l 1,41,-1
 178 1223 l 1,42,-1
 600 1223 l 1,43,-1
 1096 377 l 1,44,-1
 1200 1124 l 1,45,-1
 1200 1135 l 2,46,47
 1200 1165 1200 1165 1174 1165 c 2,48,-1
 1067 1161 l 1,49,-1
 1075 1223 l 1,50,-1
 1419 1223 l 1,51,-1
 1411 1161 l 1,52,-1
 1327 1165 l 1,20,21
EndSplineSet
EndChar

StartChar: Ncommaaccent
Encoding: 325 325 57
Width: 1376
Flags: MW
HStem: -289 219<550 693> 0 55<94 108 248 258> 1165 57<250 250 1174 1183 1316 1327>
VStem: 502 289<-225 -173 -276 -172>
LayerCount: 2
UndoRedoHistory
Layer: 1
Undoes
EndUndoes
Redoes
EndRedoes
EndUndoRedoHistory
Fore
SplineSet
1327 1165 m 1,0,1
 1292 1165 1292 1165 1286 1122 c 2,2,-1
 1126 -12 l 1,3,-1
 1004 -12 l 1,4,-1
 362 1073 l 1,5,-1
 227 100 l 1,6,-1
 227 88 l 2,7,8
 227 55 227 55 258 55 c 1,9,-1
 358 59 l 1,10,-1
 350 0 l 1,11,-1
 6 0 l 1,12,-1
 14 59 l 1,13,-1
 94 55 l 1,14,15
 135 55 135 55 141 100 c 2,16,-1
 285 1133 l 1,17,18
 285 1147 285 1147 275.5 1156.5 c 128,-1,19
 266 1166 266 1166 250 1165 c 2,20,-1
 170 1161 l 1,21,-1
 178 1223 l 1,22,-1
 600 1223 l 1,23,-1
 1096 377 l 1,24,-1
 1200 1124 l 1,25,-1
 1200 1135 l 2,26,27
 1200 1165 1200 1165 1174 1165 c 2,28,-1
 1067 1161 l 1,29,-1
 1075 1223 l 1,30,-1
 1419 1223 l 1,31,-1
 1411 1161 l 1,32,-1
 1327 1165 l 1,0,1
510 -469 m 1,33,34
 556 -441 556 -441 589.5 -405.5 c 128,-1,35
 623 -370 623 -370 623 -340 c 1,36,37
 625 -289 625 -289 573 -289 c 0,38,39
 539 -289 539 -289 520.5 -264 c 128,-1,40
 502 -239 502 -239 502 -195.5 c 0,41,42
 502 -152 502 -152 540.5 -111 c 128,-1,43
 579 -70 579 -70 646 -70 c 0,44,45
 713 -70 713 -70 752 -111 c 128,-1,46
 791 -152 791 -152 791 -209 c 0,47,48
 791 -304 791 -304 718.5 -386 c 128,-1,49
 646 -468 646 -468 545 -514 c 1,50,-1
 510 -469 l 1,33,34
EndSplineSet
EndChar

StartChar: Ntilde
Encoding: 209 209 58
Width: 1376
Flags: MW
HStem: 0 55<94 108 248 258> 1165 57<250 250 1174 1183 1316 1327> 1374 125<938 996 938 997> 1456 123<615 674>
VStem: 500 57<1376 1376> 1055 57<1577 1577>
LayerCount: 2
UndoRedoHistory
Layer: 1
Undoes
EndUndoes
Redoes
EndRedoes
EndUndoRedoHistory
Fore
SplineSet
500 1376 m 1,0,1
 513 1469 513 1469 553 1524 c 128,-1,2
 593 1579 593 1579 651.5 1579 c 0,3,4
 710 1579 710 1579 825 1539 c 128,-1,5
 940 1499 940 1499 973.5 1499 c 0,6,7
 1007 1499 1007 1499 1029 1520.5 c 128,-1,8
 1051 1542 1051 1542 1055 1577 c 1,9,-1
 1112 1577 l 1,10,11
 1099 1485 1099 1485 1058 1429.5 c 128,-1,12
 1017 1374 1017 1374 958 1374 c 0,13,14
 899 1374 899 1374 785 1415 c 128,-1,15
 671 1456 671 1456 638 1456 c 0,16,17
 605 1456 605 1456 583 1434 c 128,-1,18
 561 1412 561 1412 557 1376 c 1,19,-1
 500 1376 l 1,0,1
1327 1165 m 1,20,21
 1292 1165 1292 1165 1286 1122 c 2,22,-1
 1126 -12 l 1,23,-1
 1004 -12 l 1,24,-1
 362 1073 l 1,25,-1
 227 100 l 1,26,-1
 227 88 l 2,27,28
 227 55 227 55 258 55 c 1,29,-1
 358 59 l 1,30,-1
 350 0 l 1,31,-1
 6 0 l 1,32,-1
 14 59 l 1,33,-1
 94 55 l 1,34,35
 135 55 135 55 141 100 c 2,36,-1
 285 1133 l 1,37,38
 285 1147 285 1147 275.5 1156.5 c 128,-1,39
 266 1166 266 1166 250 1165 c 2,40,-1
 170 1161 l 1,41,-1
 178 1223 l 1,42,-1
 600 1223 l 1,43,-1
 1096 377 l 1,44,-1
 1200 1124 l 1,45,-1
 1200 1135 l 2,46,47
 1200 1165 1200 1165 1174 1165 c 2,48,-1
 1067 1161 l 1,49,-1
 1075 1223 l 1,50,-1
 1419 1223 l 1,51,-1
 1411 1161 l 1,52,-1
 1327 1165 l 1,20,21
EndSplineSet
Position2: "'cpsp' Capital Spacing lookup 0 per glyph data 2" dx=10 dy=0 dh=20 dv=0
EndChar

StartChar: O
Encoding: 79 79 59
Width: 1386
Flags: MW
HStem: -20 72<544 742 544 831> 1174 70<693 899>
VStem: 80 299<385 458 385 758> 1057 299<748 897 472 918>
LayerCount: 2
UndoRedoHistory
Layer: 1
Undoes
EndUndoes
Redoes
EndRedoes
EndUndoRedoHistory
Fore
SplineSet
107 316.5 m 0,0,1
 80 407 80 407 80 550 c 128,-1,2
 80 693 80 693 137 832.5 c 128,-1,3
 194 972 194 972 293 1060.5 c 0,4,5
 497.152542373 1243 497.152542373 1243 805 1243 c 0,6,7
 1055.43307087 1243 1055.43307087 1243 1201.5 1118.5 c 0,8,9
 1356 986.812080537 1356 986.812080537 1356 707 c 0,10,11
 1356 536 1356 536 1299.5 396.5 c 128,-1,12
 1243 257 1243 257 1144 167 c 0,13,14
 938.3 -20 938.3 -20 631 -20 c 0,15,16
 207.392265193 -20 207.392265193 -20 107 316.5 c 0,0,1
518.5 75 m 0,17,18
 572 51 572 51 649 51 c 0,19,20
 780 51 780 51 855.5 123.5 c 128,-1,21
 931 196 931 196 972.5 319 c 0,22,23
 1057 569.445783133 1057 569.445783133 1057 821 c 0,24,25
 1057 1023.50847458 1057 1023.50847458 978.5 1106 c 0,26,27
 913.790322581 1174 913.790322581 1174 791 1174 c 0,28,29
 596.75 1174 596.75 1174 500.5 992 c 0,30,31
 473 940 473 940 451 870 c 0,32,33
 379 644 379 644 380.595203664 390.074114244 c 128,-1,34
 382.190407327 136.148228489 382.190407327 136.148228489 518.5 75 c 0,17,18
EndSplineSet
Substitution2: "Single Substitution lookup 21 subtable" ordmasculine
Substitution2: "'aalt' Access All Alternates lookup 0 subtable" ordmasculine
Position2: "'cpsp' Capital Spacing lookup 0 per glyph data 2" dx=10 dy=0 dh=20 dv=0
EndChar

StartChar: Oacute
Encoding: 211 211 60
Width: 1386
Flags: MW
HStem: -20 72<544 742 544 831> 1174 70<693 899>
VStem: 80 299<385 458 385 758> 1057 299<748 897 472 918>
LayerCount: 2
UndoRedoHistory
Layer: 1
Undoes
EndUndoes
Redoes
EndRedoes
EndUndoRedoHistory
Fore
SplineSet
924 1642 m 2,0,1
 928 1646 928 1646 936 1653.5 c 128,-1,2
 944 1661 944 1661 946.5 1663.5 c 128,-1,3
 949 1666 949 1666 955 1671.5 c 128,-1,4
 961 1677 961 1677 963.5 1678.5 c 128,-1,5
 966 1680 966 1680 970.5 1683.5 c 128,-1,6
 975 1687 975 1687 978 1687.5 c 128,-1,7
 981 1688 981 1688 985.5 1689.5 c 0,8,9
 993 1692 993 1692 1016.5 1692 c 128,-1,10
 1040 1692 1040 1692 1085 1666 c 128,-1,11
 1130 1640 1130 1640 1130 1618.5 c 128,-1,12
 1130 1597 1130 1597 1100 1581 c 1,13,-1
 733 1370 l 1,14,15
 706 1352 706 1352 684 1352 c 128,-1,16
 662 1352 662 1352 662 1371 c 128,-1,17
 662 1390 662 1390 702 1427 c 1,18,-1
 924 1642 l 2,0,1
107 316.5 m 0,19,20
 80 407 80 407 80 550 c 128,-1,21
 80 693 80 693 137 832.5 c 128,-1,22
 194 972 194 972 293 1060.5 c 0,23,24
 497.152542373 1243 497.152542373 1243 805 1243 c 0,25,26
 1055.43307087 1243 1055.43307087 1243 1201.5 1118.5 c 0,27,28
 1356 986.812080537 1356 986.812080537 1356 707 c 0,29,30
 1356 536 1356 536 1299.5 396.5 c 128,-1,31
 1243 257 1243 257 1144 167 c 0,32,33
 938.3 -20 938.3 -20 631 -20 c 0,34,35
 207.392265193 -20 207.392265193 -20 107 316.5 c 0,19,20
518.5 75 m 0,36,37
 572 51 572 51 649 51 c 0,38,39
 780 51 780 51 855.5 123.5 c 128,-1,40
 931 196 931 196 972.5 319 c 0,41,42
 1057 569.445783133 1057 569.445783133 1057 821 c 0,43,44
 1057 1023.50847458 1057 1023.50847458 978.5 1106 c 0,45,46
 913.790322581 1174 913.790322581 1174 791 1174 c 0,47,48
 596.75 1174 596.75 1174 500.5 992 c 0,49,50
 473 940 473 940 451 870 c 0,51,52
 379 644 379 644 380.595203664 390.074114244 c 128,-1,53
 382.190407327 136.148228489 382.190407327 136.148228489 518.5 75 c 0,36,37
EndSplineSet
Position2: "'cpsp' Capital Spacing lookup 0 per glyph data 2" dx=10 dy=0 dh=20 dv=0
EndChar

StartChar: Ocircumflex
Encoding: 212 212 61
Width: 1386
Flags: MW
HStem: -20 72<544 742 544 831> 1174 70<693 899> 1524 123<774 823>
VStem: 80 299<385 458 385 758> 1057 299<748 897 472 918>
LayerCount: 2
UndoRedoHistory
Layer: 1
Undoes
EndUndoes
Redoes
EndRedoes
EndUndoRedoHistory
Fore
SplineSet
582 1389 m 1,0,1
 542 1364 542 1364 515.5 1364 c 128,-1,2
 489 1364 489 1364 489 1375 c 128,-1,3
 489 1386 489 1386 510 1406 c 128,-1,4
 531 1426 531 1426 579.5 1468 c 128,-1,5
 628 1510 628 1510 666 1548 c 1,6,-1
 774 1647 l 2,7,8
 813 1683 813 1683 848 1683 c 128,-1,9
 883 1683 883 1683 909 1647 c 1,10,-1
 989 1548 l 1,11,12
 1017 1510 1017 1510 1052 1469.5 c 0,13,14
 1120 1390.81428571 1120 1390.81428571 1120 1382 c 0,15,16
 1120 1364 1120 1364 1091.5 1364 c 128,-1,17
 1063 1364 1063 1364 1028 1389 c 1,18,-1
 823 1524 l 1,19,-1
 582 1389 l 1,0,1
107 316.5 m 0,20,21
 80 407 80 407 80 550 c 128,-1,22
 80 693 80 693 137 832.5 c 128,-1,23
 194 972 194 972 293 1060.5 c 0,24,25
 497.152542373 1243 497.152542373 1243 805 1243 c 0,26,27
 1055.43307087 1243 1055.43307087 1243 1201.5 1118.5 c 0,28,29
 1356 986.812080537 1356 986.812080537 1356 707 c 0,30,31
 1356 536 1356 536 1299.5 396.5 c 128,-1,32
 1243 257 1243 257 1144 167 c 0,33,34
 938.3 -20 938.3 -20 631 -20 c 0,35,36
 207.392265193 -20 207.392265193 -20 107 316.5 c 0,20,21
518.5 75 m 0,37,38
 572 51 572 51 649 51 c 0,39,40
 780 51 780 51 855.5 123.5 c 128,-1,41
 931 196 931 196 972.5 319 c 0,42,43
 1057 569.445783133 1057 569.445783133 1057 821 c 0,44,45
 1057 1023.50847458 1057 1023.50847458 978.5 1106 c 0,46,47
 913.790322581 1174 913.790322581 1174 791 1174 c 0,48,49
 596.75 1174 596.75 1174 500.5 992 c 0,50,51
 473 940 473 940 451 870 c 0,52,53
 379 644 379 644 380.595203664 390.074114244 c 128,-1,54
 382.190407327 136.148228489 382.190407327 136.148228489 518.5 75 c 0,37,38
EndSplineSet
Position2: "'cpsp' Capital Spacing lookup 0 per glyph data 2" dx=10 dy=0 dh=20 dv=0
EndChar

StartChar: Odieresis
Encoding: 214 214 62
Width: 1386
Flags: MW
HStem: -20 72<544 742 544 831> 1174 70<693 899> 1386 256<596 662 991 1057>
VStem: 80 299<385 458 385 758> 469 319<1487 1540> 864 319<1487 1540> 1057 299<748 897 472 918>
LayerCount: 2
UndoRedoHistory
Layer: 1
Undoes
EndUndoes
Redoes
EndRedoes
EndUndoRedoHistory
Fore
SplineSet
519.5 1601.5 m 128,-1,1
 570 1642 570 1642 640 1642 c 128,-1,2
 710 1642 710 1642 749 1612.5 c 128,-1,3
 788 1583 788 1583 788 1524 c 128,-1,4
 788 1465 788 1465 738.5 1425.5 c 128,-1,5
 689 1386 689 1386 618 1386 c 128,-1,6
 547 1386 547 1386 508 1416 c 128,-1,7
 469 1446 469 1446 469 1503.5 c 128,-1,0
 469 1561 469 1561 519.5 1601.5 c 128,-1,1
914.5 1601.5 m 128,-1,9
 965 1642 965 1642 1035 1642 c 128,-1,10
 1105 1642 1105 1642 1144.5 1612.5 c 128,-1,11
 1184 1583 1184 1583 1184 1524 c 128,-1,12
 1184 1465 1184 1465 1134.5 1425.5 c 128,-1,13
 1085 1386 1085 1386 1014 1386 c 128,-1,14
 943 1386 943 1386 903.5 1416 c 128,-1,15
 864 1446 864 1446 864 1503.5 c 128,-1,8
 864 1561 864 1561 914.5 1601.5 c 128,-1,9
107 316.5 m 0,16,17
 80 407 80 407 80 550 c 128,-1,18
 80 693 80 693 137 832.5 c 128,-1,19
 194 972 194 972 293 1060.5 c 0,20,21
 497.152542373 1243 497.152542373 1243 805 1243 c 0,22,23
 1055.43307087 1243 1055.43307087 1243 1201.5 1118.5 c 0,24,25
 1356 986.812080537 1356 986.812080537 1356 707 c 0,26,27
 1356 536 1356 536 1299.5 396.5 c 128,-1,28
 1243 257 1243 257 1144 167 c 0,29,30
 938.3 -20 938.3 -20 631 -20 c 0,31,32
 207.392265193 -20 207.392265193 -20 107 316.5 c 0,16,17
518.5 75 m 0,33,34
 572 51 572 51 649 51 c 0,35,36
 780 51 780 51 855.5 123.5 c 128,-1,37
 931 196 931 196 972.5 319 c 0,38,39
 1057 569.445783133 1057 569.445783133 1057 821 c 0,40,41
 1057 1023.50847458 1057 1023.50847458 978.5 1106 c 0,42,43
 913.790322581 1174 913.790322581 1174 791 1174 c 0,44,45
 596.75 1174 596.75 1174 500.5 992 c 0,46,47
 473 940 473 940 451 870 c 0,48,49
 379 644 379 644 380.595203664 390.074114244 c 128,-1,50
 382.190407327 136.148228489 382.190407327 136.148228489 518.5 75 c 0,33,34
EndSplineSet
Position2: "'cpsp' Capital Spacing lookup 0 per glyph data 2" dx=10 dy=0 dh=20 dv=0
EndChar

StartChar: Ograve
Encoding: 210 210 63
Width: 1386
Flags: MW
HStem: -20 72<544 742 544 831> 1174 70<693 899>
VStem: 80 299<385 458 385 758> 1057 299<748 897 472 918>
LayerCount: 2
UndoRedoHistory
Layer: 1
Undoes
EndUndoes
Redoes
EndRedoes
EndUndoRedoHistory
Fore
SplineSet
567 1581 m 2,0,1
 547 1595 547 1595 547 1616 c 1,2,3
 550 1637 550 1637 604.5 1664.5 c 128,-1,4
 659 1692 659 1692 680.5 1692 c 128,-1,5
 702 1692 702 1692 706.5 1691 c 128,-1,6
 711 1690 711 1690 714.5 1689.5 c 128,-1,7
 718 1689 718 1689 722 1686 c 128,-1,8
 726 1683 726 1683 728.5 1681.5 c 128,-1,9
 731 1680 731 1680 735.5 1674.5 c 128,-1,10
 740 1669 740 1669 742 1666.5 c 128,-1,11
 744 1664 744 1664 750.5 1655 c 128,-1,12
 757 1646 757 1646 760 1642 c 2,13,-1
 928 1425 l 1,14,15
 975.351351351 1352 975.351351351 1352 922 1352 c 0,16,17
 901 1352 901 1352 874 1370 c 2,18,-1
 567 1581 l 2,0,1
107 316.5 m 0,19,20
 80 407 80 407 80 550 c 128,-1,21
 80 693 80 693 137 832.5 c 128,-1,22
 194 972 194 972 293 1060.5 c 0,23,24
 497.152542373 1243 497.152542373 1243 805 1243 c 0,25,26
 1055.43307087 1243 1055.43307087 1243 1201.5 1118.5 c 0,27,28
 1356 986.812080537 1356 986.812080537 1356 707 c 0,29,30
 1356 536 1356 536 1299.5 396.5 c 128,-1,31
 1243 257 1243 257 1144 167 c 0,32,33
 938.3 -20 938.3 -20 631 -20 c 0,34,35
 207.392265193 -20 207.392265193 -20 107 316.5 c 0,19,20
518.5 75 m 0,36,37
 572 51 572 51 649 51 c 0,38,39
 780 51 780 51 855.5 123.5 c 128,-1,40
 931 196 931 196 972.5 319 c 0,41,42
 1057 569.445783133 1057 569.445783133 1057 821 c 0,43,44
 1057 1023.50847458 1057 1023.50847458 978.5 1106 c 0,45,46
 913.790322581 1174 913.790322581 1174 791 1174 c 0,47,48
 596.75 1174 596.75 1174 500.5 992 c 0,49,50
 473 940 473 940 451 870 c 0,51,52
 379 644 379 644 380.595203664 390.074114244 c 128,-1,53
 382.190407327 136.148228489 382.190407327 136.148228489 518.5 75 c 0,36,37
EndSplineSet
Position2: "'cpsp' Capital Spacing lookup 0 per glyph data 2" dx=10 dy=0 dh=20 dv=0
EndChar

StartChar: Ohungarumlaut
Encoding: 336 336 64
Width: 1386
Flags: MW
HStem: -20 72<544 742 544 831> 1174 70<693 899>
VStem: 80 299<385 458 385 758> 1057 299<748 897 472 918>
LayerCount: 2
UndoRedoHistory
Layer: 1
Undoes
EndUndoes
Redoes
EndRedoes
EndUndoRedoHistory
Fore
SplineSet
569 1403 m 1,0,1
 727 1641 727 1641 747.5 1666.5 c 128,-1,2
 768 1692 768 1692 792 1692 c 128,-1,3
 816 1692 816 1692 864.5 1674 c 128,-1,4
 913 1656 913 1656 913 1636 c 0,5,6
 913 1626 913 1626 897 1610 c 1,7,8
 835 1554 835 1554 633 1386 c 0,9,10
 603 1362 603 1362 581 1362 c 128,-1,11
 559 1362 559 1362 559 1376 c 128,-1,12
 559 1390 559 1390 569 1403 c 1,0,1
825 1403 m 0,13,14
 1006 1669 1006 1669 1016.5 1680.5 c 128,-1,15
 1027 1692 1027 1692 1051 1692 c 128,-1,16
 1075 1692 1075 1692 1122 1674.5 c 128,-1,17
 1169 1657 1169 1657 1169 1636 c 0,18,19
 1169 1626 1169 1626 1147.5 1604.5 c 128,-1,20
 1126 1583 1126 1583 889 1386 c 0,21,22
 859 1362 859 1362 837 1362 c 128,-1,23
 815 1362 815 1362 815 1376 c 128,-1,24
 815 1390 815 1390 825 1403 c 0,13,14
107 316.5 m 0,25,26
 80 407 80 407 80 550 c 128,-1,27
 80 693 80 693 137 832.5 c 128,-1,28
 194 972 194 972 293 1060.5 c 0,29,30
 497.152542373 1243 497.152542373 1243 805 1243 c 0,31,32
 1055.43307087 1243 1055.43307087 1243 1201.5 1118.5 c 0,33,34
 1356 986.812080537 1356 986.812080537 1356 707 c 0,35,36
 1356 536 1356 536 1299.5 396.5 c 128,-1,37
 1243 257 1243 257 1144 167 c 0,38,39
 938.3 -20 938.3 -20 631 -20 c 0,40,41
 207.392265193 -20 207.392265193 -20 107 316.5 c 0,25,26
518.5 75 m 0,42,43
 572 51 572 51 649 51 c 0,44,45
 780 51 780 51 855.5 123.5 c 128,-1,46
 931 196 931 196 972.5 319 c 0,47,48
 1057 569.445783133 1057 569.445783133 1057 821 c 0,49,50
 1057 1023.50847458 1057 1023.50847458 978.5 1106 c 0,51,52
 913.790322581 1174 913.790322581 1174 791 1174 c 0,53,54
 596.75 1174 596.75 1174 500.5 992 c 0,55,56
 473 940 473 940 451 870 c 0,57,58
 379 644 379 644 380.595203664 390.074114244 c 128,-1,59
 382.190407327 136.148228489 382.190407327 136.148228489 518.5 75 c 0,42,43
EndSplineSet
EndChar

StartChar: Omacron
Encoding: 332 332 65
Width: 1386
Flags: MW
HStem: -20 72<544 742 544 831> 1174 70<693 899> 1386 96<571 1049 557 1063>
VStem: 80 299<385 458 385 758> 1057 299<748 897 472 918>
LayerCount: 2
UndoRedoHistory
Layer: 1
Undoes
EndUndoes
Redoes
EndRedoes
EndUndoRedoHistory
Fore
SplineSet
1049 1386 m 1,0,-1
 557 1386 l 1,1,-1
 571 1483 l 1,2,-1
 1063 1483 l 1,3,-1
 1049 1386 l 1,0,-1
107 316.5 m 0,4,5
 80 407 80 407 80 550 c 128,-1,6
 80 693 80 693 137 832.5 c 128,-1,7
 194 972 194 972 293 1060.5 c 0,8,9
 497.152542373 1243 497.152542373 1243 805 1243 c 0,10,11
 1055.43307087 1243 1055.43307087 1243 1201.5 1118.5 c 0,12,13
 1356 986.812080537 1356 986.812080537 1356 707 c 0,14,15
 1356 536 1356 536 1299.5 396.5 c 128,-1,16
 1243 257 1243 257 1144 167 c 0,17,18
 938.3 -20 938.3 -20 631 -20 c 0,19,20
 207.392265193 -20 207.392265193 -20 107 316.5 c 0,4,5
518.5 75 m 0,21,22
 572 51 572 51 649 51 c 0,23,24
 780 51 780 51 855.5 123.5 c 128,-1,25
 931 196 931 196 972.5 319 c 0,26,27
 1057 569.445783133 1057 569.445783133 1057 821 c 0,28,29
 1057 1023.50847458 1057 1023.50847458 978.5 1106 c 0,30,31
 913.790322581 1174 913.790322581 1174 791 1174 c 0,32,33
 596.75 1174 596.75 1174 500.5 992 c 0,34,35
 473 940 473 940 451 870 c 0,36,37
 379 644 379 644 380.595203664 390.074114244 c 128,-1,38
 382.190407327 136.148228489 382.190407327 136.148228489 518.5 75 c 0,21,22
EndSplineSet
EndChar

StartChar: Oslash
Encoding: 216 216 66
Width: 1384
Flags: MW
HStem: -20 72<594 742 594 831> 1174 70<693 838>
VStem: 80 299<417 458 364 758> 1057 299<748 816 472 852>
LayerCount: 2
UndoRedoHistory
Layer: 1
Undoes
EndUndoes
Redoes
EndRedoes
EndUndoRedoHistory
Fore
SplineSet
1155 1155 m 1,0,1
 1356 1020 1356 1020 1356 707 c 0,2,3
 1356 536 1356 536 1299.5 396.5 c 128,-1,4
 1243 257 1243 257 1144 167 c 0,5,6
 938.3 -20 938.3 -20 631 -20 c 0,7,8
 467 -20 467 -20 342 35 c 1,9,-1
 176 -195 l 1,10,-1
 92 -145 l 1,11,-1
 260 86 l 1,12,13
 80 223 80 223 80 520 c 0,14,15
 80 693 80 693 137 832.5 c 128,-1,16
 194 972 194 972 293 1060.5 c 0,17,18
 497.152542373 1243 497.152542373 1243 805 1243 c 0,19,20
 952 1243 952 1243 1065 1200 c 1,21,-1
 1217 1411 l 1,22,-1
 1300 1356 l 1,23,-1
 1155 1155 l 1,0,1
987 1094 m 1,24,25
 920 1174 920 1174 791 1174 c 0,26,27
 596.75 1174 596.75 1174 500.5 992 c 0,28,29
 473 940 473 940 451 870 c 0,30,31
 379 644 379 644 379 385 c 0,32,33
 379 328 379 328 389 266 c 1,34,-1
 987 1094 l 1,24,25
430 154 m 1,35,36
 494 51 494 51 637 51 c 128,-1,37
 780 51 780 51 855.5 123.5 c 128,-1,38
 931 196 931 196 972.5 319 c 0,39,40
 1057 569.445783133 1057 569.445783133 1057 821 c 0,41,42
 1057 924 1057 924 1038 993 c 1,43,-1
 430 154 l 1,35,36
EndSplineSet
Position2: "'cpsp' Capital Spacing lookup 0 per glyph data 2" dx=10 dy=0 dh=20 dv=0
EndChar

StartChar: Otilde
Encoding: 213 213 67
Width: 1386
Flags: MW
HStem: -20 72<544 742 544 831> 1174 70<693 899> 1374 125<950 1009 950 1010> 1456 123<628 686>
VStem: 80 299<385 458 385 758> 512 57<1376 1376> 1057 299<748 897 472 918> 1067 57<1577 1577>
LayerCount: 2
UndoRedoHistory
Layer: 1
Undoes
EndUndoes
Redoes
EndRedoes
EndUndoRedoHistory
Fore
SplineSet
512 1376 m 1,0,1
 525 1468 525 1468 565.5 1523.5 c 128,-1,2
 606 1579 606 1579 665 1579 c 128,-1,3
 724 1579 724 1579 838.5 1539 c 128,-1,4
 953 1499 953 1499 986 1499 c 128,-1,5
 1019 1499 1019 1499 1041 1520.5 c 128,-1,6
 1063 1542 1063 1542 1067 1577 c 1,7,-1
 1124 1577 l 1,8,9
 1111 1485 1111 1485 1070.5 1429.5 c 128,-1,10
 1030 1374 1030 1374 971 1374 c 128,-1,11
 912 1374 912 1374 797.5 1415 c 128,-1,12
 683 1456 683 1456 650 1456 c 128,-1,13
 617 1456 617 1456 595 1434 c 128,-1,14
 573 1412 573 1412 569 1376 c 1,15,-1
 512 1376 l 1,0,1
107 316.5 m 0,16,17
 80 407 80 407 80 550 c 128,-1,18
 80 693 80 693 137 832.5 c 128,-1,19
 194 972 194 972 293 1060.5 c 0,20,21
 497.152542373 1243 497.152542373 1243 805 1243 c 0,22,23
 1055.43307087 1243 1055.43307087 1243 1201.5 1118.5 c 0,24,25
 1356 986.812080537 1356 986.812080537 1356 707 c 0,26,27
 1356 536 1356 536 1299.5 396.5 c 128,-1,28
 1243 257 1243 257 1144 167 c 0,29,30
 938.3 -20 938.3 -20 631 -20 c 0,31,32
 207.392265193 -20 207.392265193 -20 107 316.5 c 0,16,17
518.5 75 m 0,33,34
 572 51 572 51 649 51 c 0,35,36
 780 51 780 51 855.5 123.5 c 128,-1,37
 931 196 931 196 972.5 319 c 0,38,39
 1057 569.445783133 1057 569.445783133 1057 821 c 0,40,41
 1057 1023.50847458 1057 1023.50847458 978.5 1106 c 0,42,43
 913.790322581 1174 913.790322581 1174 791 1174 c 0,44,45
 596.75 1174 596.75 1174 500.5 992 c 0,46,47
 473 940 473 940 451 870 c 0,48,49
 379 644 379 644 380.595203664 390.074114244 c 128,-1,50
 382.190407327 136.148228489 382.190407327 136.148228489 518.5 75 c 0,33,34
EndSplineSet
Position2: "'cpsp' Capital Spacing lookup 0 per glyph data 2" dx=10 dy=0 dh=20 dv=0
EndChar

StartChar: OE
Encoding: 338 338 68
Width: 1816
Flags: MW
HStem: -20 72<540 659> 0 72<1110 1321 1321 1413> 594 72<1171 1294 1159 1307> 831 41G<1489 1561 1561 1561> 907 317<1665 1737 1665 1665> 1151 74<1255 1264 1264 1413> 1174 70<691 849 577 854>
VStem: 80 297<383 453 383 729> 1489 72<872 872>
LayerCount: 2
UndoRedoHistory
Layer: 1
Undoes
EndUndoes
Redoes
EndRedoes
EndUndoRedoHistory
Fore
SplineSet
809 1243 m 1,0,-1
 1028 1225 l 1,1,-1
 1782 1225 l 1,2,-1
 1737 907 l 1,3,-1
 1665 907 l 1,4,5
 1669 947 1669 947 1669 965 c 0,6,7
 1669 1063 1669 1063 1607.5 1107 c 128,-1,8
 1546 1151 1546 1151 1413 1151 c 2,9,-1
 1264 1151 l 2,10,11
 1238 1151 1238 1151 1235 1122 c 1,12,-1
 1171 666 l 1,13,-1
 1307 666 l 2,14,15
 1375 666 1375 666 1425.5 721 c 128,-1,16
 1476 776 1476 776 1489 872 c 1,17,-1
 1561 872 l 1,18,-1
 1493 391 l 1,19,-1
 1421 391 l 1,20,21
 1423 403 1423 403 1423 430 c 0,22,23
 1423 502 1423 502 1386.5 548 c 128,-1,24
 1350 594 1350 594 1294 594 c 2,25,-1
 1159 594 l 1,26,-1
 1092 98 l 1,27,-1
 1092 92 l 2,28,29
 1092 72 1092 72 1110 72 c 2,30,-1
 1321 72 l 2,31,32
 1458 72 1458 72 1541.5 148.5 c 128,-1,33
 1625 225 1625 225 1645 367 c 1,34,-1
 1716 367 l 1,35,-1
 1665 -6 l 1,36,37
 1618 0 1618 0 1470 0 c 2,38,-1
 850 0 l 1,39,40
 686 -20 686 -20 633 -20 c 0,41,42
 364 -20 364 -20 222 116.5 c 128,-1,43
 80 253 80 253 80 518 c 0,44,45
 80 838.644808743 80 838.644808743 269.5 1038.5 c 0,46,47
 361 1135 361 1135 499.5 1189 c 128,-1,48
 638 1243 638 1243 809 1243 c 1,0,-1
950 1083 m 1,49,50
 946 1174 946 1174 795 1174 c 0,51,52
 644.795454545 1174 644.795454545 1174 560 1083 c 0,53,54
 483.75691998 1001.17815803 483.75691998 1001.17815803 442 860 c 1,55,56
 377 653 377 653 377 383 c 1,57,58
 380.228619814 189.282811177 380.228619814 189.282811177 460 113.5 c 0,59,60
 525.789473684 51 525.789473684 51 650.394736842 51 c 128,-1,61
 775 51 775 51 819 160 c 1,62,-1
 950 1083 l 1,49,50
EndSplineSet
Position2: "'cpsp' Capital Spacing lookup 0 per glyph data 2" dx=10 dy=0 dh=20 dv=0
EndChar

StartChar: P
Encoding: 80 80 69
Width: 1114
Flags: MW
HStem: 0 72<98 102 102 115 449 459> 508 74<489 600 600 662 489 678 481 600> 1151 72<246 246 591 596 596 676>
VStem: 834 297<835 997>
LayerCount: 2
UndoRedoHistory
Layer: 1
Undoes
EndUndoes
Redoes
EndRedoes
EndUndoRedoHistory
Fore
SplineSet
143 117 m 2,0,-1
 285 1120 l 1,1,2
 285 1154 285 1154 246 1151 c 2,3,-1
 178 1147 l 1,4,-1
 188 1223 l 1,5,-1
 723 1223 l 2,6,7
 931 1223 931 1223 1030.5 1151.5 c 128,-1,8
 1130 1080 1130 1080 1130 934 c 0,9,10
 1130 743 1130 743 1005 625.5 c 128,-1,11
 880 508 880 508 678 508 c 2,12,-1
 481 508 l 1,13,-1
 426 117 l 1,14,-1
 426 106 l 2,15,16
 426 72 426 72 459 72 c 1,17,-1
 559 76 l 1,18,-1
 549 0 l 1,19,-1
 16 0 l 1,20,-1
 27 76 l 1,21,-1
 98 72 l 1,22,-1
 102 72 l 2,23,24
 137 72 137 72 143 117 c 2,0,-1
596 1151 m 2,25,26
 588 1151 588 1151 578 1143.5 c 128,-1,27
 568 1136 568 1136 567 1126 c 2,28,-1
 489 582 l 1,29,-1
 600 582 l 2,30,31
 694 582 694 582 764 685 c 128,-1,32
 834 788 834 788 834 910 c 128,-1,33
 834 1032 834 1032 792 1091.5 c 128,-1,34
 750 1151 750 1151 676 1151 c 2,35,-1
 596 1151 l 2,25,26
EndSplineSet
Position2: "'cpsp' Capital Spacing lookup 0 per glyph data 2" dx=10 dy=0 dh=20 dv=0
EndChar

StartChar: Thorn
Encoding: 222 222 70
Width: 1105
Flags: MW
HStem: 0 55<98 102 102 114> 332 53<489 582 582 639 457 582> 965 51<545 702 553 633> 1165 57<254 254 601 612>
VStem: 807 289<639 816>
LayerCount: 2
UndoRedoHistory
Layer: 1
Undoes
EndUndoes
Redoes
EndRedoes
EndUndoRedoHistory
Fore
SplineSet
713 1161 m 1,0,-1
 612 1165 l 2,1,2
 595 1165 595 1165 582.5 1152.5 c 128,-1,3
 570 1140 570 1140 567 1122 c 2,4,-1
 553 1016 l 1,5,-1
 702 1016 l 2,6,7
 906 1016 906 1016 1001 953 c 128,-1,8
 1096 890 1096 890 1096 745 c 0,9,10
 1096 547 1096 547 977 439.5 c 128,-1,11
 858 332 858 332 649 332 c 2,12,-1
 457 332 l 1,13,-1
 424 100 l 1,14,-1
 424 88 l 2,15,16
 424 72 424 72 431.5 63 c 128,-1,17
 439 54 439 54 457 55 c 2,18,-1
 557 59 l 1,19,-1
 549 0 l 1,20,-1
 16 0 l 1,21,-1
 25 59 l 1,22,-1
 98 55 l 1,23,-1
 102 55 l 2,24,25
 134 55 134 55 141 100 c 2,26,-1
 285 1122 l 1,27,-1
 285 1133 l 2,28,29
 285 1147 285 1147 276.5 1156.5 c 128,-1,30
 268 1166 268 1166 254 1165 c 2,31,-1
 180 1161 l 1,32,-1
 188 1223 l 1,33,-1
 721 1223 l 1,34,-1
 713 1161 l 1,0,-1
545 965 m 1,35,-1
 467 412 l 1,36,-1
 467 408 l 2,37,38
 467 399 467 399 473.5 392 c 128,-1,39
 480 385 480 385 489 385 c 2,40,-1
 582 385 l 2,41,42
 671 385 671 385 739 487.5 c 128,-1,43
 807 590 807 590 807 720.5 c 0,44,45
 807 965 807 965 633 965 c 2,46,-1
 545 965 l 1,35,-1
EndSplineSet
Position2: "'cpsp' Capital Spacing lookup 0 per glyph data 2" dx=10 dy=0 dh=20 dv=0
EndChar

StartChar: Q
Encoding: 81 81 71
Width: 1386
Flags: MW
HStem: -367 166<950 1149> -20 72<544 631> 1174 70<693 899>
VStem: 80 299<385 458 385 758> 1057 299<748 897 513 918>
LayerCount: 2
UndoRedoHistory
Layer: 1
Undoes
EndUndoes
Redoes
EndRedoes
EndUndoRedoHistory
Fore
SplineSet
1298 -229 m 1,0,1
 1139 -367 1139 -367 1028.5 -367 c 128,-1,2
 918 -367 918 -367 826.5 -283.5 c 128,-1,3
 735 -200 735 -200 631 -20 c 1,4,5
 207.392265193 -20 207.392265193 -20 107 316.5 c 0,6,7
 80 407 80 407 80 550 c 128,-1,8
 80 693 80 693 137 832.5 c 128,-1,9
 194 972 194 972 293 1060.5 c 0,10,11
 497.152542373 1243 497.152542373 1243 805 1243 c 0,12,13
 1055.43307087 1243 1055.43307087 1243 1201.5 1118.5 c 0,14,15
 1356 986.812080537 1356 986.812080537 1356 707 c 0,16,17
 1356 519 1356 519 1287 370 c 0,18,19
 1153.42708128 81.5599291478 1153.42708128 81.5599291478 831 2 c 1,20,21
 913 -111 913 -111 981 -156 c 128,-1,22
 1049 -201 1049 -201 1114 -201 c 128,-1,23
 1179 -201 1179 -201 1284 -176 c 1,24,-1
 1298 -229 l 1,0,1
518.5 75 m 0,25,26
 572 51 572 51 649 51 c 0,27,28
 780 51 780 51 855.5 123.5 c 128,-1,29
 931 196 931 196 972.5 319 c 0,30,31
 1057 569.445783133 1057 569.445783133 1057 821 c 0,32,33
 1057 1023.50847458 1057 1023.50847458 978.5 1106 c 0,34,35
 913.790322581 1174 913.790322581 1174 791 1174 c 0,36,37
 596.75 1174 596.75 1174 500.5 992 c 0,38,39
 473 940 473 940 451 870 c 0,40,41
 379 644 379 644 380.595203664 390.074114244 c 128,-1,42
 382.190407327 136.148228489 382.190407327 136.148228489 518.5 75 c 0,25,26
EndSplineSet
Position2: "'cpsp' Capital Spacing lookup 0 per glyph data 2" dx=10 dy=0 dh=20 dv=0
EndChar

StartChar: R
Encoding: 82 82 72
Width: 1202
Flags: MW
HStem: -20 90 0 72<98 102 102 115 449 459> 555 72<498 561 487 625> 1151 72<246 260 588 596 596 659>
VStem: 729 283<73 418> 827 279<870 1023>
LayerCount: 2
UndoRedoHistory
Layer: 1
Undoes
EndUndoes
Redoes
EndRedoes
EndUndoRedoHistory
Fore
SplineSet
729 125 m 1,0,-1
 745 334 l 1,1,2
 745 495.052631579 745 495.052631579 655 536.5 c 0,3,4
 617 554 617 554 561 555 c 1,5,-1
 487 555 l 1,6,-1
 426 113 l 1,7,-1
 426 102 l 2,8,9
 426 72 426 72 459 72 c 1,10,-1
 559 76 l 1,11,-1
 549 0 l 1,12,-1
 16 0 l 1,13,-1
 27 76 l 1,14,-1
 98 72 l 1,15,-1
 102 72 l 2,16,17
 137 72 137 72 143 117 c 2,18,-1
 283 1104 l 1,19,-1
 283 1112 l 2,20,21
 283 1151 283 1151 246 1151 c 1,22,-1
 178 1147 l 1,23,-1
 188 1223 l 1,24,-1
 717 1223 l 2,25,26
 914 1223 914 1223 1010 1159 c 128,-1,27
 1106 1095 1106 1095 1106 962 c 128,-1,28
 1106 829 1106 829 1024.5 736.5 c 128,-1,29
 943 644 943 644 803 604 c 1,30,31
 1012 578.607476636 1012 578.607476636 1012 348 c 1,32,-1
 1004 152 l 1,33,34
 1004 109 1004 109 1017.5 89.5 c 128,-1,35
 1031 70 1031 70 1059.5 70 c 128,-1,36
 1088 70 1088 70 1106 82 c 1,37,-1
 1122 35 l 1,38,39
 1014.5 -20 1014.5 -20 911.25 -20 c 128,-1,40
 808 -20 808 -20 768.5 14 c 128,-1,41
 729 48 729 48 729 125 c 1,0,-1
827 954 m 0,42,43
 827 1151 827 1151 659 1151 c 2,44,-1
 596 1151 l 2,45,46
 570 1151 570 1151 567 1130 c 2,47,-1
 498 627 l 1,48,-1
 625 627 l 2,49,50
 711 627 711 627 769 718 c 128,-1,51
 827 809 827 809 827 954 c 0,42,43
EndSplineSet
Position2: "'cpsp' Capital Spacing lookup 0 per glyph data 2" dx=10 dy=0 dh=20 dv=0
EndChar

StartChar: Racute
Encoding: 340 340 73
Width: 1202
Flags: MW
HStem: -20 90 0 72<98 102 102 115 449 459> 555 72<498 561 487 625> 1151 72<246 260 588 596 596 659>
VStem: 729 283<73 418> 827 279<870 1023>
LayerCount: 2
UndoRedoHistory
Layer: 1
Undoes
EndUndoes
Redoes
EndRedoes
EndUndoRedoHistory
Fore
SplineSet
850 1642 m 2,0,1
 854 1646 854 1646 862 1653.5 c 128,-1,2
 870 1661 870 1661 872.5 1663.5 c 128,-1,3
 875 1666 875 1666 881 1671.5 c 128,-1,4
 887 1677 887 1677 889.5 1678.5 c 128,-1,5
 892 1680 892 1680 896.5 1683.5 c 128,-1,6
 901 1687 901 1687 904 1687.5 c 128,-1,7
 907 1688 907 1688 911.5 1689.5 c 0,8,9
 919 1692 919 1692 942.5 1692 c 128,-1,10
 966 1692 966 1692 1011.5 1666 c 128,-1,11
 1057 1640 1057 1640 1057 1618.5 c 128,-1,12
 1057 1597 1057 1597 1026 1581 c 1,13,-1
 659 1370 l 1,14,15
 632 1352 632 1352 610 1352 c 128,-1,16
 588 1352 588 1352 588 1370.5 c 128,-1,17
 588 1389 588 1389 629 1427 c 1,18,-1
 850 1642 l 2,0,1
729 125 m 1,19,-1
 745 334 l 1,20,21
 745 495.052631579 745 495.052631579 655 536.5 c 0,22,23
 617 554 617 554 561 555 c 1,24,-1
 487 555 l 1,25,-1
 426 113 l 1,26,-1
 426 102 l 2,27,28
 426 72 426 72 459 72 c 1,29,-1
 559 76 l 1,30,-1
 549 0 l 1,31,-1
 16 0 l 1,32,-1
 27 76 l 1,33,-1
 98 72 l 1,34,-1
 102 72 l 2,35,36
 137 72 137 72 143 117 c 2,37,-1
 283 1104 l 1,38,-1
 283 1112 l 2,39,40
 283 1151 283 1151 246 1151 c 1,41,-1
 178 1147 l 1,42,-1
 188 1223 l 1,43,-1
 717 1223 l 2,44,45
 914 1223 914 1223 1010 1159 c 128,-1,46
 1106 1095 1106 1095 1106 962 c 128,-1,47
 1106 829 1106 829 1024.5 736.5 c 128,-1,48
 943 644 943 644 803 604 c 1,49,50
 1012 578.607476636 1012 578.607476636 1012 348 c 1,51,-1
 1004 152 l 1,52,53
 1004 109 1004 109 1017.5 89.5 c 128,-1,54
 1031 70 1031 70 1059.5 70 c 128,-1,55
 1088 70 1088 70 1106 82 c 1,56,-1
 1122 35 l 1,57,58
 1014.5 -20 1014.5 -20 911.25 -20 c 128,-1,59
 808 -20 808 -20 768.5 14 c 128,-1,60
 729 48 729 48 729 125 c 1,19,-1
827 954 m 0,61,62
 827 1151 827 1151 659 1151 c 2,63,-1
 596 1151 l 2,64,65
 570 1151 570 1151 567 1130 c 2,66,-1
 498 627 l 1,67,-1
 625 627 l 2,68,69
 711 627 711 627 769 718 c 128,-1,70
 827 809 827 809 827 954 c 0,61,62
EndSplineSet
EndChar

StartChar: Rcaron
Encoding: 344 344 74
Width: 1202
Flags: MW
HStem: -20 90 0 72<98 102 102 115 449 459> 555 72<498 561 487 625> 1151 72<246 260 588 596 596 659> 1405 123<666 752 752 801>
VStem: 729 283<73 418> 827 279<870 1023>
LayerCount: 2
UndoRedoHistory
Layer: 1
Undoes
EndUndoes
Redoes
EndRedoes
EndUndoRedoHistory
Fore
SplineSet
993 1663 m 1,0,1
 1033 1688 1033 1688 1059 1688 c 128,-1,2
 1085 1688 1085 1688 1085 1673 c 0,3,4
 1085 1662.1875 1085 1662.1875 1016 1601.09375 c 128,-1,5
 947 1540 947 1540 909 1503 c 1,6,-1
 801 1405 l 2,7,8
 761 1368 761 1368 727 1368 c 128,-1,9
 693 1368 693 1368 666 1405 c 1,10,-1
 586 1503 l 1,11,12
 558 1541 558 1541 523 1581.5 c 0,13,14
 455 1660.18571429 455 1660.18571429 455 1669 c 0,15,16
 455 1688 455 1688 483.5 1688 c 128,-1,17
 512 1688 512 1688 547 1663 c 1,18,-1
 752 1528 l 1,19,-1
 993 1663 l 1,0,1
729 125 m 1,20,-1
 745 334 l 1,21,22
 745 495.052631579 745 495.052631579 655 536.5 c 0,23,24
 617 554 617 554 561 555 c 1,25,-1
 487 555 l 1,26,-1
 426 113 l 1,27,-1
 426 102 l 2,28,29
 426 72 426 72 459 72 c 1,30,-1
 559 76 l 1,31,-1
 549 0 l 1,32,-1
 16 0 l 1,33,-1
 27 76 l 1,34,-1
 98 72 l 1,35,-1
 102 72 l 2,36,37
 137 72 137 72 143 117 c 2,38,-1
 283 1104 l 1,39,-1
 283 1112 l 2,40,41
 283 1151 283 1151 246 1151 c 1,42,-1
 178 1147 l 1,43,-1
 188 1223 l 1,44,-1
 717 1223 l 2,45,46
 914 1223 914 1223 1010 1159 c 128,-1,47
 1106 1095 1106 1095 1106 962 c 128,-1,48
 1106 829 1106 829 1024.5 736.5 c 128,-1,49
 943 644 943 644 803 604 c 1,50,51
 1012 578.607476636 1012 578.607476636 1012 348 c 1,52,-1
 1004 152 l 1,53,54
 1004 109 1004 109 1017.5 89.5 c 128,-1,55
 1031 70 1031 70 1059.5 70 c 128,-1,56
 1088 70 1088 70 1106 82 c 1,57,-1
 1122 35 l 1,58,59
 1014.5 -20 1014.5 -20 911.25 -20 c 128,-1,60
 808 -20 808 -20 768.5 14 c 128,-1,61
 729 48 729 48 729 125 c 1,20,-1
827 954 m 0,62,63
 827 1151 827 1151 659 1151 c 2,64,-1
 596 1151 l 2,65,66
 570 1151 570 1151 567 1130 c 2,67,-1
 498 627 l 1,68,-1
 625 627 l 2,69,70
 711 627 711 627 769 718 c 128,-1,71
 827 809 827 809 827 954 c 0,62,63
EndSplineSet
EndChar

StartChar: Rcommaaccent
Encoding: 342 342 75
Width: 1202
Flags: MW
HStem: -289 219<443 587> -20 90 0 72<98 102 102 115 449 459> 555 72<498 561 487 625> 1151 72<246 260 588 596 596 659>
VStem: 395 289<-225 -173 -276 -172> 729 283<73 418> 827 279<870 1023>
LayerCount: 2
UndoRedoHistory
Layer: 1
Undoes
EndUndoes
Redoes
EndRedoes
EndUndoRedoHistory
Fore
SplineSet
729 125 m 1,0,-1
 745 334 l 1,1,2
 745 495.052631579 745 495.052631579 655 536.5 c 0,3,4
 617 554 617 554 561 555 c 1,5,-1
 487 555 l 1,6,-1
 426 113 l 1,7,-1
 426 102 l 2,8,9
 426 72 426 72 459 72 c 1,10,-1
 559 76 l 1,11,-1
 549 0 l 1,12,-1
 16 0 l 1,13,-1
 27 76 l 1,14,-1
 98 72 l 1,15,-1
 102 72 l 2,16,17
 137 72 137 72 143 117 c 2,18,-1
 283 1104 l 1,19,-1
 283 1112 l 2,20,21
 283 1151 283 1151 246 1151 c 1,22,-1
 178 1147 l 1,23,-1
 188 1223 l 1,24,-1
 717 1223 l 2,25,26
 914 1223 914 1223 1010 1159 c 128,-1,27
 1106 1095 1106 1095 1106 962 c 128,-1,28
 1106 829 1106 829 1024.5 736.5 c 128,-1,29
 943 644 943 644 803 604 c 1,30,31
 1012 578.607476636 1012 578.607476636 1012 348 c 1,32,-1
 1004 152 l 1,33,34
 1004 109 1004 109 1017.5 89.5 c 128,-1,35
 1031 70 1031 70 1059.5 70 c 128,-1,36
 1088 70 1088 70 1106 82 c 1,37,-1
 1122 35 l 1,38,39
 1014.5 -20 1014.5 -20 911.25 -20 c 128,-1,40
 808 -20 808 -20 768.5 14 c 128,-1,41
 729 48 729 48 729 125 c 1,0,-1
827 954 m 0,42,43
 827 1151 827 1151 659 1151 c 2,44,-1
 596 1151 l 2,45,46
 570 1151 570 1151 567 1130 c 2,47,-1
 498 627 l 1,48,-1
 625 627 l 2,49,50
 711 627 711 627 769 718 c 128,-1,51
 827 809 827 809 827 954 c 0,42,43
403 -469 m 1,52,53
 449 -441 449 -441 482.5 -405.5 c 128,-1,54
 516 -370 516 -370 516 -340 c 1,55,56
 518 -289 518 -289 467 -289 c 0,57,58
 433 -289 433 -289 414 -264 c 128,-1,59
 395 -239 395 -239 395 -195.5 c 128,-1,60
 395 -152 395 -152 434 -111 c 128,-1,61
 473 -70 473 -70 540 -70 c 128,-1,62
 607 -70 607 -70 645.5 -111 c 128,-1,63
 684 -152 684 -152 684 -209 c 0,64,65
 684 -304 684 -304 611.5 -386 c 128,-1,66
 539 -468 539 -468 438 -514 c 1,67,-1
 403 -469 l 1,52,53
EndSplineSet
EndChar

StartChar: S
Encoding: 83 83 76
Width: 1015
Flags: MW
HStem: -20 74<425 517 355 618> 889 283<939 958 939 975 905 958> 1174 70<582 677 469 723>
VStem: 82 66<285 416> 156 244<945 965> 696 260<276 299> 907 63<930 989 930 1004>
LayerCount: 2
UndoRedoHistory
Layer: 1
Undoes
EndUndoes
Redoes
EndRedoes
EndUndoRedoHistory
Fore
SplineSet
373 543 m 1,0,1
 269 599 269 599 212.5 674 c 128,-1,2
 156 749 156 749 156 860 c 0,3,4
 156 1024 156 1024 279 1133.5 c 128,-1,5
 402 1243 402 1243 621 1243 c 0,6,7
 674 1243 674 1243 701.5 1238 c 128,-1,8
 729 1233 729 1233 741 1231 c 128,-1,9
 753 1229 753 1229 778.5 1221.5 c 128,-1,10
 804 1214 804 1214 811.5 1211.5 c 0,11,12
 867 1193 867 1193 897.5 1182 c 128,-1,13
 928 1171 928 1171 955.5 1171 c 128,-1,14
 983 1171 983 1171 1010 1180 c 1,15,16
 971 1019 971 1019 971 966 c 128,-1,17
 971 913 971 913 975 889 c 1,18,-1
 905 889 l 1,19,20
 907 903 907 903 907 932 c 0,21,22
 907 1040 907 1040 834.5 1107 c 128,-1,23
 762 1174 762 1174 652 1174 c 128,-1,24
 542 1174 542 1174 470.5 1126.5 c 128,-1,25
 399 1079 399 1079 399 1002.5 c 128,-1,26
 399 926 399 926 442.5 879 c 128,-1,27
 486 832 486 832 578 782 c 1,28,-1
 702 711 l 1,29,30
 830.393442623 640.967213115 830.393442623 640.967213115 877.196721311 589.483606557 c 128,-1,31
 924 538 924 538 940 492 c 128,-1,32
 956 446 956 446 956 374.5 c 128,-1,33
 956 303 956 303 923 230 c 128,-1,34
 890 157 890 157 828.5 101 c 0,35,36
 695.616071429 -20 695.616071429 -20 457 -20 c 0,37,38
 377 -20 377 -20 263 8.5 c 128,-1,39
 149 37 149 37 127 37 c 128,-1,40
 105 37 105 37 84 34.5 c 0,41,42
 42 29.5 42 29.5 33 25 c 1,43,44
 82 180 82 180 82 365 c 0,45,46
 82 408 82 408 78 410 c 1,47,-1
 147 416 l 1,48,49
 143 238 143 238 224 145.5 c 128,-1,50
 305 53 305 53 449 53 c 0,51,52
 553 53 553 53 624.5 108.5 c 128,-1,53
 696 164 696 164 696 242 c 128,-1,54
 696 320 696 320 650.5 370.5 c 128,-1,55
 605 421 605 421 514 469 c 2,56,-1
 373 543 l 1,0,1
EndSplineSet
Position2: "'cpsp' Capital Spacing lookup 0 per glyph data 2" dx=10 dy=0 dh=20 dv=0
EndChar

StartChar: Sacute
Encoding: 346 346 77
Width: 1015
Flags: MW
HStem: -20 74<425 517 355 618> 889 283<939 958 939 975 905 958> 1174 70<582 677 469 723>
VStem: 82 66<285 416> 156 244<945 965> 696 260<276 299> 907 63<930 989 930 1004>
LayerCount: 2
UndoRedoHistory
Layer: 1
Undoes
EndUndoes
Redoes
EndRedoes
EndUndoRedoHistory
Fore
SplineSet
774 1642 m 2,0,1
 778 1646 778 1646 786 1653.5 c 128,-1,2
 794 1661 794 1661 796.5 1663.5 c 128,-1,3
 799 1666 799 1666 805 1671.5 c 128,-1,4
 811 1677 811 1677 813.5 1678.5 c 128,-1,5
 816 1680 816 1680 820.5 1683.5 c 128,-1,6
 825 1687 825 1687 828 1687.5 c 128,-1,7
 831 1688 831 1688 835.5 1689.5 c 0,8,9
 843 1692 843 1692 866.5 1692 c 128,-1,10
 890 1692 890 1692 935.5 1666 c 128,-1,11
 981 1640 981 1640 981 1618.5 c 128,-1,12
 981 1597 981 1597 950 1581 c 1,13,-1
 584 1370 l 1,14,15
 557 1352 557 1352 534.5 1352 c 128,-1,16
 512 1352 512 1352 512 1370.5 c 128,-1,17
 512 1389 512 1389 553 1427 c 1,18,-1
 774 1642 l 2,0,1
373 543 m 1,19,20
 269 599 269 599 212.5 674 c 128,-1,21
 156 749 156 749 156 860 c 0,22,23
 156 1024 156 1024 279 1133.5 c 128,-1,24
 402 1243 402 1243 621 1243 c 0,25,26
 674 1243 674 1243 701.5 1238 c 128,-1,27
 729 1233 729 1233 741 1231 c 128,-1,28
 753 1229 753 1229 778.5 1221.5 c 128,-1,29
 804 1214 804 1214 811.5 1211.5 c 0,30,31
 867 1193 867 1193 897.5 1182 c 128,-1,32
 928 1171 928 1171 955.5 1171 c 128,-1,33
 983 1171 983 1171 1010 1180 c 1,34,35
 971 1019 971 1019 971 966 c 128,-1,36
 971 913 971 913 975 889 c 1,37,-1
 905 889 l 1,38,39
 907 903 907 903 907 932 c 0,40,41
 907 1040 907 1040 834.5 1107 c 128,-1,42
 762 1174 762 1174 652 1174 c 128,-1,43
 542 1174 542 1174 470.5 1126.5 c 128,-1,44
 399 1079 399 1079 399 1002.5 c 128,-1,45
 399 926 399 926 442.5 879 c 128,-1,46
 486 832 486 832 578 782 c 1,47,-1
 702 711 l 1,48,49
 830.393442623 640.967213115 830.393442623 640.967213115 877.196721311 589.483606557 c 128,-1,50
 924 538 924 538 940 492 c 128,-1,51
 956 446 956 446 956 374.5 c 128,-1,52
 956 303 956 303 923 230 c 128,-1,53
 890 157 890 157 828.5 101 c 0,54,55
 695.616071429 -20 695.616071429 -20 457 -20 c 0,56,57
 377 -20 377 -20 263 8.5 c 128,-1,58
 149 37 149 37 127 37 c 128,-1,59
 105 37 105 37 84 34.5 c 0,60,61
 42 29.5 42 29.5 33 25 c 1,62,63
 82 180 82 180 82 365 c 0,64,65
 82 408 82 408 78 410 c 1,66,-1
 147 416 l 1,67,68
 143 238 143 238 224 145.5 c 128,-1,69
 305 53 305 53 449 53 c 0,70,71
 553 53 553 53 624.5 108.5 c 128,-1,72
 696 164 696 164 696 242 c 128,-1,73
 696 320 696 320 650.5 370.5 c 128,-1,74
 605 421 605 421 514 469 c 2,75,-1
 373 543 l 1,19,20
EndSplineSet
EndChar

StartChar: Scaron
Encoding: 352 352 78
Width: 1015
Flags: MW
HStem: -20 74<425 517 355 618> 889 283<939 958 939 975 905 958> 1174 70<582 677 469 723> 1405 123<590 676 676 725>
VStem: 82 66<285 416> 156 244<945 965> 696 260<276 299> 907 63<930 989 930 1004>
LayerCount: 2
UndoRedoHistory
Layer: 1
Undoes
EndUndoes
Redoes
EndRedoes
EndUndoRedoHistory
Fore
SplineSet
918 1663 m 1,0,1
 958 1688 958 1688 984 1688 c 128,-1,2
 1010 1688 1010 1688 1010 1673 c 0,3,4
 1010 1662.1875 1010 1662.1875 941 1601.09375 c 128,-1,5
 872 1540 872 1540 834 1503 c 1,6,-1
 725 1405 l 2,7,8
 685 1368 685 1368 651 1368 c 128,-1,9
 617 1368 617 1368 590 1405 c 1,10,-1
 510 1503 l 1,11,12
 482 1541 482 1541 447 1581.5 c 0,13,14
 379 1660.18571429 379 1660.18571429 379 1669 c 0,15,16
 379 1688 379 1688 407.5 1688 c 128,-1,17
 436 1688 436 1688 471 1663 c 1,18,-1
 676 1528 l 1,19,-1
 918 1663 l 1,0,1
373 543 m 1,20,21
 269 599 269 599 212.5 674 c 128,-1,22
 156 749 156 749 156 860 c 0,23,24
 156 1024 156 1024 279 1133.5 c 128,-1,25
 402 1243 402 1243 621 1243 c 0,26,27
 674 1243 674 1243 701.5 1238 c 128,-1,28
 729 1233 729 1233 741 1231 c 128,-1,29
 753 1229 753 1229 778.5 1221.5 c 128,-1,30
 804 1214 804 1214 811.5 1211.5 c 0,31,32
 867 1193 867 1193 897.5 1182 c 128,-1,33
 928 1171 928 1171 955.5 1171 c 128,-1,34
 983 1171 983 1171 1010 1180 c 1,35,36
 971 1019 971 1019 971 966 c 128,-1,37
 971 913 971 913 975 889 c 1,38,-1
 905 889 l 1,39,40
 907 903 907 903 907 932 c 0,41,42
 907 1040 907 1040 834.5 1107 c 128,-1,43
 762 1174 762 1174 652 1174 c 128,-1,44
 542 1174 542 1174 470.5 1126.5 c 128,-1,45
 399 1079 399 1079 399 1002.5 c 128,-1,46
 399 926 399 926 442.5 879 c 128,-1,47
 486 832 486 832 578 782 c 1,48,-1
 702 711 l 1,49,50
 830.393442623 640.967213115 830.393442623 640.967213115 877.196721311 589.483606557 c 128,-1,51
 924 538 924 538 940 492 c 128,-1,52
 956 446 956 446 956 374.5 c 128,-1,53
 956 303 956 303 923 230 c 128,-1,54
 890 157 890 157 828.5 101 c 0,55,56
 695.616071429 -20 695.616071429 -20 457 -20 c 0,57,58
 377 -20 377 -20 263 8.5 c 128,-1,59
 149 37 149 37 127 37 c 128,-1,60
 105 37 105 37 84 34.5 c 0,61,62
 42 29.5 42 29.5 33 25 c 1,63,64
 82 180 82 180 82 365 c 0,65,66
 82 408 82 408 78 410 c 1,67,-1
 147 416 l 1,68,69
 143 238 143 238 224 145.5 c 128,-1,70
 305 53 305 53 449 53 c 0,71,72
 553 53 553 53 624.5 108.5 c 128,-1,73
 696 164 696 164 696 242 c 128,-1,74
 696 320 696 320 650.5 370.5 c 128,-1,75
 605 421 605 421 514 469 c 2,76,-1
 373 543 l 1,20,21
EndSplineSet
Position2: "'cpsp' Capital Spacing lookup 0 per glyph data 2" dx=10 dy=0 dh=20 dv=0
EndChar

StartChar: Scedilla
Encoding: 350 350 79
Width: 1015
Flags: MW
HStem: -438 72<355 369 326 432> -20 74<432 432> 889 283<905 958 939 958 939 975> 1174 70<582 677 469 723>
VStem: 82 66<285 416> 156 244<945 965> 336 125<-138 -130> 455 182<-292 -251> 696 260<284 299> 907 63<930 989 930 1004>
LayerCount: 2
UndoRedoHistory
Layer: 1
Undoes
EndUndoes
Redoes
EndRedoes
EndUndoRedoHistory
Fore
SplineSet
905 889 m 1,0,1
 907 903 907 903 907 932 c 0,2,3
 907 1040 907 1040 834.5 1107 c 128,-1,4
 762 1174 762 1174 652 1174 c 128,-1,5
 542 1174 542 1174 470.5 1126.5 c 128,-1,6
 399 1079 399 1079 399 1002.5 c 128,-1,7
 399 926 399 926 442.5 879 c 128,-1,8
 486 832 486 832 578 782 c 1,9,-1
 702 711 l 1,10,11
 830.393442623 640.967213115 830.393442623 640.967213115 877.196721311 589.483606557 c 128,-1,12
 924 538 924 538 940 492 c 128,-1,13
 956 446 956 446 956 387 c 0,14,15
 956 226 956 226 841 112.5 c 128,-1,16
 726 -1 726 -1 520 -18 c 1,17,-1
 477 -74 l 1,18,19
 461 -100 461 -100 461 -115 c 128,-1,20
 461 -130 461 -130 488.5 -139 c 128,-1,21
 516 -148 516 -148 549 -153 c 128,-1,22
 582 -158 582 -158 609.5 -179.5 c 128,-1,23
 637 -201 637 -201 637 -251 c 128,-1,24
 637 -301 637 -301 595 -348 c 0,25,26
 514.574468085 -438 514.574468085 -438 373 -438 c 0,27,28
 280 -438 280 -438 236 -406 c 1,29,-1
 272 -338 l 1,30,31
 292 -367 292 -367 337.5 -367 c 128,-1,32
 383 -367 383 -367 419 -335.5 c 128,-1,33
 455 -304 455 -304 455 -264.5 c 128,-1,34
 455 -225 455 -225 397 -193 c 1,35,-1
 354 -164 l 1,36,37
 336 -149 336 -149 336 -134 c 128,-1,38
 336 -119 336 -119 352 -106 c 1,39,-1
 432 -20 l 1,40,41
 362 -17 362 -17 255.5 10 c 128,-1,42
 149 37 149 37 127 37 c 128,-1,43
 105 37 105 37 84 34.5 c 0,44,45
 42 29.5 42 29.5 33 25 c 1,46,47
 82 180 82 180 82 365 c 0,48,49
 82 408 82 408 78 410 c 1,50,-1
 147 416 l 1,51,52
 143 238 143 238 224 145.5 c 128,-1,53
 305 53 305 53 449 53 c 0,54,55
 553 53 553 53 624.5 108.5 c 128,-1,56
 696 164 696 164 696 242 c 128,-1,57
 696 320 696 320 650.5 370.5 c 128,-1,58
 605 421 605 421 514 469 c 2,59,-1
 373 543 l 1,60,61
 269 599 269 599 212.5 674 c 128,-1,62
 156 749 156 749 156 860 c 0,63,64
 156 1024 156 1024 279 1133.5 c 128,-1,65
 402 1243 402 1243 621 1243 c 0,66,67
 674 1243 674 1243 701.5 1238 c 128,-1,68
 729 1233 729 1233 741 1231 c 128,-1,69
 753 1229 753 1229 778.5 1221.5 c 128,-1,70
 804 1214 804 1214 811.5 1211.5 c 0,71,72
 867 1193 867 1193 897.5 1182 c 128,-1,73
 928 1171 928 1171 955.5 1171 c 128,-1,74
 983 1171 983 1171 1010 1180 c 1,75,76
 971 1019 971 1019 971 966 c 128,-1,77
 971 913 971 913 975 889 c 1,78,-1
 905 889 l 1,0,1
EndSplineSet
EndChar

StartChar: Scommaaccent
Encoding: 536 536 80
Width: 1015
Flags: MW
HStem: -289 219<378 521> -20 74<425 517 355 618> 889 283<939 958 939 975 905 958> 1174 70<582 677 469 723>
VStem: 82 66<285 416> 156 244<945 965> 330 289<-225 -173 -276 -172> 696 260<276 299> 907 63<930 989 930 1004>
LayerCount: 2
UndoRedoHistory
Layer: 1
Undoes
EndUndoes
Redoes
EndRedoes
EndUndoRedoHistory
Fore
SplineSet
373 543 m 1,0,1
 269 599 269 599 212.5 674 c 128,-1,2
 156 749 156 749 156 860 c 0,3,4
 156 1024 156 1024 279 1133.5 c 128,-1,5
 402 1243 402 1243 621 1243 c 0,6,7
 674 1243 674 1243 701.5 1238 c 128,-1,8
 729 1233 729 1233 741 1231 c 128,-1,9
 753 1229 753 1229 778.5 1221.5 c 128,-1,10
 804 1214 804 1214 811.5 1211.5 c 0,11,12
 867 1193 867 1193 897.5 1182 c 128,-1,13
 928 1171 928 1171 955.5 1171 c 128,-1,14
 983 1171 983 1171 1010 1180 c 1,15,16
 971 1019 971 1019 971 966 c 128,-1,17
 971 913 971 913 975 889 c 1,18,-1
 905 889 l 1,19,20
 907 903 907 903 907 932 c 0,21,22
 907 1040 907 1040 834.5 1107 c 128,-1,23
 762 1174 762 1174 652 1174 c 128,-1,24
 542 1174 542 1174 470.5 1126.5 c 128,-1,25
 399 1079 399 1079 399 1002.5 c 128,-1,26
 399 926 399 926 442.5 879 c 128,-1,27
 486 832 486 832 578 782 c 1,28,-1
 702 711 l 1,29,30
 830.393442623 640.967213115 830.393442623 640.967213115 877.196721311 589.483606557 c 128,-1,31
 924 538 924 538 940 492 c 128,-1,32
 956 446 956 446 956 374.5 c 128,-1,33
 956 303 956 303 923 230 c 128,-1,34
 890 157 890 157 828.5 101 c 0,35,36
 695.616071429 -20 695.616071429 -20 457 -20 c 0,37,38
 377 -20 377 -20 263 8.5 c 128,-1,39
 149 37 149 37 127 37 c 128,-1,40
 105 37 105 37 84 34.5 c 0,41,42
 42 29.5 42 29.5 33 25 c 1,43,44
 82 180 82 180 82 365 c 0,45,46
 82 408 82 408 78 410 c 1,47,-1
 147 416 l 1,48,49
 143 238 143 238 224 145.5 c 128,-1,50
 305 53 305 53 449 53 c 0,51,52
 553 53 553 53 624.5 108.5 c 128,-1,53
 696 164 696 164 696 242 c 128,-1,54
 696 320 696 320 650.5 370.5 c 128,-1,55
 605 421 605 421 514 469 c 2,56,-1
 373 543 l 1,0,1
338 -469 m 1,57,58
 384 -441 384 -441 417.5 -405.5 c 128,-1,59
 451 -370 451 -370 451 -340 c 1,60,61
 453 -289 453 -289 401 -289 c 0,62,63
 367 -289 367 -289 348.5 -264 c 128,-1,64
 330 -239 330 -239 330 -195.5 c 128,-1,65
 330 -152 330 -152 368.5 -111 c 128,-1,66
 407 -70 407 -70 474 -70 c 128,-1,67
 541 -70 541 -70 579.5 -111 c 128,-1,68
 618 -152 618 -152 618 -209 c 0,69,70
 618 -304 618 -304 545.5 -386 c 128,-1,71
 473 -468 473 -468 373 -514 c 1,72,-1
 338 -469 l 1,57,58
EndSplineSet
EndChar

StartChar: T
Encoding: 84 84 81
Width: 1105
Flags: MW
HStem: 0 72<322 334 672 682> 909 315<96 1090 96 1090 1071 1090 1090 1117 238 1141 1071 1071> 1151 74<362 453 453 489 812 819 819 858>
VStem: 96 1090<909 1229>
LayerCount: 2
UndoRedoHistory
Layer: 1
Undoes
EndUndoes
Redoes
EndRedoes
EndUndoRedoHistory
Fore
SplineSet
1141 909 m 1,0,-1
 1071 909 l 1,1,2
 1075 932 1075 932 1075 973 c 0,3,4
 1075 1065 1075 1065 1024 1108 c 128,-1,5
 973 1151 973 1151 858 1151 c 2,6,-1
 819 1151 l 2,7,8
 798 1151 798 1151 791 1128 c 1,9,-1
 649 117 l 1,10,-1
 649 106 l 2,11,12
 649 72 649 72 682 72 c 1,13,-1
 791 76 l 1,14,-1
 780 0 l 1,15,-1
 203 0 l 1,16,-1
 211 76 l 1,17,-1
 322 72 l 2,18,19
 340 72 340 72 353 87 c 128,-1,20
 366 102 366 102 369 123 c 2,21,-1
 508 1126 l 1,22,-1
 508 1133 l 2,23,24
 508 1151 508 1151 489 1151 c 2,25,-1
 453 1151 l 2,26,27
 320 1151 320 1151 251.5 1092.5 c 128,-1,28
 183 1034 183 1034 166 909 c 1,29,-1
 96 909 l 1,30,-1
 141 1229 l 1,31,32
 177 1225 177 1225 238 1225 c 2,33,-1
 1090 1225 l 2,34,35
 1166 1225 1166 1225 1186 1229 c 1,36,-1
 1141 909 l 1,0,-1
EndSplineSet
Position2: "'cpsp' Capital Spacing lookup 0 per glyph data 2" dx=10 dy=0 dh=20 dv=0
EndChar

StartChar: Tcaron
Encoding: 356 356 82
Width: 1105
Flags: MW
HStem: 0 72<322 334 672 682> 909 315<96 1090 96 1090 1071 1090 1090 1117 238 1141 1071 1071> 1151 74<362 453 453 489 812 819 819 858> 1405 123<594 680 680 729>
VStem: 96 1090<909 1229>
LayerCount: 2
UndoRedoHistory
Layer: 1
Undoes
EndUndoes
Redoes
EndRedoes
EndUndoRedoHistory
Fore
SplineSet
922 1663 m 1,0,1
 962 1688 962 1688 988 1688 c 128,-1,2
 1014 1688 1014 1688 1014 1673 c 0,3,4
 1014 1662.1875 1014 1662.1875 945 1601.09375 c 128,-1,5
 876 1540 876 1540 838 1503 c 1,6,-1
 729 1405 l 2,7,8
 689 1368 689 1368 655 1368 c 128,-1,9
 621 1368 621 1368 594 1405 c 1,10,-1
 514 1503 l 1,11,12
 486 1541 486 1541 451 1581.5 c 0,13,14
 383 1660.18571429 383 1660.18571429 383 1669 c 0,15,16
 383 1688 383 1688 411.5 1688 c 128,-1,17
 440 1688 440 1688 475 1663 c 1,18,-1
 680 1528 l 1,19,-1
 922 1663 l 1,0,1
1071 909 m 1,20,21
 1075 932 1075 932 1075 973 c 0,22,23
 1075 1065 1075 1065 1024 1108 c 128,-1,24
 973 1151 973 1151 858 1151 c 2,25,-1
 819 1151 l 2,26,27
 798 1151 798 1151 791 1128 c 1,28,-1
 649 117 l 1,29,-1
 649 106 l 2,30,31
 649 72 649 72 682 72 c 1,32,-1
 791 76 l 1,33,-1
 780 0 l 1,34,-1
 203 0 l 1,35,-1
 211 76 l 1,36,-1
 322 72 l 2,37,38
 340 72 340 72 353 87 c 128,-1,39
 366 102 366 102 369 123 c 2,40,-1
 508 1126 l 1,41,-1
 508 1133 l 2,42,43
 508 1151 508 1151 489 1151 c 2,44,-1
 453 1151 l 2,45,46
 320 1151 320 1151 251.5 1092.5 c 128,-1,47
 183 1034 183 1034 166 909 c 1,48,-1
 96 909 l 1,49,-1
 141 1229 l 1,50,51
 177 1225 177 1225 238 1225 c 2,52,-1
 1090 1225 l 2,53,54
 1166 1225 1166 1225 1186 1229 c 1,55,-1
 1141 909 l 1,56,-1
 1071 909 l 1,20,21
EndSplineSet
EndChar

StartChar: Tcedilla
Encoding: 354 354 83
Width: 1105
Flags: MW
HStem: -438 72<357 371 328 434> 0 72<322 334 322 453 672 682> 909 315<96 1090 96 1090 1071 1090 1090 1117 238 1141 1071 1071> 1151 74<362 453 453 489 812 819 819 858>
VStem: 338 125<-138 -130> 457 182<-292 -251>
LayerCount: 2
UndoRedoHistory
Layer: 1
Undoes
EndUndoes
Redoes
EndRedoes
EndUndoRedoHistory
Fore
SplineSet
1090 1225 m 2,0,1
 1166 1225 1166 1225 1186 1229 c 1,2,-1
 1141 909 l 1,3,-1
 1071 909 l 1,4,5
 1075 932 1075 932 1075 973 c 0,6,7
 1075 1065 1075 1065 1024 1108 c 128,-1,8
 973 1151 973 1151 858 1151 c 2,9,-1
 819 1151 l 2,10,11
 798 1151 798 1151 791 1128 c 1,12,-1
 649 117 l 1,13,-1
 649 106 l 2,14,15
 649 72 649 72 682 72 c 1,16,-1
 791 76 l 1,17,-1
 780 0 l 1,18,-1
 537 0 l 1,19,-1
 479 -74 l 1,20,21
 463 -100 463 -100 463 -115 c 128,-1,22
 463 -130 463 -130 490.5 -139 c 128,-1,23
 518 -148 518 -148 551 -153 c 128,-1,24
 584 -158 584 -158 611.5 -179.5 c 128,-1,25
 639 -201 639 -201 639 -251 c 128,-1,26
 639 -301 639 -301 597 -348 c 0,27,28
 516.574468085 -438 516.574468085 -438 375 -438 c 0,29,30
 282 -438 282 -438 238 -406 c 1,31,-1
 274 -338 l 1,32,33
 294 -367 294 -367 339.5 -367 c 128,-1,34
 385 -367 385 -367 421 -335.5 c 128,-1,35
 457 -304 457 -304 457 -264.5 c 128,-1,36
 457 -225 457 -225 399 -193 c 1,37,-1
 356 -164 l 1,38,39
 338 -149 338 -149 338 -134 c 128,-1,40
 338 -119 338 -119 354 -106 c 1,41,-1
 453 0 l 1,42,-1
 203 0 l 1,43,-1
 211 76 l 1,44,-1
 322 72 l 2,45,46
 340 72 340 72 353 87 c 128,-1,47
 366 102 366 102 369 123 c 2,48,-1
 508 1126 l 1,49,-1
 508 1133 l 2,50,51
 508 1151 508 1151 489 1151 c 2,52,-1
 453 1151 l 2,53,54
 320 1151 320 1151 251.5 1092.5 c 128,-1,55
 183 1034 183 1034 166 909 c 1,56,-1
 96 909 l 1,57,-1
 141 1229 l 1,58,59
 177 1225 177 1225 238 1225 c 2,60,-1
 1090 1225 l 2,0,1
EndSplineSet
EndChar

StartChar: uni021A
Encoding: 538 538 84
Width: 1105
Flags: MW
HStem: -289 219<380 523> 0 72<322 334 672 682> 909 315<96 1090 96 1090 1071 1090 1090 1117 238 1141 1071 1071> 1151 74<362 453 453 489 812 819 819 858>
VStem: 332 289<-225 -173 -276 -172>
LayerCount: 2
UndoRedoHistory
Layer: 1
Undoes
EndUndoes
Redoes
EndRedoes
EndUndoRedoHistory
Fore
SplineSet
1071 909 m 1,0,1
 1075 932 1075 932 1075 973 c 0,2,3
 1075 1065 1075 1065 1024 1108 c 128,-1,4
 973 1151 973 1151 858 1151 c 2,5,-1
 819 1151 l 2,6,7
 798 1151 798 1151 791 1128 c 1,8,-1
 649 117 l 1,9,-1
 649 106 l 2,10,11
 649 72 649 72 682 72 c 1,12,-1
 791 76 l 1,13,-1
 780 0 l 1,14,-1
 203 0 l 1,15,-1
 211 76 l 1,16,-1
 322 72 l 2,17,18
 340 72 340 72 353 87 c 128,-1,19
 366 102 366 102 369 123 c 2,20,-1
 508 1126 l 1,21,-1
 508 1133 l 2,22,23
 508 1151 508 1151 489 1151 c 2,24,-1
 453 1151 l 2,25,26
 320 1151 320 1151 251.5 1092.5 c 128,-1,27
 183 1034 183 1034 166 909 c 1,28,-1
 96 909 l 1,29,-1
 141 1229 l 1,30,31
 177 1225 177 1225 238 1225 c 2,32,-1
 1090 1225 l 2,33,34
 1166 1225 1166 1225 1186 1229 c 1,35,-1
 1141 909 l 1,36,-1
 1071 909 l 1,0,1
340 -469 m 1,37,38
 386 -441 386 -441 419.5 -405.5 c 128,-1,39
 453 -370 453 -370 453 -340 c 1,40,41
 455 -289 455 -289 403 -289 c 0,42,43
 369 -289 369 -289 350.5 -264 c 128,-1,44
 332 -239 332 -239 332 -195.5 c 0,45,46
 332 -152 332 -152 370.5 -111 c 128,-1,47
 409 -70 409 -70 476 -70 c 0,48,49
 543 -70 543 -70 582 -111 c 128,-1,50
 621 -152 621 -152 621 -209 c 0,51,52
 621 -304 621 -304 548.5 -386 c 128,-1,53
 476 -468 476 -468 375 -514 c 1,54,-1
 340 -469 l 1,37,38
EndSplineSet
EndChar

StartChar: U
Encoding: 85 85 85
Width: 1339
Flags: MW
HStem: -20 86<643 823> 1151 72<250 260 598 610 1145 1155 1297 1309>
VStem: 176 283<238 338 238 340>
LayerCount: 2
UndoRedoHistory
Layer: 1
Undoes
EndUndoes
Redoes
EndRedoes
EndUndoRedoHistory
Fore
SplineSet
459 326 m 0,0,1
 459 66 459 66 729 66 c 0,2,3
 891 66 891 66 972.5 156 c 128,-1,4
 1054 246 1054 246 1077 416 c 1,5,-1
 1176 1108 l 1,6,-1
 1176 1114 l 2,7,8
 1176 1151 1176 1151 1145 1151 c 1,9,-1
 1044 1147 l 1,10,-1
 1055 1223 l 1,11,-1
 1399 1223 l 1,12,-1
 1386 1147 l 1,13,-1
 1309 1151 l 2,14,15
 1291 1151 1291 1151 1278 1139.5 c 128,-1,16
 1265 1128 1265 1128 1264 1110 c 1,17,-1
 1165 416 l 2,18,19
 1135 202 1135 202 1015 91 c 128,-1,20
 895 -20 895 -20 666 -20 c 0,21,22
 176 -20 176 -20 176 328 c 0,23,24
 176 364 176 364 182 408 c 2,25,-1
 283 1108 l 1,26,-1
 283 1112 l 2,27,28
 283 1128 283 1128 273.5 1139.5 c 128,-1,29
 264 1151 264 1151 250 1151 c 2,30,-1
 170 1147 l 1,31,-1
 182 1223 l 1,32,-1
 721 1223 l 1,33,-1
 709 1147 l 1,34,-1
 610 1151 l 1,35,36
 567.157894737 1151 567.157894737 1151 565 1110 c 1,37,-1
 465 408 l 2,38,39
 459 365 459 365 459 326 c 0,0,1
EndSplineSet
Position2: "'cpsp' Capital Spacing lookup 0 per glyph data 2" dx=10 dy=0 dh=20 dv=0
EndChar

StartChar: Uacute
Encoding: 218 218 86
Width: 1339
Flags: MW
HStem: -20 86<643 823> 1151 72<250 260 598 610 1145 1155 1297 1309>
VStem: 176 283<238 338 238 340>
LayerCount: 2
UndoRedoHistory
Layer: 1
Undoes
EndUndoes
Redoes
EndRedoes
EndUndoRedoHistory
Fore
SplineSet
956 1642 m 2,0,1
 960 1646 960 1646 968 1653.5 c 128,-1,2
 976 1661 976 1661 978.5 1663.5 c 128,-1,3
 981 1666 981 1666 987 1671.5 c 128,-1,4
 993 1677 993 1677 995.5 1678.5 c 128,-1,5
 998 1680 998 1680 1002.5 1683.5 c 128,-1,6
 1007 1687 1007 1687 1010 1687.5 c 128,-1,7
 1013 1688 1013 1688 1017.5 1689.5 c 0,8,9
 1025 1692 1025 1692 1048.5 1692 c 128,-1,10
 1072 1692 1072 1692 1117.5 1666 c 128,-1,11
 1163 1640 1163 1640 1163 1618.5 c 128,-1,12
 1163 1597 1163 1597 1133 1581 c 1,13,-1
 766 1370 l 1,14,15
 739 1352 739 1352 716.5 1352 c 128,-1,16
 694 1352 694 1352 694 1370.5 c 128,-1,17
 694 1389 694 1389 735 1427 c 1,18,-1
 956 1642 l 2,0,1
459 326 m 0,19,20
 459 66 459 66 729 66 c 0,21,22
 891 66 891 66 972.5 156 c 128,-1,23
 1054 246 1054 246 1077 416 c 1,24,-1
 1176 1108 l 1,25,-1
 1176 1114 l 2,26,27
 1176 1151 1176 1151 1145 1151 c 1,28,-1
 1044 1147 l 1,29,-1
 1055 1223 l 1,30,-1
 1399 1223 l 1,31,-1
 1386 1147 l 1,32,-1
 1309 1151 l 2,33,34
 1291 1151 1291 1151 1278 1139.5 c 128,-1,35
 1265 1128 1265 1128 1264 1110 c 1,36,-1
 1165 416 l 2,37,38
 1135 202 1135 202 1015 91 c 128,-1,39
 895 -20 895 -20 666 -20 c 0,40,41
 176 -20 176 -20 176 328 c 0,42,43
 176 364 176 364 182 408 c 2,44,-1
 283 1108 l 1,45,-1
 283 1112 l 2,46,47
 283 1128 283 1128 273.5 1139.5 c 128,-1,48
 264 1151 264 1151 250 1151 c 2,49,-1
 170 1147 l 1,50,-1
 182 1223 l 1,51,-1
 721 1223 l 1,52,-1
 709 1147 l 1,53,-1
 610 1151 l 1,54,55
 567.157894737 1151 567.157894737 1151 565 1110 c 1,56,-1
 465 408 l 2,57,58
 459 365 459 365 459 326 c 0,19,20
EndSplineSet
Position2: "'cpsp' Capital Spacing lookup 0 per glyph data 2" dx=10 dy=0 dh=20 dv=0
EndChar

StartChar: Ucircumflex
Encoding: 219 219 87
Width: 1339
Flags: MW
HStem: -20 86<643 823> 1151 72<250 260 598 610 1145 1155 1297 1309> 1524 123<807 856>
VStem: 176 283<238 338 238 340>
LayerCount: 2
UndoRedoHistory
Layer: 1
Undoes
EndUndoes
Redoes
EndRedoes
EndUndoRedoHistory
Fore
SplineSet
614 1389 m 1,0,1
 574 1364 574 1364 548 1364 c 128,-1,2
 522 1364 522 1364 522 1375 c 128,-1,3
 522 1386 522 1386 543 1406 c 128,-1,4
 564 1426 564 1426 612 1468.5 c 128,-1,5
 660 1511 660 1511 698 1548 c 1,6,-1
 807 1647 l 2,7,8
 846 1683 846 1683 881 1683 c 128,-1,9
 916 1683 916 1683 942 1647 c 1,10,-1
 1022 1548 l 1,11,12
 1050 1510 1050 1510 1085 1469.5 c 0,13,14
 1153 1390.81428571 1153 1390.81428571 1153 1382 c 0,15,16
 1153 1364 1153 1364 1124.5 1364 c 128,-1,17
 1096 1364 1096 1364 1061 1389 c 1,18,-1
 856 1524 l 1,19,-1
 614 1389 l 1,0,1
459 326 m 0,20,21
 459 66 459 66 729 66 c 0,22,23
 891 66 891 66 972.5 156 c 128,-1,24
 1054 246 1054 246 1077 416 c 1,25,-1
 1176 1108 l 1,26,-1
 1176 1114 l 2,27,28
 1176 1151 1176 1151 1145 1151 c 1,29,-1
 1044 1147 l 1,30,-1
 1055 1223 l 1,31,-1
 1399 1223 l 1,32,-1
 1386 1147 l 1,33,-1
 1309 1151 l 2,34,35
 1291 1151 1291 1151 1278 1139.5 c 128,-1,36
 1265 1128 1265 1128 1264 1110 c 1,37,-1
 1165 416 l 2,38,39
 1135 202 1135 202 1015 91 c 128,-1,40
 895 -20 895 -20 666 -20 c 0,41,42
 176 -20 176 -20 176 328 c 0,43,44
 176 364 176 364 182 408 c 2,45,-1
 283 1108 l 1,46,-1
 283 1112 l 2,47,48
 283 1128 283 1128 273.5 1139.5 c 128,-1,49
 264 1151 264 1151 250 1151 c 2,50,-1
 170 1147 l 1,51,-1
 182 1223 l 1,52,-1
 721 1223 l 1,53,-1
 709 1147 l 1,54,-1
 610 1151 l 1,55,56
 567.157894737 1151 567.157894737 1151 565 1110 c 1,57,-1
 465 408 l 2,58,59
 459 365 459 365 459 326 c 0,20,21
EndSplineSet
Position2: "'cpsp' Capital Spacing lookup 0 per glyph data 2" dx=10 dy=0 dh=20 dv=0
EndChar

StartChar: Udieresis
Encoding: 220 220 88
Width: 1339
Flags: MW
HStem: -20 86<643 823> 1151 72<250 260 598 610 1145 1155 1297 1309> 1386 256<629 694 1024 1090>
VStem: 176 283<238 338 238 340> 502 319<1487 1540> 897 319<1487 1540>
LayerCount: 2
UndoRedoHistory
Layer: 1
Undoes
EndUndoes
Redoes
EndRedoes
EndUndoRedoHistory
Fore
SplineSet
552.5 1601.5 m 128,-1,1
 603 1642 603 1642 673 1642 c 128,-1,2
 743 1642 743 1642 782 1612.5 c 128,-1,3
 821 1583 821 1583 821 1524 c 128,-1,4
 821 1465 821 1465 771.5 1425.5 c 128,-1,5
 722 1386 722 1386 651 1386 c 128,-1,6
 580 1386 580 1386 541 1416 c 128,-1,7
 502 1446 502 1446 502 1503.5 c 128,-1,0
 502 1561 502 1561 552.5 1601.5 c 128,-1,1
947.5 1601.5 m 128,-1,9
 998 1642 998 1642 1068 1642 c 128,-1,10
 1138 1642 1138 1642 1177.5 1612.5 c 128,-1,11
 1217 1583 1217 1583 1217 1524 c 128,-1,12
 1217 1465 1217 1465 1167 1425.5 c 128,-1,13
 1117 1386 1117 1386 1046 1386 c 128,-1,14
 975 1386 975 1386 936 1416 c 128,-1,15
 897 1446 897 1446 897 1503.5 c 128,-1,8
 897 1561 897 1561 947.5 1601.5 c 128,-1,9
459 326 m 0,16,17
 459 66 459 66 729 66 c 0,18,19
 891 66 891 66 972.5 156 c 128,-1,20
 1054 246 1054 246 1077 416 c 1,21,-1
 1176 1108 l 1,22,-1
 1176 1114 l 2,23,24
 1176 1151 1176 1151 1145 1151 c 1,25,-1
 1044 1147 l 1,26,-1
 1055 1223 l 1,27,-1
 1399 1223 l 1,28,-1
 1386 1147 l 1,29,-1
 1309 1151 l 2,30,31
 1291 1151 1291 1151 1278 1139.5 c 128,-1,32
 1265 1128 1265 1128 1264 1110 c 1,33,-1
 1165 416 l 2,34,35
 1135 202 1135 202 1015 91 c 128,-1,36
 895 -20 895 -20 666 -20 c 0,37,38
 176 -20 176 -20 176 328 c 0,39,40
 176 364 176 364 182 408 c 2,41,-1
 283 1108 l 1,42,-1
 283 1112 l 2,43,44
 283 1128 283 1128 273.5 1139.5 c 128,-1,45
 264 1151 264 1151 250 1151 c 2,46,-1
 170 1147 l 1,47,-1
 182 1223 l 1,48,-1
 721 1223 l 1,49,-1
 709 1147 l 1,50,-1
 610 1151 l 1,51,52
 567.157894737 1151 567.157894737 1151 565 1110 c 1,53,-1
 465 408 l 2,54,55
 459 365 459 365 459 326 c 0,16,17
EndSplineSet
Position2: "'cpsp' Capital Spacing lookup 0 per glyph data 2" dx=10 dy=0 dh=20 dv=0
EndChar

StartChar: Ugrave
Encoding: 217 217 89
Width: 1339
Flags: MW
HStem: -20 86<643 823> 1151 72<250 260 598 610 1145 1155 1297 1309>
VStem: 176 283<238 338 238 340>
LayerCount: 2
UndoRedoHistory
Layer: 1
Undoes
EndUndoes
Redoes
EndRedoes
EndUndoRedoHistory
Fore
SplineSet
600 1581 m 2,0,1
 580 1595 580 1595 580 1616 c 1,2,3
 583 1637 583 1637 637.5 1664.5 c 128,-1,4
 692 1692 692 1692 713.5 1692 c 128,-1,5
 735 1692 735 1692 739.5 1691 c 128,-1,6
 744 1690 744 1690 747.5 1689.5 c 128,-1,7
 751 1689 751 1689 755 1686 c 128,-1,8
 759 1683 759 1683 761.5 1681.5 c 128,-1,9
 764 1680 764 1680 768.5 1674.5 c 128,-1,10
 773 1669 773 1669 775 1666.5 c 128,-1,11
 777 1664 777 1664 783.5 1655 c 128,-1,12
 790 1646 790 1646 793 1642 c 2,13,-1
 961 1425 l 1,14,15
 1008.35135135 1352 1008.35135135 1352 954 1352 c 0,16,17
 934 1352 934 1352 907 1370 c 2,18,-1
 600 1581 l 2,0,1
459 326 m 0,19,20
 459 66 459 66 729 66 c 0,21,22
 891 66 891 66 972.5 156 c 128,-1,23
 1054 246 1054 246 1077 416 c 1,24,-1
 1176 1108 l 1,25,-1
 1176 1114 l 2,26,27
 1176 1151 1176 1151 1145 1151 c 1,28,-1
 1044 1147 l 1,29,-1
 1055 1223 l 1,30,-1
 1399 1223 l 1,31,-1
 1386 1147 l 1,32,-1
 1309 1151 l 2,33,34
 1291 1151 1291 1151 1278 1139.5 c 128,-1,35
 1265 1128 1265 1128 1264 1110 c 1,36,-1
 1165 416 l 2,37,38
 1135 202 1135 202 1015 91 c 128,-1,39
 895 -20 895 -20 666 -20 c 0,40,41
 176 -20 176 -20 176 328 c 0,42,43
 176 364 176 364 182 408 c 2,44,-1
 283 1108 l 1,45,-1
 283 1112 l 2,46,47
 283 1128 283 1128 273.5 1139.5 c 128,-1,48
 264 1151 264 1151 250 1151 c 2,49,-1
 170 1147 l 1,50,-1
 182 1223 l 1,51,-1
 721 1223 l 1,52,-1
 709 1147 l 1,53,-1
 610 1151 l 1,54,55
 567.157894737 1151 567.157894737 1151 565 1110 c 1,56,-1
 465 408 l 2,57,58
 459 365 459 365 459 326 c 0,19,20
EndSplineSet
Position2: "'cpsp' Capital Spacing lookup 0 per glyph data 2" dx=10 dy=0 dh=20 dv=0
EndChar

StartChar: Uhungarumlaut
Encoding: 368 368 90
Width: 1339
Flags: MW
HStem: -20 86<643 823> 1151 72<250 260 598 610 1145 1155 1297 1309>
VStem: 176 283<238 338 238 340>
LayerCount: 2
UndoRedoHistory
Layer: 1
Undoes
EndUndoes
Redoes
EndRedoes
EndUndoRedoHistory
Fore
SplineSet
602 1403 m 1,0,1
 764 1647 764 1647 782 1669.5 c 128,-1,2
 800 1692 800 1692 824.5 1692 c 128,-1,3
 849 1692 849 1692 897.5 1674 c 128,-1,4
 946 1656 946 1656 946 1636 c 0,5,6
 946 1626 946 1626 930 1610 c 1,7,8
 868 1554 868 1554 666 1386 c 0,9,10
 636 1362 636 1362 614 1362 c 128,-1,11
 592 1362 592 1362 592 1376 c 128,-1,12
 592 1390 592 1390 602 1403 c 1,0,1
858 1403 m 0,13,14
 1041 1672 1041 1672 1050 1682 c 128,-1,15
 1059 1692 1059 1692 1083.5 1692 c 128,-1,16
 1108 1692 1108 1692 1155 1674.5 c 128,-1,17
 1202 1657 1202 1657 1202 1636 c 0,18,19
 1202 1626 1202 1626 1180.5 1604.5 c 128,-1,20
 1159 1583 1159 1583 922 1386 c 0,21,22
 892 1362 892 1362 870 1362 c 128,-1,23
 848 1362 848 1362 848 1376 c 128,-1,24
 848 1390 848 1390 858 1403 c 0,13,14
459 326 m 0,25,26
 459 66 459 66 729 66 c 0,27,28
 891 66 891 66 972.5 156 c 128,-1,29
 1054 246 1054 246 1077 416 c 1,30,-1
 1176 1108 l 1,31,-1
 1176 1114 l 2,32,33
 1176 1151 1176 1151 1145 1151 c 1,34,-1
 1044 1147 l 1,35,-1
 1055 1223 l 1,36,-1
 1399 1223 l 1,37,-1
 1386 1147 l 1,38,-1
 1309 1151 l 2,39,40
 1291 1151 1291 1151 1278 1139.5 c 128,-1,41
 1265 1128 1265 1128 1264 1110 c 1,42,-1
 1165 416 l 2,43,44
 1135 202 1135 202 1015 91 c 128,-1,45
 895 -20 895 -20 666 -20 c 0,46,47
 176 -20 176 -20 176 328 c 0,48,49
 176 364 176 364 182 408 c 2,50,-1
 283 1108 l 1,51,-1
 283 1112 l 2,52,53
 283 1128 283 1128 273.5 1139.5 c 128,-1,54
 264 1151 264 1151 250 1151 c 2,55,-1
 170 1147 l 1,56,-1
 182 1223 l 1,57,-1
 721 1223 l 1,58,-1
 709 1147 l 1,59,-1
 610 1151 l 1,60,61
 567.157894737 1151 567.157894737 1151 565 1110 c 1,62,-1
 465 408 l 2,63,64
 459 365 459 365 459 326 c 0,25,26
EndSplineSet
EndChar

StartChar: Umacron
Encoding: 362 362 91
Width: 1339
Flags: MW
HStem: -20 86<643 823> 1151 72<250 260 598 610 1145 1155 1297 1309> 1386 96<604 1081 590 1096>
VStem: 176 283<238 338 238 340>
LayerCount: 2
UndoRedoHistory
Layer: 1
Undoes
EndUndoes
Redoes
EndRedoes
EndUndoRedoHistory
Fore
SplineSet
1081 1386 m 1,0,-1
 590 1386 l 1,1,-1
 604 1483 l 1,2,-1
 1096 1483 l 1,3,-1
 1081 1386 l 1,0,-1
459 326 m 0,4,5
 459 66 459 66 729 66 c 0,6,7
 891 66 891 66 972.5 156 c 128,-1,8
 1054 246 1054 246 1077 416 c 1,9,-1
 1176 1108 l 1,10,-1
 1176 1114 l 2,11,12
 1176 1151 1176 1151 1145 1151 c 1,13,-1
 1044 1147 l 1,14,-1
 1055 1223 l 1,15,-1
 1399 1223 l 1,16,-1
 1386 1147 l 1,17,-1
 1309 1151 l 2,18,19
 1291 1151 1291 1151 1278 1139.5 c 128,-1,20
 1265 1128 1265 1128 1264 1110 c 1,21,-1
 1165 416 l 2,22,23
 1135 202 1135 202 1015 91 c 128,-1,24
 895 -20 895 -20 666 -20 c 0,25,26
 176 -20 176 -20 176 328 c 0,27,28
 176 364 176 364 182 408 c 2,29,-1
 283 1108 l 1,30,-1
 283 1112 l 2,31,32
 283 1128 283 1128 273.5 1139.5 c 128,-1,33
 264 1151 264 1151 250 1151 c 2,34,-1
 170 1147 l 1,35,-1
 182 1223 l 1,36,-1
 721 1223 l 1,37,-1
 709 1147 l 1,38,-1
 610 1151 l 1,39,40
 567.157894737 1151 567.157894737 1151 565 1110 c 1,41,-1
 465 408 l 2,42,43
 459 365 459 365 459 326 c 0,4,5
EndSplineSet
EndChar

StartChar: Uogonek
Encoding: 370 370 92
Width: 1339
Flags: MW
HStem: -326 119<773 925> -20 86<643 684> 1151 72<250 260 598 610 1145 1155 1297 1309>
VStem: 176 283<238 338 238 340> 664 147<-240 -95>
LayerCount: 2
UndoRedoHistory
Layer: 1
Undoes
EndUndoes
Redoes
EndRedoes
EndUndoRedoHistory
Fore
SplineSet
459 326 m 0,0,1
 459 66 459 66 729 66 c 0,2,3
 891 66 891 66 972.5 156 c 128,-1,4
 1054 246 1054 246 1077 416 c 1,5,-1
 1176 1108 l 1,6,-1
 1176 1114 l 2,7,8
 1176 1151 1176 1151 1145 1151 c 1,9,-1
 1044 1147 l 1,10,-1
 1055 1223 l 1,11,-1
 1399 1223 l 1,12,-1
 1386 1147 l 1,13,-1
 1309 1151 l 2,14,15
 1291 1151 1291 1151 1278 1139.5 c 128,-1,16
 1265 1128 1265 1128 1264 1110 c 1,17,-1
 1165 416 l 2,18,19
 1123 117 1123 117 907 23 c 1,20,21
 863 -2 863 -2 837 -41.5 c 128,-1,22
 811 -81 811 -81 811 -121 c 0,23,24
 811 -207 811 -207 901 -207 c 0,25,26
 971 -207 971 -207 1047 -162 c 1,27,-1
 1067 -203 l 1,28,29
 944 -326 944 -326 811 -326 c 0,30,31
 750 -326 750 -326 707 -292 c 128,-1,32
 664 -258 664 -258 664 -197 c 0,33,34
 664 -90 664 -90 772 -14 c 1,35,36
 722 -20 722 -20 666 -20 c 0,37,38
 176 -20 176 -20 176 328 c 0,39,40
 176 364 176 364 182 408 c 2,41,-1
 283 1108 l 1,42,-1
 283 1112 l 2,43,44
 283 1128 283 1128 273.5 1139.5 c 128,-1,45
 264 1151 264 1151 250 1151 c 2,46,-1
 170 1147 l 1,47,-1
 182 1223 l 1,48,-1
 721 1223 l 1,49,-1
 709 1147 l 1,50,-1
 610 1151 l 1,51,52
 567.157894737 1151 567.157894737 1151 565 1110 c 1,53,-1
 465 408 l 2,54,55
 459 365 459 365 459 326 c 0,0,1
EndSplineSet
EndChar

StartChar: Uring
Encoding: 366 366 93
Width: 1339
Flags: MW
HStem: -20 86<643 823> 1151 72<250 260 598 610 1145 1155 1297 1309> 1362 84<828 873 828 893> 1616 86<846 892>
VStem: 176 283<238 338 238 340> 682 102<1496 1546 1496 1564> 936 104<1516 1566>
LayerCount: 2
UndoRedoHistory
Layer: 1
Undoes
EndUndoes
Redoes
EndRedoes
EndUndoRedoHistory
Fore
SplineSet
724 1402.5 m 128,-1,1
 682 1443 682 1443 682 1516.5 c 128,-1,2
 682 1590 682 1590 741 1646 c 128,-1,3
 800 1702 800 1702 877 1702 c 128,-1,4
 954 1702 954 1702 997 1660.5 c 128,-1,5
 1040 1619 1040 1619 1040 1544.5 c 128,-1,6
 1040 1470 1040 1470 981.5 1416 c 128,-1,7
 923 1362 923 1362 844.5 1362 c 128,-1,0
 766 1362 766 1362 724 1402.5 c 128,-1,1
936 1544 m 0,8,9
 936 1616 936 1616 870 1616 c 0,10,11
 833 1616 833 1616 808.5 1588.5 c 128,-1,12
 784 1561 784 1561 784 1523.5 c 128,-1,13
 784 1486 784 1486 801.5 1466 c 128,-1,14
 819 1446 819 1446 852.5 1446 c 128,-1,15
 886 1446 886 1446 911 1473.5 c 128,-1,16
 936 1501 936 1501 936 1544 c 0,8,9
459 326 m 0,17,18
 459 66 459 66 729 66 c 0,19,20
 891 66 891 66 972.5 156 c 128,-1,21
 1054 246 1054 246 1077 416 c 1,22,-1
 1176 1108 l 1,23,-1
 1176 1114 l 2,24,25
 1176 1151 1176 1151 1145 1151 c 1,26,-1
 1044 1147 l 1,27,-1
 1055 1223 l 1,28,-1
 1399 1223 l 1,29,-1
 1386 1147 l 1,30,-1
 1309 1151 l 2,31,32
 1291 1151 1291 1151 1278 1139.5 c 128,-1,33
 1265 1128 1265 1128 1264 1110 c 1,34,-1
 1165 416 l 2,35,36
 1135 202 1135 202 1015 91 c 128,-1,37
 895 -20 895 -20 666 -20 c 0,38,39
 176 -20 176 -20 176 328 c 0,40,41
 176 364 176 364 182 408 c 2,42,-1
 283 1108 l 1,43,-1
 283 1112 l 2,44,45
 283 1128 283 1128 273.5 1139.5 c 128,-1,46
 264 1151 264 1151 250 1151 c 2,47,-1
 170 1147 l 1,48,-1
 182 1223 l 1,49,-1
 721 1223 l 1,50,-1
 709 1147 l 1,51,-1
 610 1151 l 1,52,53
 567.157894737 1151 567.157894737 1151 565 1110 c 1,54,-1
 465 408 l 2,55,56
 459 365 459 365 459 326 c 0,17,18
EndSplineSet
EndChar

StartChar: V
Encoding: 86 86 94
Width: 1232
Flags: MW
HStem: 1151 72<154 163 506 516 1145 1152 1291 1303>
VStem: 96 1290<1147 1223>
LayerCount: 2
UndoRedoHistory
Layer: 1
Undoes
EndUndoes
Redoes
EndRedoes
EndUndoRedoHistory
Fore
SplineSet
1386 1223 m 1,0,-1
 1374 1147 l 1,1,-1
 1303 1151 l 2,2,3
 1287 1151 1287 1151 1278 1141 c 128,-1,4
 1269 1131 1269 1131 1253 1104 c 2,5,-1
 623 -8 l 1,6,-1
 514 -8 l 1,7,-1
 193 1104 l 1,8,9
 178 1151 178 1151 154 1151 c 1,10,-1
 96 1147 l 1,11,-1
 106 1223 l 1,12,-1
 627 1223 l 1,13,-1
 616 1147 l 1,14,-1
 516 1151 l 2,15,16
 502 1151 502 1151 494 1135.5 c 128,-1,17
 486 1120 486 1120 489 1102 c 1,18,-1
 717 326 l 1,19,-1
 1147 1085 l 1,20,21
 1167 1123 1167 1123 1167 1137 c 0,22,23
 1167 1151 1167 1151 1145 1151 c 2,24,-1
 1044 1147 l 1,25,-1
 1057 1223 l 1,26,-1
 1386 1223 l 1,0,-1
EndSplineSet
Position2: "'cpsp' Capital Spacing lookup 0 per glyph data 2" dx=10 dy=0 dh=20 dv=0
EndChar

StartChar: W
Encoding: 87 87 95
Width: 1851
Flags: MW
HStem: 1151 72<158 166 499 510 936 949 1257 1268 1772 1780 1918 1931>
VStem: 94 1909<1147 1223>
LayerCount: 2
UndoRedoHistory
Layer: 1
Undoes
EndUndoes
Redoes
EndRedoes
EndUndoRedoHistory
Fore
SplineSet
2003 1223 m 1,0,-1
 1991 1147 l 1,1,-1
 1931 1151 l 1,2,3
 1894.8125 1151 1894.8125 1151 1876 1108 c 1,4,-1
 1341 -20 l 1,5,-1
 1247 -20 l 1,6,-1
 1010 956 l 1,7,-1
 547 -20 l 1,8,-1
 444 -20 l 1,9,-1
 190 1106 l 1,10,11
 184 1151 184 1151 158 1151 c 1,12,-1
 94 1147 l 1,13,-1
 104 1223 l 1,14,-1
 625 1223 l 1,15,-1
 614 1147 l 1,16,-1
 510 1151 l 1,17,18
 481 1151 481 1151 481 1124 c 0,19,20
 481 1112 481 1112 483 1106 c 2,21,-1
 645 375 l 1,22,-1
 981 1077 l 1,23,24
 968.428571429 1130.42857143 968.428571429 1130.42857143 958.714285714 1140.71428571 c 128,-1,25
 949 1151 949 1151 936 1151 c 2,26,-1
 850 1147 l 1,27,-1
 860 1223 l 1,28,-1
 1364 1223 l 1,29,-1
 1354 1147 l 1,30,-1
 1268 1151 l 2,31,32
 1254 1151 1254 1151 1246 1136 c 128,-1,33
 1238 1121 1238 1121 1241 1106 c 2,34,-1
 1417 326 l 1,35,-1
 1788 1110 l 1,36,37
 1792 1126 1792 1126 1792 1130 c 0,38,39
 1792 1151 1792 1151 1772 1151 c 2,40,-1
 1663 1147 l 1,41,-1
 1677 1223 l 1,42,-1
 2003 1223 l 1,0,-1
EndSplineSet
Position2: "'cpsp' Capital Spacing lookup 0 per glyph data 2" dx=10 dy=0 dh=20 dv=0
EndChar

StartChar: Wacute
Encoding: 7810 7810 96
Width: 1851
Flags: MW
HStem: 1151 72<158 166 499 510 936 949 1257 1268 1772 1780 1918 1931>
VStem: 94 1909<1147 1223>
LayerCount: 2
UndoRedoHistory
Layer: 1
Undoes
EndUndoes
Redoes
EndRedoes
EndUndoRedoHistory
Fore
SplineSet
1235 1642 m 2,0,1
 1239 1646 1239 1646 1247 1653.5 c 128,-1,2
 1255 1661 1255 1661 1257.5 1663.5 c 128,-1,3
 1260 1666 1260 1666 1266 1671.5 c 128,-1,4
 1272 1677 1272 1677 1274.5 1678.5 c 128,-1,5
 1277 1680 1277 1680 1281.5 1683.5 c 128,-1,6
 1286 1687 1286 1687 1289 1687.5 c 128,-1,7
 1292 1688 1292 1688 1296.5 1689.5 c 0,8,9
 1304 1692 1304 1692 1327.5 1692 c 128,-1,10
 1351 1692 1351 1692 1396.5 1666 c 128,-1,11
 1442 1640 1442 1640 1442 1618.5 c 128,-1,12
 1442 1597 1442 1597 1411 1581 c 1,13,-1
 1044 1370 l 1,14,15
 1017 1352 1017 1352 995 1352 c 128,-1,16
 973 1352 973 1352 973 1370.5 c 128,-1,17
 973 1389 973 1389 1014 1427 c 1,18,-1
 1235 1642 l 2,0,1
1991 1147 m 1,19,-1
 1931 1151 l 1,20,21
 1894.8125 1151 1894.8125 1151 1876 1108 c 1,22,-1
 1341 -20 l 1,23,-1
 1247 -20 l 1,24,-1
 1010 956 l 1,25,-1
 547 -20 l 1,26,-1
 444 -20 l 1,27,-1
 190 1106 l 1,28,29
 184 1151 184 1151 158 1151 c 1,30,-1
 94 1147 l 1,31,-1
 104 1223 l 1,32,-1
 625 1223 l 1,33,-1
 614 1147 l 1,34,-1
 510 1151 l 1,35,36
 481 1151 481 1151 481 1124 c 0,37,38
 481 1112 481 1112 483 1106 c 2,39,-1
 645 375 l 1,40,-1
 981 1077 l 1,41,42
 968.428571429 1130.42857143 968.428571429 1130.42857143 958.714285714 1140.71428571 c 128,-1,43
 949 1151 949 1151 936 1151 c 2,44,-1
 850 1147 l 1,45,-1
 860 1223 l 1,46,-1
 1364 1223 l 1,47,-1
 1354 1147 l 1,48,-1
 1268 1151 l 2,49,50
 1254 1151 1254 1151 1246 1136 c 128,-1,51
 1238 1121 1238 1121 1241 1106 c 2,52,-1
 1417 326 l 1,53,-1
 1788 1110 l 1,54,55
 1792 1126 1792 1126 1792 1130 c 0,56,57
 1792 1151 1792 1151 1772 1151 c 2,58,-1
 1663 1147 l 1,59,-1
 1677 1223 l 1,60,-1
 2003 1223 l 1,61,-1
 1991 1147 l 1,19,-1
EndSplineSet
Position2: "'cpsp' Capital Spacing lookup 0 per glyph data 2" dx=10 dy=0 dh=20 dv=0
EndChar

StartChar: Wcircumflex
Encoding: 372 372 97
Width: 1851
Flags: MW
HStem: 1151 72<158 166 499 510 936 949 1257 1268 1772 1780 1918 1931> 1524 123<1087 1137>
VStem: 94 1909<1147 1223>
LayerCount: 2
UndoRedoHistory
Layer: 1
Undoes
EndUndoes
Redoes
EndRedoes
EndUndoRedoHistory
Fore
SplineSet
895 1389 m 1,0,1
 855 1364 855 1364 829 1364 c 128,-1,2
 803 1364 803 1364 803 1375 c 128,-1,3
 803 1386 803 1386 824 1406 c 128,-1,4
 845 1426 845 1426 893 1468.5 c 128,-1,5
 941 1511 941 1511 979 1548 c 1,6,-1
 1087 1647 l 2,7,8
 1126 1683 1126 1683 1161.5 1683 c 128,-1,9
 1197 1683 1197 1683 1223 1647 c 1,10,-1
 1303 1548 l 1,11,12
 1331 1510 1331 1510 1366 1469.5 c 0,13,14
 1434 1390.81428571 1434 1390.81428571 1434 1382 c 0,15,16
 1434 1364 1434 1364 1405 1364 c 128,-1,17
 1376 1364 1376 1364 1341 1389 c 1,18,-1
 1137 1524 l 1,19,-1
 895 1389 l 1,0,1
1991 1147 m 1,20,-1
 1931 1151 l 1,21,22
 1894.8125 1151 1894.8125 1151 1876 1108 c 1,23,-1
 1341 -20 l 1,24,-1
 1247 -20 l 1,25,-1
 1010 956 l 1,26,-1
 547 -20 l 1,27,-1
 444 -20 l 1,28,-1
 190 1106 l 1,29,30
 184 1151 184 1151 158 1151 c 1,31,-1
 94 1147 l 1,32,-1
 104 1223 l 1,33,-1
 625 1223 l 1,34,-1
 614 1147 l 1,35,-1
 510 1151 l 1,36,37
 481 1151 481 1151 481 1124 c 0,38,39
 481 1112 481 1112 483 1106 c 2,40,-1
 645 375 l 1,41,-1
 981 1077 l 1,42,43
 968.428571429 1130.42857143 968.428571429 1130.42857143 958.714285714 1140.71428571 c 128,-1,44
 949 1151 949 1151 936 1151 c 2,45,-1
 850 1147 l 1,46,-1
 860 1223 l 1,47,-1
 1364 1223 l 1,48,-1
 1354 1147 l 1,49,-1
 1268 1151 l 2,50,51
 1254 1151 1254 1151 1246 1136 c 128,-1,52
 1238 1121 1238 1121 1241 1106 c 2,53,-1
 1417 326 l 1,54,-1
 1788 1110 l 1,55,56
 1792 1126 1792 1126 1792 1130 c 0,57,58
 1792 1151 1792 1151 1772 1151 c 2,59,-1
 1663 1147 l 1,60,-1
 1677 1223 l 1,61,-1
 2003 1223 l 1,62,-1
 1991 1147 l 1,20,-1
EndSplineSet
Position2: "'cpsp' Capital Spacing lookup 0 per glyph data 2" dx=10 dy=0 dh=20 dv=0
EndChar

StartChar: Wdieresis
Encoding: 7812 7812 98
Width: 1851
Flags: MW
HStem: 1151 72<158 166 499 510 936 949 1257 1268 1772 1780 1918 1931> 1386 256<909 975 1305 1370>
VStem: 782 319<1487 1540> 1178 319<1487 1540>
LayerCount: 2
UndoRedoHistory
Layer: 1
Undoes
EndUndoes
Redoes
EndRedoes
EndUndoRedoHistory
Fore
SplineSet
832.5 1601.5 m 128,-1,1
 883 1642 883 1642 953 1642 c 128,-1,2
 1023 1642 1023 1642 1062.5 1612.5 c 128,-1,3
 1102 1583 1102 1583 1102 1524 c 128,-1,4
 1102 1465 1102 1465 1052.5 1425.5 c 128,-1,5
 1003 1386 1003 1386 932 1386 c 128,-1,6
 861 1386 861 1386 821.5 1416 c 128,-1,7
 782 1446 782 1446 782 1503.5 c 128,-1,0
 782 1561 782 1561 832.5 1601.5 c 128,-1,1
1228.5 1601.5 m 128,-1,9
 1279 1642 1279 1642 1349 1642 c 128,-1,10
 1419 1642 1419 1642 1458 1612.5 c 128,-1,11
 1497 1583 1497 1583 1497 1524 c 128,-1,12
 1497 1465 1497 1465 1447.5 1425.5 c 128,-1,13
 1398 1386 1398 1386 1327 1386 c 128,-1,14
 1256 1386 1256 1386 1217 1416 c 128,-1,15
 1178 1446 1178 1446 1178 1503.5 c 128,-1,8
 1178 1561 1178 1561 1228.5 1601.5 c 128,-1,9
1991 1147 m 1,16,-1
 1931 1151 l 1,17,18
 1894.8125 1151 1894.8125 1151 1876 1108 c 1,19,-1
 1341 -20 l 1,20,-1
 1247 -20 l 1,21,-1
 1010 956 l 1,22,-1
 547 -20 l 1,23,-1
 444 -20 l 1,24,-1
 190 1106 l 1,25,26
 184 1151 184 1151 158 1151 c 1,27,-1
 94 1147 l 1,28,-1
 104 1223 l 1,29,-1
 625 1223 l 1,30,-1
 614 1147 l 1,31,-1
 510 1151 l 1,32,33
 481 1151 481 1151 481 1124 c 0,34,35
 481 1112 481 1112 483 1106 c 2,36,-1
 645 375 l 1,37,-1
 981 1077 l 1,38,39
 968.428571429 1130.42857143 968.428571429 1130.42857143 958.714285714 1140.71428571 c 128,-1,40
 949 1151 949 1151 936 1151 c 2,41,-1
 850 1147 l 1,42,-1
 860 1223 l 1,43,-1
 1364 1223 l 1,44,-1
 1354 1147 l 1,45,-1
 1268 1151 l 2,46,47
 1254 1151 1254 1151 1246 1136 c 128,-1,48
 1238 1121 1238 1121 1241 1106 c 2,49,-1
 1417 326 l 1,50,-1
 1788 1110 l 1,51,52
 1792 1126 1792 1126 1792 1130 c 0,53,54
 1792 1151 1792 1151 1772 1151 c 2,55,-1
 1663 1147 l 1,56,-1
 1677 1223 l 1,57,-1
 2003 1223 l 1,58,-1
 1991 1147 l 1,16,-1
EndSplineSet
Position2: "'cpsp' Capital Spacing lookup 0 per glyph data 2" dx=10 dy=0 dh=20 dv=0
EndChar

StartChar: Wgrave
Encoding: 7808 7808 99
Width: 1851
Flags: MW
HStem: 1151 72<158 166 499 510 936 949 1257 1268 1772 1780 1918 1931>
VStem: 94 1909<1147 1223>
LayerCount: 2
UndoRedoHistory
Layer: 1
Undoes
EndUndoes
Redoes
EndRedoes
EndUndoRedoHistory
Fore
SplineSet
879 1581 m 2,0,1
 858 1596 858 1596 858 1616 c 1,2,3
 861 1637 861 1637 916 1664.5 c 128,-1,4
 971 1692 971 1692 993 1692 c 128,-1,5
 1015 1692 1015 1692 1019.5 1691.5 c 128,-1,6
 1024 1691 1024 1691 1029 1688.5 c 128,-1,7
 1034 1686 1034 1686 1036.5 1684.5 c 128,-1,8
 1039 1683 1039 1683 1044 1677.5 c 128,-1,9
 1049 1672 1049 1672 1051 1669 c 0,10,11
 1059 1657 1059 1657 1071 1642 c 2,12,-1
 1239 1425 l 1,13,14
 1285.79487179 1352 1285.79487179 1352 1233 1352 c 0,15,16
 1213 1352 1213 1352 1186 1370 c 2,17,-1
 879 1581 l 2,0,1
1991 1147 m 1,18,-1
 1931 1151 l 1,19,20
 1894.8125 1151 1894.8125 1151 1876 1108 c 1,21,-1
 1341 -20 l 1,22,-1
 1247 -20 l 1,23,-1
 1010 956 l 1,24,-1
 547 -20 l 1,25,-1
 444 -20 l 1,26,-1
 190 1106 l 1,27,28
 184 1151 184 1151 158 1151 c 1,29,-1
 94 1147 l 1,30,-1
 104 1223 l 1,31,-1
 625 1223 l 1,32,-1
 614 1147 l 1,33,-1
 510 1151 l 1,34,35
 481 1151 481 1151 481 1124 c 0,36,37
 481 1112 481 1112 483 1106 c 2,38,-1
 645 375 l 1,39,-1
 981 1077 l 1,40,41
 968.428571429 1130.42857143 968.428571429 1130.42857143 958.714285714 1140.71428571 c 128,-1,42
 949 1151 949 1151 936 1151 c 2,43,-1
 850 1147 l 1,44,-1
 860 1223 l 1,45,-1
 1364 1223 l 1,46,-1
 1354 1147 l 1,47,-1
 1268 1151 l 2,48,49
 1254 1151 1254 1151 1246 1136 c 128,-1,50
 1238 1121 1238 1121 1241 1106 c 2,51,-1
 1417 326 l 1,52,-1
 1788 1110 l 1,53,54
 1792 1126 1792 1126 1792 1130 c 0,55,56
 1792 1151 1792 1151 1772 1151 c 2,57,-1
 1663 1147 l 1,58,-1
 1677 1223 l 1,59,-1
 2003 1223 l 1,60,-1
 1991 1147 l 1,18,-1
EndSplineSet
Position2: "'cpsp' Capital Spacing lookup 0 per glyph data 2" dx=10 dy=0 dh=20 dv=0
EndChar

StartChar: X
Encoding: 88 88 100
Width: 1189
Flags: MW
HStem: 0 70<692 696 696 709> 1151 72<217 228 611 629 999 1007 1160 1171>
VStem: -23 1276<0 1223>
LayerCount: 2
UndoRedoHistory
Layer: 1
Undoes
EndUndoes
Redoes
EndRedoes
EndUndoRedoHistory
Fore
SplineSet
1253 1223 m 1,0,-1
 1241 1147 l 1,1,-1
 1171 1151 l 1,2,3
 1134 1151 1134 1151 1104 1110 c 1,4,-1
 774 678 l 1,5,-1
 1034 104 l 2,6,7
 1051 65 1051 65 1090 70 c 1,8,-1
 1155 76 l 1,9,-1
 1145 0 l 1,10,-1
 582 0 l 1,11,-1
 592 76 l 1,12,-1
 692 70 l 1,13,-1
 696 70 l 2,14,15
 714 70 714 70 717.5 84 c 128,-1,16
 721 98 721 98 711 117 c 1,17,-1
 535 512 l 1,18,-1
 229 113 l 1,19,20
 219 96 219 96 219 88 c 0,21,22
 219 72 219 72 236 72 c 1,23,-1
 330 78 l 1,24,-1
 317 0 l 1,25,-1
 -23 0 l 1,26,-1
 -10 78 l 1,27,-1
 61 74 l 1,28,29
 104 74 104 74 137 119 c 1,30,-1
 504 600 l 1,31,-1
 274 1112 l 1,32,33
 259 1151 259 1151 217 1151 c 1,34,-1
 166 1147 l 1,35,-1
 176 1223 l 1,36,-1
 725 1223 l 1,37,-1
 715 1147 l 1,38,-1
 629 1151 l 1,39,40
 605 1151 605 1151 596 1136.5 c 128,-1,41
 587 1122 587 1122 596 1108 c 1,42,-1
 741 766 l 1,43,-1
 1008 1110 l 2,44,45
 1020 1125 1020 1125 1020 1138 c 0,46,47
 1020 1151 1020 1151 999 1151 c 2,48,-1
 909 1147 l 1,49,-1
 920 1223 l 1,50,-1
 1253 1223 l 1,0,-1
EndSplineSet
Position2: "'cpsp' Capital Spacing lookup 0 per glyph data 2" dx=10 dy=0 dh=20 dv=0
EndChar

StartChar: Y
Encoding: 89 89 101
Width: 1136
Flags: MW
HStem: 0 72<365 378 712 725> 1151 72<158 167 531 541 1038 1044 1186 1196>
VStem: 98 1169<1147 1223>
LayerCount: 2
UndoRedoHistory
Layer: 1
Undoes
EndUndoes
Redoes
EndRedoes
EndUndoRedoHistory
Fore
SplineSet
1268 1223 m 1,0,-1
 1255 1147 l 1,1,-1
 1196 1151 l 1,2,3
 1164 1151 1164 1151 1135 1108 c 2,4,-1
 754 561 l 1,5,-1
 690 115 l 1,6,-1
 690 104 l 2,7,8
 690 72 690 72 725 72 c 1,9,-1
 823 76 l 1,10,-1
 813 0 l 1,11,-1
 254 0 l 1,12,-1
 264 76 l 1,13,-1
 365 72 l 1,14,15
 404 72 404 72 410 117 c 2,16,-1
 467 524 l 1,17,-1
 199 1112 l 2,18,19
 182 1151 182 1151 158 1151 c 1,20,-1
 98 1147 l 1,21,-1
 111 1223 l 1,22,-1
 659 1223 l 1,23,-1
 649 1147 l 1,24,-1
 541 1151 l 2,25,26
 516 1151 516 1151 516 1124 c 0,27,28
 516 1114 516 1114 520 1102 c 1,29,-1
 725 651 l 1,30,-1
 1047 1110 l 2,31,32
 1055 1122 1055 1122 1055 1136.5 c 0,33,34
 1055 1151 1055 1151 1038 1151 c 2,35,-1
 932 1147 l 1,36,-1
 942 1223 l 1,37,-1
 1268 1223 l 1,0,-1
EndSplineSet
Position2: "'cpsp' Capital Spacing lookup 0 per glyph data 2" dx=10 dy=0 dh=20 dv=0
EndChar

StartChar: Yacute
Encoding: 221 221 102
Width: 1136
Flags: MW
HStem: 0 72<365 378 712 725> 1151 72<158 167 531 541 1038 1044 1186 1196>
VStem: 98 1169<1147 1223>
LayerCount: 2
UndoRedoHistory
Layer: 1
Undoes
EndUndoes
Redoes
EndRedoes
EndUndoRedoHistory
Fore
SplineSet
862 1642 m 2,0,1
 866 1646 866 1646 874 1653.5 c 128,-1,2
 882 1661 882 1661 884.5 1663.5 c 128,-1,3
 887 1666 887 1666 893 1671.5 c 128,-1,4
 899 1677 899 1677 901.5 1678.5 c 128,-1,5
 904 1680 904 1680 908.5 1683.5 c 128,-1,6
 913 1687 913 1687 916 1687.5 c 128,-1,7
 919 1688 919 1688 923.5 1689.5 c 0,8,9
 931 1692 931 1692 954.5 1692 c 128,-1,10
 978 1692 978 1692 1023.5 1666 c 128,-1,11
 1069 1640 1069 1640 1069 1618.5 c 128,-1,12
 1069 1597 1069 1597 1038 1581 c 1,13,-1
 672 1370 l 1,14,15
 645 1352 645 1352 622.5 1352 c 128,-1,16
 600 1352 600 1352 600 1370.5 c 128,-1,17
 600 1389 600 1389 641 1427 c 1,18,-1
 862 1642 l 2,0,1
1255 1147 m 1,19,-1
 1196 1151 l 1,20,21
 1164 1151 1164 1151 1135 1108 c 2,22,-1
 754 561 l 1,23,-1
 690 115 l 1,24,-1
 690 104 l 2,25,26
 690 72 690 72 725 72 c 1,27,-1
 823 76 l 1,28,-1
 813 0 l 1,29,-1
 254 0 l 1,30,-1
 264 76 l 1,31,-1
 365 72 l 1,32,33
 404 72 404 72 410 117 c 2,34,-1
 467 524 l 1,35,-1
 199 1112 l 2,36,37
 182 1151 182 1151 158 1151 c 1,38,-1
 98 1147 l 1,39,-1
 111 1223 l 1,40,-1
 659 1223 l 1,41,-1
 649 1147 l 1,42,-1
 541 1151 l 2,43,44
 516 1151 516 1151 516 1124 c 0,45,46
 516 1114 516 1114 520 1102 c 1,47,-1
 725 651 l 1,48,-1
 1047 1110 l 2,49,50
 1055 1122 1055 1122 1055 1136.5 c 128,-1,51
 1055 1151 1055 1151 1038 1151 c 2,52,-1
 932 1147 l 1,53,-1
 942 1223 l 1,54,-1
 1268 1223 l 1,55,-1
 1255 1147 l 1,19,-1
EndSplineSet
Position2: "'cpsp' Capital Spacing lookup 0 per glyph data 2" dx=10 dy=0 dh=20 dv=0
EndChar

StartChar: Ycircumflex
Encoding: 374 374 103
Width: 1136
Flags: MW
HStem: 0 72<365 378 712 725> 1151 72<158 167 531 541 1038 1044 1186 1196> 1524 123<713 762>
VStem: 98 1169<1147 1223>
LayerCount: 2
UndoRedoHistory
Layer: 1
Undoes
EndUndoes
Redoes
EndRedoes
EndUndoRedoHistory
Fore
SplineSet
520 1389 m 1,0,1
 480 1364 480 1364 454 1364 c 128,-1,2
 428 1364 428 1364 428 1375 c 128,-1,3
 428 1386 428 1386 449 1406 c 128,-1,4
 470 1426 470 1426 518 1468.5 c 128,-1,5
 566 1511 566 1511 604 1548 c 1,6,-1
 713 1647 l 2,7,8
 752 1683 752 1683 787 1683 c 128,-1,9
 822 1683 822 1683 848 1647 c 1,10,-1
 928 1548 l 1,11,12
 956 1510 956 1510 991 1469.5 c 0,13,14
 1059 1390.81428571 1059 1390.81428571 1059 1382 c 0,15,16
 1059 1364 1059 1364 1030.5 1364 c 128,-1,17
 1002 1364 1002 1364 967 1389 c 1,18,-1
 762 1524 l 1,19,-1
 520 1389 l 1,0,1
1255 1147 m 1,20,-1
 1196 1151 l 1,21,22
 1164 1151 1164 1151 1135 1108 c 2,23,-1
 754 561 l 1,24,-1
 690 115 l 1,25,-1
 690 104 l 2,26,27
 690 72 690 72 725 72 c 1,28,-1
 823 76 l 1,29,-1
 813 0 l 1,30,-1
 254 0 l 1,31,-1
 264 76 l 1,32,-1
 365 72 l 1,33,34
 404 72 404 72 410 117 c 2,35,-1
 467 524 l 1,36,-1
 199 1112 l 2,37,38
 182 1151 182 1151 158 1151 c 1,39,-1
 98 1147 l 1,40,-1
 111 1223 l 1,41,-1
 659 1223 l 1,42,-1
 649 1147 l 1,43,-1
 541 1151 l 2,44,45
 516 1151 516 1151 516 1124 c 0,46,47
 516 1114 516 1114 520 1102 c 1,48,-1
 725 651 l 1,49,-1
 1047 1110 l 2,50,51
 1055 1122 1055 1122 1055 1136.5 c 128,-1,52
 1055 1151 1055 1151 1038 1151 c 2,53,-1
 932 1147 l 1,54,-1
 942 1223 l 1,55,-1
 1268 1223 l 1,56,-1
 1255 1147 l 1,20,-1
EndSplineSet
Position2: "'cpsp' Capital Spacing lookup 0 per glyph data 2" dx=10 dy=0 dh=20 dv=0
EndChar

StartChar: Ydieresis
Encoding: 376 376 104
Width: 1136
Flags: MW
HStem: 0 72<365 378 712 725> 1151 72<158 167 531 541 1038 1044 1186 1196> 1386 256<535 600 930 995>
VStem: 408 319<1487 1540> 803 319<1487 1540>
LayerCount: 2
UndoRedoHistory
Layer: 1
Undoes
EndUndoes
Redoes
EndRedoes
EndUndoRedoHistory
Fore
SplineSet
458.5 1601.5 m 128,-1,1
 509 1642 509 1642 579 1642 c 128,-1,2
 649 1642 649 1642 688 1612.5 c 128,-1,3
 727 1583 727 1583 727 1524 c 128,-1,4
 727 1465 727 1465 677.5 1425.5 c 128,-1,5
 628 1386 628 1386 557 1386 c 128,-1,6
 486 1386 486 1386 447 1416 c 128,-1,7
 408 1446 408 1446 408 1503.5 c 128,-1,0
 408 1561 408 1561 458.5 1601.5 c 128,-1,1
853.5 1601.5 m 128,-1,9
 904 1642 904 1642 974 1642 c 128,-1,10
 1044 1642 1044 1642 1083 1612.5 c 128,-1,11
 1122 1583 1122 1583 1122 1524 c 128,-1,12
 1122 1465 1122 1465 1072.5 1425.5 c 128,-1,13
 1023 1386 1023 1386 952 1386 c 128,-1,14
 881 1386 881 1386 842 1416 c 128,-1,15
 803 1446 803 1446 803 1503.5 c 128,-1,8
 803 1561 803 1561 853.5 1601.5 c 128,-1,9
1255 1147 m 1,16,-1
 1196 1151 l 1,17,18
 1164 1151 1164 1151 1135 1108 c 2,19,-1
 754 561 l 1,20,-1
 690 115 l 1,21,-1
 690 104 l 2,22,23
 690 72 690 72 725 72 c 1,24,-1
 823 76 l 1,25,-1
 813 0 l 1,26,-1
 254 0 l 1,27,-1
 264 76 l 1,28,-1
 365 72 l 1,29,30
 404 72 404 72 410 117 c 2,31,-1
 467 524 l 1,32,-1
 199 1112 l 2,33,34
 182 1151 182 1151 158 1151 c 1,35,-1
 98 1147 l 1,36,-1
 111 1223 l 1,37,-1
 659 1223 l 1,38,-1
 649 1147 l 1,39,-1
 541 1151 l 2,40,41
 516 1151 516 1151 516 1124 c 0,42,43
 516 1114 516 1114 520 1102 c 1,44,-1
 725 651 l 1,45,-1
 1047 1110 l 2,46,47
 1055 1122 1055 1122 1055 1136.5 c 128,-1,48
 1055 1151 1055 1151 1038 1151 c 2,49,-1
 932 1147 l 1,50,-1
 942 1223 l 1,51,-1
 1268 1223 l 1,52,-1
 1255 1147 l 1,16,-1
EndSplineSet
Position2: "'cpsp' Capital Spacing lookup 0 per glyph data 2" dx=10 dy=0 dh=20 dv=0
EndChar

StartChar: Ygrave
Encoding: 7922 7922 105
Width: 1136
Flags: MW
HStem: 0 72<365 378 712 725> 1151 72<158 167 531 541 1038 1044 1186 1196>
VStem: 98 1169<1147 1223>
LayerCount: 2
UndoRedoHistory
Layer: 1
Undoes
EndUndoes
Redoes
EndRedoes
EndUndoRedoHistory
Fore
SplineSet
506 1581 m 2,0,1
 485 1596 485 1596 485 1616 c 1,2,3
 488 1637 488 1637 543 1664.5 c 128,-1,4
 598 1692 598 1692 620 1692 c 128,-1,5
 642 1692 642 1692 646.5 1691.5 c 128,-1,6
 651 1691 651 1691 656 1688.5 c 128,-1,7
 661 1686 661 1686 663.5 1684.5 c 128,-1,8
 666 1683 666 1683 671 1677.5 c 128,-1,9
 676 1672 676 1672 678 1669 c 0,10,11
 686 1657 686 1657 698 1642 c 2,12,-1
 866 1425 l 1,13,14
 912.794871795 1352 912.794871795 1352 860 1352 c 0,15,16
 840 1352 840 1352 813 1370 c 2,17,-1
 506 1581 l 2,0,1
1255 1147 m 1,18,-1
 1196 1151 l 1,19,20
 1164 1151 1164 1151 1135 1108 c 2,21,-1
 754 561 l 1,22,-1
 690 115 l 1,23,-1
 690 104 l 2,24,25
 690 72 690 72 725 72 c 1,26,-1
 823 76 l 1,27,-1
 813 0 l 1,28,-1
 254 0 l 1,29,-1
 264 76 l 1,30,-1
 365 72 l 1,31,32
 404 72 404 72 410 117 c 2,33,-1
 467 524 l 1,34,-1
 199 1112 l 2,35,36
 182 1151 182 1151 158 1151 c 1,37,-1
 98 1147 l 1,38,-1
 111 1223 l 1,39,-1
 659 1223 l 1,40,-1
 649 1147 l 1,41,-1
 541 1151 l 2,42,43
 516 1151 516 1151 516 1124 c 0,44,45
 516 1114 516 1114 520 1102 c 1,46,-1
 725 651 l 1,47,-1
 1047 1110 l 2,48,49
 1055 1122 1055 1122 1055 1136.5 c 128,-1,50
 1055 1151 1055 1151 1038 1151 c 2,51,-1
 932 1147 l 1,52,-1
 942 1223 l 1,53,-1
 1268 1223 l 1,54,-1
 1255 1147 l 1,18,-1
EndSplineSet
Position2: "'cpsp' Capital Spacing lookup 0 per glyph data 2" dx=10 dy=0 dh=20 dv=0
EndChar

StartChar: Z
Encoding: 90 90 106
Width: 1112
Flags: MW
HStem: 0 72<360 645 645 737> 907 315<176 1149 176 1149> 1151 72<473 569 569 797>
VStem: 2 1147
LayerCount: 2
UndoRedoHistory
Layer: 1
Undoes
EndUndoes
Redoes
EndRedoes
EndUndoRedoHistory
Fore
SplineSet
221 1229 m 1,0,-1
 444 1223 l 1,1,-1
 1149 1223 l 1,2,-1
 1143 1174 l 1,3,-1
 360 72 l 1,4,-1
 645 72 l 2,5,6
 784 72 784 72 876 144 c 128,-1,7
 968 216 968 216 985 342 c 1,8,-1
 1057 342 l 1,9,-1
 991 -8 l 1,10,11
 970 0 970 0 764 0 c 2,12,-1
 2 0 l 1,13,-1
 10 55 l 1,14,-1
 797 1151 l 1,15,-1
 569 1151 l 2,16,17
 424 1151 424 1151 345.5 1092 c 128,-1,18
 267 1033 267 1033 248 907 c 1,19,-1
 176 907 l 1,20,-1
 221 1229 l 1,0,-1
EndSplineSet
Position2: "'cpsp' Capital Spacing lookup 0 per glyph data 2" dx=10 dy=0 dh=20 dv=0
EndChar

StartChar: Zacute
Encoding: 377 377 107
Width: 1112
Flags: MW
HStem: 0 72<360 645 645 737> 907 315<176 1149 176 1149> 1151 72<473 569 569 797>
VStem: 2 1147
LayerCount: 2
UndoRedoHistory
Layer: 1
Undoes
EndUndoes
Redoes
EndRedoes
EndUndoRedoHistory
Fore
SplineSet
864 1642 m 2,0,1
 868 1646 868 1646 876 1653.5 c 128,-1,2
 884 1661 884 1661 886.5 1663.5 c 128,-1,3
 889 1666 889 1666 895 1671.5 c 128,-1,4
 901 1677 901 1677 903.5 1678.5 c 128,-1,5
 906 1680 906 1680 910.5 1683.5 c 128,-1,6
 915 1687 915 1687 918 1687.5 c 128,-1,7
 921 1688 921 1688 925.5 1689.5 c 0,8,9
 933 1692 933 1692 956.5 1692 c 128,-1,10
 980 1692 980 1692 1025.5 1666 c 128,-1,11
 1071 1640 1071 1640 1071 1618.5 c 128,-1,12
 1071 1597 1071 1597 1040 1581 c 1,13,-1
 674 1370 l 1,14,15
 647 1352 647 1352 624.5 1352 c 128,-1,16
 602 1352 602 1352 602 1370.5 c 128,-1,17
 602 1389 602 1389 643 1427 c 1,18,-1
 864 1642 l 2,0,1
221 1229 m 1,19,-1
 444 1223 l 1,20,-1
 1149 1223 l 1,21,-1
 1143 1174 l 1,22,-1
 360 72 l 1,23,-1
 645 72 l 2,24,25
 784 72 784 72 876 144 c 128,-1,26
 968 216 968 216 985 342 c 1,27,-1
 1057 342 l 1,28,-1
 991 -8 l 1,29,30
 970 0 970 0 764 0 c 2,31,-1
 2 0 l 1,32,-1
 10 55 l 1,33,-1
 797 1151 l 1,34,-1
 569 1151 l 2,35,36
 424 1151 424 1151 345.5 1092 c 128,-1,37
 267 1033 267 1033 248 907 c 1,38,-1
 176 907 l 1,39,-1
 221 1229 l 1,19,-1
EndSplineSet
EndChar

StartChar: Zcaron
Encoding: 381 381 108
Width: 1112
Flags: MW
HStem: 0 72<360 645 645 737> 907 315<176 1149 176 1149> 1151 72<473 569 569 797> 1405 123<682 768 768 817>
VStem: 2 1147
LayerCount: 2
UndoRedoHistory
Layer: 1
Undoes
EndUndoes
Redoes
EndRedoes
EndUndoRedoHistory
Fore
SplineSet
1010 1663 m 1,0,1
 1050 1688 1050 1688 1076 1688 c 128,-1,2
 1102 1688 1102 1688 1102 1673 c 0,3,4
 1102 1662.1875 1102 1662.1875 1033 1601.09375 c 128,-1,5
 964 1540 964 1540 926 1503 c 1,6,-1
 817 1405 l 2,7,8
 777 1368 777 1368 743 1368 c 128,-1,9
 709 1368 709 1368 682 1405 c 1,10,-1
 602 1503 l 1,11,12
 574 1541 574 1541 539 1581.5 c 0,13,14
 471 1660.18571429 471 1660.18571429 471 1669 c 0,15,16
 471 1688 471 1688 499.5 1688 c 128,-1,17
 528 1688 528 1688 563 1663 c 1,18,-1
 768 1528 l 1,19,-1
 1010 1663 l 1,0,1
221 1229 m 1,20,-1
 444 1223 l 1,21,-1
 1149 1223 l 1,22,-1
 1143 1174 l 1,23,-1
 360 72 l 1,24,-1
 645 72 l 2,25,26
 784 72 784 72 876 144 c 128,-1,27
 968 216 968 216 985 342 c 1,28,-1
 1057 342 l 1,29,-1
 991 -8 l 1,30,31
 970 0 970 0 764 0 c 2,32,-1
 2 0 l 1,33,-1
 10 55 l 1,34,-1
 797 1151 l 1,35,-1
 569 1151 l 2,36,37
 424 1151 424 1151 345.5 1092 c 128,-1,38
 267 1033 267 1033 248 907 c 1,39,-1
 176 907 l 1,40,-1
 221 1229 l 1,20,-1
EndSplineSet
Position2: "'cpsp' Capital Spacing lookup 0 per glyph data 2" dx=10 dy=0 dh=20 dv=0
EndChar

StartChar: Zdotaccent
Encoding: 379 379 109
Width: 1112
Flags: MW
HStem: 0 72<360 645 645 737> 907 315<176 1149 176 1149> 1151 72<473 569 569 797> 1391 256<731 797>
VStem: 2 1147 604 319<1491 1544>
LayerCount: 2
UndoRedoHistory
Layer: 1
Undoes
EndUndoes
Redoes
EndRedoes
EndUndoRedoHistory
Fore
SplineSet
654.5 1606 m 128,-1,1
 705 1647 705 1647 775 1647 c 128,-1,2
 845 1647 845 1647 884.5 1617 c 128,-1,3
 924 1587 924 1587 924 1528 c 128,-1,4
 924 1469 924 1469 874 1430 c 128,-1,5
 824 1391 824 1391 753 1391 c 128,-1,6
 682 1391 682 1391 643 1420.5 c 128,-1,7
 604 1450 604 1450 604 1507.5 c 128,-1,0
 604 1565 604 1565 654.5 1606 c 128,-1,1
221 1229 m 1,8,-1
 444 1223 l 1,9,-1
 1149 1223 l 1,10,-1
 1143 1174 l 1,11,-1
 360 72 l 1,12,-1
 645 72 l 2,13,14
 784 72 784 72 876 144 c 128,-1,15
 968 216 968 216 985 342 c 1,16,-1
 1057 342 l 1,17,-1
 991 -8 l 1,18,19
 970 0 970 0 764 0 c 2,20,-1
 2 0 l 1,21,-1
 10 55 l 1,22,-1
 797 1151 l 1,23,-1
 569 1151 l 2,24,25
 424 1151 424 1151 345.5 1092 c 128,-1,26
 267 1033 267 1033 248 907 c 1,27,-1
 176 907 l 1,28,-1
 221 1229 l 1,8,-1
EndSplineSet
EndChar

StartChar: a
Encoding: 97 97 110
Width: 1046
Flags: MW
HStem: -20 160<181 442> 815 76<551 602 426 633>
VStem: 53 274<225 303 225 393>
LayerCount: 2
UndoRedoHistory
Layer: 1
Undoes
EndUndoes
Redoes
EndRedoes
EndUndoRedoHistory
Fore
SplineSet
368 833.5 m 128,-1,1
 465 891 465 891 569.756756757 891 c 128,-1,2
 674.513513514 891 674.513513514 891 723 813 c 1,3,-1
 735 860 l 1,4,-1
 999 889 l 1,5,-1
 952 692 l 2,6,7
 915 539 915 539 889.5 391.5 c 128,-1,8
 864 244 864 244 864 199 c 128,-1,9
 864 154 864 154 891 154 c 0,10,11
 930 154 930 154 969 180 c 1,12,-1
 991 123 l 1,13,14
 927 61 927 61 837 20.5 c 128,-1,15
 747 -20 747 -20 688.5 -20 c 128,-1,16
 630 -20 630 -20 615 2 c 128,-1,17
 600 24 600 24 600 65 c 128,-1,18
 600 106 600 106 637 338 c 1,19,20
 552 149 552 149 450 64.5 c 128,-1,21
 348 -20 348 -20 250 -20 c 128,-1,22
 152 -20 152 -20 102.5 45.5 c 128,-1,23
 53 111 53 111 53 231 c 128,-1,24
 53 351 53 351 93.5 470.5 c 128,-1,25
 134 590 134 590 202.5 683 c 128,-1,0
 271 776 271 776 368 833.5 c 128,-1,1
462.5 726.5 m 128,-1,27
 398 638 398 638 363 511.5 c 128,-1,28
 328 385 328 385 328 262 c 128,-1,29
 328 139 328 139 393 139 c 0,30,31
 440 139 440 139 513 242 c 128,-1,32
 586 345 586 345 641 486 c 128,-1,33
 696 627 696 627 696 723 c 0,34,35
 696 763 696 763 671 789 c 128,-1,36
 646 815 646 815 602 815 c 0,37,26
 527 815 527 815 462.5 726.5 c 128,-1,27
EndSplineSet
Substitution2: "Single Substitution lookup 21 subtable" ordfeminine
Substitution2: "'aalt' Access All Alternates lookup 0 subtable" ordfeminine
EndChar

StartChar: aacute
Encoding: 225 225 111
Width: 1046
Flags: MW
HStem: -20 160<181 442> 815 76<551 602 426 633>
VStem: 53 274<225 303 225 393>
LayerCount: 2
UndoRedoHistory
Layer: 1
Undoes
EndUndoes
Redoes
EndRedoes
EndUndoRedoHistory
Fore
SplineSet
756 1288 m 2,0,1
 797.054333358 1326.94898293 797.054333358 1326.94898293 809.280885447 1331.9002555 c 128,-1,2
 821.507437536 1336.85152807 821.507437536 1336.85152807 846.753718768 1336.92576404 c 128,-1,3
 872 1337 872 1337 917.5 1311 c 128,-1,4
 963 1285 963 1285 963 1264 c 128,-1,5
 963 1243 963 1243 932 1227 c 1,6,-1
 565 1016 l 1,7,8
 536 997 536 997 515 997 c 128,-1,9
 494 997 494 997 494 1016 c 128,-1,10
 494 1035 494 1035 535 1073 c 1,11,-1
 756 1288 l 2,0,1
368 833.5 m 128,-1,13
 465 891 465 891 569.756756757 891 c 128,-1,14
 674.513513514 891 674.513513514 891 723 813 c 1,15,-1
 735 860 l 1,16,-1
 999 889 l 1,17,-1
 952 692 l 2,18,19
 915 539 915 539 889.5 391.5 c 128,-1,20
 864 244 864 244 864 199 c 128,-1,21
 864 154 864 154 891 154 c 0,22,23
 930 154 930 154 969 180 c 1,24,-1
 991 123 l 1,25,26
 927 61 927 61 837 20.5 c 128,-1,27
 747 -20 747 -20 688.5 -20 c 128,-1,28
 630 -20 630 -20 615 2 c 128,-1,29
 600 24 600 24 600 65 c 128,-1,30
 600 106 600 106 637 338 c 1,31,32
 552 149 552 149 450 64.5 c 128,-1,33
 348 -20 348 -20 250 -20 c 128,-1,34
 152 -20 152 -20 102.5 45.5 c 128,-1,35
 53 111 53 111 53 231 c 128,-1,36
 53 351 53 351 93.5 470.5 c 128,-1,37
 134 590 134 590 202.5 683 c 128,-1,12
 271 776 271 776 368 833.5 c 128,-1,13
462.5 726.5 m 128,-1,39
 398 638 398 638 363 511.5 c 128,-1,40
 328 385 328 385 328 262 c 128,-1,41
 328 139 328 139 393 139 c 0,42,43
 440 139 440 139 513 242 c 128,-1,44
 586 345 586 345 641 486 c 128,-1,45
 696 627 696 627 696 723 c 0,46,47
 696 763 696 763 671 789 c 128,-1,48
 646 815 646 815 602 815 c 0,49,38
 527 815 527 815 462.5 726.5 c 128,-1,39
EndSplineSet
EndChar

StartChar: abreve
Encoding: 259 259 112
Width: 1046
Flags: MW
HStem: -20 160<181 442> 815 76<551 602 426 633> 1047 133<604 716 604 724>
VStem: 53 274<225 303 225 393>
LayerCount: 2
UndoRedoHistory
Layer: 1
Undoes
EndUndoes
Redoes
EndRedoes
EndUndoRedoHistory
Fore
SplineSet
954 1315 m 1,0,1
 934 1195 934 1195 848.5 1121 c 128,-1,2
 763 1047 763 1047 647.5 1047 c 128,-1,3
 532 1047 532 1047 470 1109 c 128,-1,4
 408 1171 408 1171 408 1274 c 0,5,6
 408 1301 408 1301 410 1315 c 1,7,-1
 506 1315 l 1,8,9
 511 1257 511 1257 547 1218.5 c 128,-1,10
 583 1180 583 1180 660 1180 c 128,-1,11
 737 1180 737 1180 787 1219 c 128,-1,12
 837 1258 837 1258 858 1315 c 1,13,-1
 954 1315 l 1,0,1
368 833.5 m 128,-1,15
 465 891 465 891 569.756756757 891 c 128,-1,16
 674.513513514 891 674.513513514 891 723 813 c 1,17,-1
 735 860 l 1,18,-1
 999 889 l 1,19,-1
 952 692 l 2,20,21
 915 539 915 539 889.5 391.5 c 128,-1,22
 864 244 864 244 864 199 c 128,-1,23
 864 154 864 154 891 154 c 0,24,25
 930 154 930 154 969 180 c 1,26,-1
 991 123 l 1,27,28
 927 61 927 61 837 20.5 c 128,-1,29
 747 -20 747 -20 688.5 -20 c 128,-1,30
 630 -20 630 -20 615 2 c 128,-1,31
 600 24 600 24 600 65 c 128,-1,32
 600 106 600 106 637 338 c 1,33,34
 552 149 552 149 450 64.5 c 128,-1,35
 348 -20 348 -20 250 -20 c 128,-1,36
 152 -20 152 -20 102.5 45.5 c 128,-1,37
 53 111 53 111 53 231 c 128,-1,38
 53 351 53 351 93.5 470.5 c 128,-1,39
 134 590 134 590 202.5 683 c 128,-1,14
 271 776 271 776 368 833.5 c 128,-1,15
462.5 726.5 m 128,-1,41
 398 638 398 638 363 511.5 c 128,-1,42
 328 385 328 385 328 262 c 128,-1,43
 328 139 328 139 393 139 c 0,44,45
 440 139 440 139 513 242 c 128,-1,46
 586 345 586 345 641 486 c 128,-1,47
 696 627 696 627 696 723 c 0,48,49
 696 763 696 763 671 789 c 128,-1,50
 646 815 646 815 602 815 c 0,51,40
 527 815 527 815 462.5 726.5 c 128,-1,41
EndSplineSet
EndChar

StartChar: acircumflex
Encoding: 226 226 113
Width: 1046
Flags: MW
HStem: -20 160<181 442> 815 76<551 602 426 633> 1167 123<610 659>
VStem: 53 274<225 303 225 393>
LayerCount: 2
UndoRedoHistory
Layer: 1
Undoes
EndUndoes
Redoes
EndRedoes
EndUndoRedoHistory
Fore
SplineSet
418 1032 m 1,0,1
 380 1008 380 1008 353 1008 c 128,-1,2
 326 1008 326 1008 326 1019 c 128,-1,3
 326 1030 326 1030 347 1050 c 128,-1,4
 368 1070 368 1070 416 1112.5 c 128,-1,5
 464 1155 464 1155 502 1192 c 1,6,-1
 610 1290 l 2,7,8
 650 1327 650 1327 684 1327 c 128,-1,9
 718 1327 718 1327 745 1290 c 1,10,-1
 825 1192 l 1,11,12
 853 1154 853 1154 888 1113.5 c 0,13,14
 956 1034.81428571 956 1034.81428571 956 1026 c 0,15,16
 956 1008 956 1008 927 1008 c 128,-1,17
 898 1008 898 1008 864 1032 c 1,18,-1
 659 1167 l 1,19,-1
 418 1032 l 1,0,1
368 833.5 m 128,-1,21
 465 891 465 891 569.756756757 891 c 128,-1,22
 674.513513514 891 674.513513514 891 723 813 c 1,23,-1
 735 860 l 1,24,-1
 999 889 l 1,25,-1
 952 692 l 2,26,27
 915 539 915 539 889.5 391.5 c 128,-1,28
 864 244 864 244 864 199 c 128,-1,29
 864 154 864 154 891 154 c 0,30,31
 930 154 930 154 969 180 c 1,32,-1
 991 123 l 1,33,34
 927 61 927 61 837 20.5 c 128,-1,35
 747 -20 747 -20 688.5 -20 c 128,-1,36
 630 -20 630 -20 615 2 c 128,-1,37
 600 24 600 24 600 65 c 128,-1,38
 600 106 600 106 637 338 c 1,39,40
 552 149 552 149 450 64.5 c 128,-1,41
 348 -20 348 -20 250 -20 c 128,-1,42
 152 -20 152 -20 102.5 45.5 c 128,-1,43
 53 111 53 111 53 231 c 128,-1,44
 53 351 53 351 93.5 470.5 c 128,-1,45
 134 590 134 590 202.5 683 c 128,-1,20
 271 776 271 776 368 833.5 c 128,-1,21
462.5 726.5 m 128,-1,47
 398 638 398 638 363 511.5 c 128,-1,48
 328 385 328 385 328 262 c 128,-1,49
 328 139 328 139 393 139 c 0,50,51
 440 139 440 139 513 242 c 128,-1,52
 586 345 586 345 641 486 c 128,-1,53
 696 627 696 627 696 723 c 0,54,55
 696 763 696 763 671 789 c 128,-1,56
 646 815 646 815 602 815 c 0,57,46
 527 815 527 815 462.5 726.5 c 128,-1,47
EndSplineSet
EndChar

StartChar: adieresis
Encoding: 228 228 114
Width: 1046
Flags: MW
HStem: -20 160<181 442> 815 76<551 602 426 633> 1090 256<438 504 834 899>
VStem: 53 274<225 303 225 393> 311 319<1190 1243> 707 319<1190 1243>
LayerCount: 2
UndoRedoHistory
Layer: 1
Undoes
EndUndoes
Redoes
EndRedoes
EndUndoRedoHistory
Fore
SplineSet
361.5 1305 m 128,-1,1
 412 1346 412 1346 482 1346 c 128,-1,2
 552 1346 552 1346 591.5 1316 c 128,-1,3
 631 1286 631 1286 631 1227 c 128,-1,4
 631 1168 631 1168 581.5 1129 c 128,-1,5
 532 1090 532 1090 461 1090 c 128,-1,6
 390 1090 390 1090 350.5 1119.5 c 128,-1,7
 311 1149 311 1149 311 1206.5 c 128,-1,0
 311 1264 311 1264 361.5 1305 c 128,-1,1
757.5 1305 m 128,-1,9
 808 1346 808 1346 878 1346 c 128,-1,10
 948 1346 948 1346 987 1316 c 128,-1,11
 1026 1286 1026 1286 1026 1227 c 128,-1,12
 1026 1168 1026 1168 976.5 1129 c 128,-1,13
 927 1090 927 1090 856 1090 c 128,-1,14
 785 1090 785 1090 746 1119.5 c 128,-1,15
 707 1149 707 1149 707 1206.5 c 128,-1,8
 707 1264 707 1264 757.5 1305 c 128,-1,9
368 833.5 m 128,-1,17
 465 891 465 891 569.756756757 891 c 128,-1,18
 674.513513514 891 674.513513514 891 723 813 c 1,19,-1
 735 860 l 1,20,-1
 999 889 l 1,21,-1
 952 692 l 2,22,23
 915 539 915 539 889.5 391.5 c 128,-1,24
 864 244 864 244 864 199 c 128,-1,25
 864 154 864 154 891 154 c 0,26,27
 930 154 930 154 969 180 c 1,28,-1
 991 123 l 1,29,30
 927 61 927 61 837 20.5 c 128,-1,31
 747 -20 747 -20 688.5 -20 c 128,-1,32
 630 -20 630 -20 615 2 c 128,-1,33
 600 24 600 24 600 65 c 128,-1,34
 600 106 600 106 637 338 c 1,35,36
 552 149 552 149 450 64.5 c 128,-1,37
 348 -20 348 -20 250 -20 c 128,-1,38
 152 -20 152 -20 102.5 45.5 c 128,-1,39
 53 111 53 111 53 231 c 128,-1,40
 53 351 53 351 93.5 470.5 c 128,-1,41
 134 590 134 590 202.5 683 c 128,-1,16
 271 776 271 776 368 833.5 c 128,-1,17
462.5 726.5 m 128,-1,43
 398 638 398 638 363 511.5 c 128,-1,44
 328 385 328 385 328 262 c 128,-1,45
 328 139 328 139 393 139 c 0,46,47
 440 139 440 139 513 242 c 128,-1,48
 586 345 586 345 641 486 c 128,-1,49
 696 627 696 627 696 723 c 0,50,51
 696 763 696 763 671 789 c 128,-1,52
 646 815 646 815 602 815 c 0,53,42
 527 815 527 815 462.5 726.5 c 128,-1,43
EndSplineSet
EndChar

StartChar: agrave
Encoding: 224 224 115
Width: 1046
Flags: MW
HStem: -20 160<181 442> 815 76<551 602 426 633>
VStem: 53 274<225 303 225 393>
LayerCount: 2
UndoRedoHistory
Layer: 1
Undoes
EndUndoes
Redoes
EndRedoes
EndUndoRedoHistory
Fore
SplineSet
403 1227 m 2,0,1
 383 1241 383 1241 383 1262 c 1,2,3
 386 1283 386 1283 440.5 1310 c 128,-1,4
 495 1337 495 1337 523.5 1337 c 128,-1,5
 552 1337 552 1337 561 1330 c 128,-1,6
 570 1323 570 1323 581.5 1307.5 c 128,-1,7
 593 1292 593 1292 596 1288 c 2,8,-1
 764 1071 l 1,9,10
 788 1034 788 1034 785 1015.5 c 128,-1,11
 782 997 782 997 761 997 c 128,-1,12
 740 997 740 997 711 1016 c 2,13,-1
 403 1227 l 2,0,1
368 833.5 m 128,-1,15
 465 891 465 891 569.756756757 891 c 128,-1,16
 674.513513514 891 674.513513514 891 723 813 c 1,17,-1
 735 860 l 1,18,-1
 999 889 l 1,19,-1
 952 692 l 2,20,21
 915 539 915 539 889.5 391.5 c 128,-1,22
 864 244 864 244 864 199 c 128,-1,23
 864 154 864 154 891 154 c 0,24,25
 930 154 930 154 969 180 c 1,26,-1
 991 123 l 1,27,28
 927 61 927 61 837 20.5 c 128,-1,29
 747 -20 747 -20 688.5 -20 c 128,-1,30
 630 -20 630 -20 615 2 c 128,-1,31
 600 24 600 24 600 65 c 128,-1,32
 600 106 600 106 637 338 c 1,33,34
 552 149 552 149 450 64.5 c 128,-1,35
 348 -20 348 -20 250 -20 c 128,-1,36
 152 -20 152 -20 102.5 45.5 c 128,-1,37
 53 111 53 111 53 231 c 128,-1,38
 53 351 53 351 93.5 470.5 c 128,-1,39
 134 590 134 590 202.5 683 c 128,-1,14
 271 776 271 776 368 833.5 c 128,-1,15
462.5 726.5 m 128,-1,41
 398 638 398 638 363 511.5 c 128,-1,42
 328 385 328 385 328 262 c 128,-1,43
 328 139 328 139 393 139 c 0,44,45
 440 139 440 139 513 242 c 128,-1,46
 586 345 586 345 641 486 c 128,-1,47
 696 627 696 627 696 723 c 0,48,49
 696 763 696 763 671 789 c 128,-1,50
 646 815 646 815 602 815 c 0,51,40
 527 815 527 815 462.5 726.5 c 128,-1,41
EndSplineSet
EndChar

StartChar: amacron
Encoding: 257 257 116
Width: 1046
Flags: MW
HStem: -20 160<181 442> 815 76<551 602 426 633> 1147 96<424 901 410 915>
VStem: 53 274<225 303 225 393>
LayerCount: 2
UndoRedoHistory
Layer: 1
Undoes
EndUndoes
Redoes
EndRedoes
EndUndoRedoHistory
Fore
SplineSet
901 1147 m 1,0,-1
 410 1147 l 1,1,-1
 424 1243 l 1,2,-1
 915 1243 l 1,3,-1
 901 1147 l 1,0,-1
368 833.5 m 128,-1,5
 465 891 465 891 569.756756757 891 c 128,-1,6
 674.513513514 891 674.513513514 891 723 813 c 1,7,-1
 735 860 l 1,8,-1
 999 889 l 1,9,-1
 952 692 l 2,10,11
 915 539 915 539 889.5 391.5 c 128,-1,12
 864 244 864 244 864 199 c 128,-1,13
 864 154 864 154 891 154 c 0,14,15
 930 154 930 154 969 180 c 1,16,-1
 991 123 l 1,17,18
 927 61 927 61 837 20.5 c 128,-1,19
 747 -20 747 -20 688.5 -20 c 128,-1,20
 630 -20 630 -20 615 2 c 128,-1,21
 600 24 600 24 600 65 c 128,-1,22
 600 106 600 106 637 338 c 1,23,24
 552 149 552 149 450 64.5 c 128,-1,25
 348 -20 348 -20 250 -20 c 128,-1,26
 152 -20 152 -20 102.5 45.5 c 128,-1,27
 53 111 53 111 53 231 c 128,-1,28
 53 351 53 351 93.5 470.5 c 128,-1,29
 134 590 134 590 202.5 683 c 128,-1,4
 271 776 271 776 368 833.5 c 128,-1,5
462.5 726.5 m 128,-1,31
 398 638 398 638 363 511.5 c 128,-1,32
 328 385 328 385 328 262 c 128,-1,33
 328 139 328 139 393 139 c 0,34,35
 440 139 440 139 513 242 c 128,-1,36
 586 345 586 345 641 486 c 128,-1,37
 696 627 696 627 696 723 c 0,38,39
 696 763 696 763 671 789 c 128,-1,40
 646 815 646 815 602 815 c 0,41,30
 527 815 527 815 462.5 726.5 c 128,-1,31
EndSplineSet
EndChar

StartChar: aogonek
Encoding: 261 261 117
Width: 1046
Flags: MW
HStem: -326 119<708 859> -20 160<181 442> 815 76<551 602 426 633>
VStem: 53 274<225 303 225 393> 598 147<-240 -95>
LayerCount: 2
UndoRedoHistory
Layer: 1
Undoes
EndUndoes
Redoes
EndRedoes
EndUndoRedoHistory
Fore
SplineSet
368 833.5 m 128,-1,1
 465 891 465 891 569.756756757 891 c 128,-1,2
 674.513513514 891 674.513513514 891 723 813 c 1,3,-1
 735 860 l 1,4,-1
 999 889 l 1,5,-1
 952 692 l 2,6,7
 915 539 915 539 889.5 391.5 c 128,-1,8
 864 244 864 244 864 199 c 128,-1,9
 864 154 864 154 891 154 c 0,10,11
 930 154 930 154 969 180 c 1,12,-1
 991 123 l 1,13,14
 934 65 934 65 840 23 c 1,15,16
 745 -31.8888888889 745 -31.8888888889 745 -125 c 0,17,18
 745 -161 745 -161 768 -184 c 128,-1,19
 791 -207 791 -207 848 -207 c 128,-1,20
 905 -207 905 -207 981 -162 c 1,21,-1
 1001 -203 l 1,22,23
 878 -326 878 -326 745 -326 c 0,24,25
 684 -326 684 -326 641 -292 c 128,-1,26
 598 -258 598 -258 598 -197 c 0,27,28
 598 -95 598 -95 698 -18 c 1,29,-1
 674 -20 l 1,30,31
 630 -20 630 -20 615 2 c 128,-1,32
 600 24 600 24 600 65 c 128,-1,33
 600 106 600 106 637 338 c 1,34,35
 552 149 552 149 450 64.5 c 128,-1,36
 348 -20 348 -20 250 -20 c 128,-1,37
 152 -20 152 -20 102.5 45.5 c 128,-1,38
 53 111 53 111 53 231 c 128,-1,39
 53 351 53 351 93.5 470.5 c 128,-1,40
 134 590 134 590 202.5 683 c 128,-1,0
 271 776 271 776 368 833.5 c 128,-1,1
462.5 726.5 m 128,-1,42
 398 638 398 638 363 511.5 c 128,-1,43
 328 385 328 385 328 262 c 128,-1,44
 328 139 328 139 393 139 c 0,45,46
 440 139 440 139 513 242 c 128,-1,47
 586 345 586 345 641 486 c 128,-1,48
 696 627 696 627 696 723 c 0,49,50
 696 763 696 763 671 789 c 128,-1,51
 646 815 646 815 602 815 c 0,52,41
 527 815 527 815 462.5 726.5 c 128,-1,42
EndSplineSet
EndChar

StartChar: aring
Encoding: 229 229 118
Width: 1046
Flags: MW
HStem: -20 160<181 442> 815 76<551 602 426 633> 1008 84<632 677 632 696> 1262 86<649 695>
VStem: 53 274<225 303 225 393> 485 102<1142 1192 1142 1209> 739 104<1161 1211>
LayerCount: 2
UndoRedoHistory
Layer: 1
Undoes
EndUndoes
Redoes
EndRedoes
EndUndoRedoHistory
Fore
SplineSet
527 1048.5 m 128,-1,1
 485 1089 485 1089 485 1162.5 c 128,-1,2
 485 1236 485 1236 544 1292 c 128,-1,3
 603 1348 603 1348 680 1348 c 128,-1,4
 757 1348 757 1348 800.5 1306.5 c 128,-1,5
 844 1265 844 1265 844 1190.5 c 128,-1,6
 844 1116 844 1116 785 1062 c 128,-1,7
 726 1008 726 1008 647.5 1008 c 128,-1,0
 569 1008 569 1008 527 1048.5 c 128,-1,1
739 1190 m 0,8,9
 739 1262 739 1262 674 1262 c 0,10,11
 637 1262 637 1262 612.5 1234 c 128,-1,12
 588 1206 588 1206 588 1168.5 c 0,13,14
 588 1092 588 1092 651 1092 c 0,15,16
 689 1092 689 1092 714 1119.5 c 128,-1,17
 739 1147 739 1147 739 1190 c 0,8,9
368 833.5 m 128,-1,19
 465 891 465 891 569.756756757 891 c 128,-1,20
 674.513513514 891 674.513513514 891 723 813 c 1,21,-1
 735 860 l 1,22,-1
 999 889 l 1,23,-1
 952 692 l 2,24,25
 915 539 915 539 889.5 391.5 c 128,-1,26
 864 244 864 244 864 199 c 128,-1,27
 864 154 864 154 891 154 c 0,28,29
 930 154 930 154 969 180 c 1,30,-1
 991 123 l 1,31,32
 927 61 927 61 837 20.5 c 128,-1,33
 747 -20 747 -20 688.5 -20 c 128,-1,34
 630 -20 630 -20 615 2 c 128,-1,35
 600 24 600 24 600 65 c 128,-1,36
 600 106 600 106 637 338 c 1,37,38
 552 149 552 149 450 64.5 c 128,-1,39
 348 -20 348 -20 250 -20 c 128,-1,40
 152 -20 152 -20 102.5 45.5 c 128,-1,41
 53 111 53 111 53 231 c 128,-1,42
 53 351 53 351 93.5 470.5 c 128,-1,43
 134 590 134 590 202.5 683 c 128,-1,18
 271 776 271 776 368 833.5 c 128,-1,19
462.5 726.5 m 128,-1,45
 398 638 398 638 363 511.5 c 128,-1,46
 328 385 328 385 328 262 c 128,-1,47
 328 139 328 139 393 139 c 0,48,49
 440 139 440 139 513 242 c 128,-1,50
 586 345 586 345 641 486 c 128,-1,51
 696 627 696 627 696 723 c 0,52,53
 696 763 696 763 671 789 c 128,-1,54
 646 815 646 815 602 815 c 0,55,44
 527 815 527 815 462.5 726.5 c 128,-1,45
EndSplineSet
EndChar

StartChar: atilde
Encoding: 227 227 119
Width: 1046
Flags: MW
HStem: -20 160<181 442> 815 76<551 602 426 633> 1075 125<791 849 791 850> 1157 123<468 526>
VStem: 53 274<225 303 225 393> 352 57<1077 1077> 907 57<1278 1278>
LayerCount: 2
UndoRedoHistory
Layer: 1
Undoes
EndUndoes
Redoes
EndRedoes
EndUndoRedoHistory
Fore
SplineSet
352 1077 m 1,0,1
 365 1169 365 1169 405.5 1224.5 c 128,-1,2
 446 1280 446 1280 505 1280 c 128,-1,3
 564 1280 564 1280 678 1240 c 128,-1,4
 792 1200 792 1200 825.5 1200 c 128,-1,5
 859 1200 859 1200 881 1221.5 c 128,-1,6
 903 1243 903 1243 907 1278 c 1,7,-1
 965 1278 l 1,8,9
 952 1186 952 1186 911 1130.5 c 128,-1,10
 870 1075 870 1075 811 1075 c 128,-1,11
 752 1075 752 1075 637.5 1116 c 128,-1,12
 523 1157 523 1157 490 1157 c 128,-1,13
 457 1157 457 1157 435.5 1135 c 128,-1,14
 414 1113 414 1113 410 1077 c 1,15,-1
 352 1077 l 1,0,1
368 833.5 m 128,-1,17
 465 891 465 891 569.756756757 891 c 128,-1,18
 674.513513514 891 674.513513514 891 723 813 c 1,19,-1
 735 860 l 1,20,-1
 999 889 l 1,21,-1
 952 692 l 2,22,23
 915 539 915 539 889.5 391.5 c 128,-1,24
 864 244 864 244 864 199 c 128,-1,25
 864 154 864 154 891 154 c 0,26,27
 930 154 930 154 969 180 c 1,28,-1
 991 123 l 1,29,30
 927 61 927 61 837 20.5 c 128,-1,31
 747 -20 747 -20 688.5 -20 c 128,-1,32
 630 -20 630 -20 615 2 c 128,-1,33
 600 24 600 24 600 65 c 128,-1,34
 600 106 600 106 637 338 c 1,35,36
 552 149 552 149 450 64.5 c 128,-1,37
 348 -20 348 -20 250 -20 c 128,-1,38
 152 -20 152 -20 102.5 45.5 c 128,-1,39
 53 111 53 111 53 231 c 128,-1,40
 53 351 53 351 93.5 470.5 c 128,-1,41
 134 590 134 590 202.5 683 c 128,-1,16
 271 776 271 776 368 833.5 c 128,-1,17
462.5 726.5 m 128,-1,43
 398 638 398 638 363 511.5 c 128,-1,44
 328 385 328 385 328 262 c 128,-1,45
 328 139 328 139 393 139 c 0,46,47
 440 139 440 139 513 242 c 128,-1,48
 586 345 586 345 641 486 c 128,-1,49
 696 627 696 627 696 723 c 0,50,51
 696 763 696 763 671 789 c 128,-1,52
 646 815 646 815 602 815 c 0,53,42
 527 815 527 815 462.5 726.5 c 128,-1,43
EndSplineSet
EndChar

StartChar: ae
Encoding: 230 230 120
Width: 1302
Flags: MW
HStem: -20 160<154 387> -18 145<899 912> 774 76<606 681> 819 72<994 1053>
VStem: 25 268<227 300 227 381> 514 274<324 344 344 375 269 415> 1104 219<655 752>
LayerCount: 2
UndoRedoHistory
Layer: 1
Undoes
EndUndoes
Redoes
EndRedoes
EndUndoRedoHistory
Fore
SplineSet
1241 188 m 1,0,1
 1170 95 1170 95 1060 38.5 c 128,-1,2
 950 -18 950 -18 835 -18 c 128,-1,3
 720 -18 720 -18 641.5 36.5 c 128,-1,4
 563 91 563 91 532 190 c 1,5,6
 396 -20 396 -20 215 -20 c 0,7,8
 124 -20 124 -20 74.5 45.5 c 128,-1,9
 25 111 25 111 25 225.5 c 128,-1,10
 25 340 25 340 76.5 453.5 c 128,-1,11
 128 567 128 567 214.5 654.5 c 128,-1,12
 301 742 301 742 422.5 796 c 128,-1,13
 544 850 544 850 644 850 c 128,-1,14
 744 850 744 850 795 821 c 1,15,16
 910 891 910 891 1037.5 891 c 128,-1,17
 1165 891 1165 891 1244 837.5 c 128,-1,18
 1323 784 1323 784 1323 698 c 0,19,20
 1323 590.262295082 1323 590.262295082 1202 501 c 0,21,22
 1069.33676093 403.133676093 1069.33676093 403.133676093 788 375 c 1,23,-1
 788 344 l 2,24,25
 788 235 788 235 830.5 181 c 128,-1,26
 873 127 873 127 946 127 c 0,27,28
 1069 127 1069 127 1196 229 c 1,29,-1
 1241 188 l 1,0,1
1024 819 m 0,30,31
 920 819 920 819 850 653 c 0,32,33
 807 553 807 553 795 442 c 1,34,35
 946 468 946 468 1025 543 c 128,-1,36
 1104 618 1104 618 1104 727 c 0,37,38
 1104 767 1104 767 1084 793 c 128,-1,39
 1064 819 1064 819 1024 819 c 0,30,31
514 324 m 1,40,41
 514 457 514 457 570 573 c 128,-1,42
 626 689 626 689 721 770 c 1,43,44
 693 774 693 774 672 774 c 0,45,46
 574 774 574 774 482 699.5 c 128,-1,47
 390 625 390 625 346 508 c 1,48,49
 293 388 293 388 293 264 c 0,50,51
 293 207 293 207 312 173 c 128,-1,52
 331 139 331 139 367 139 c 0,53,54
 426 139 426 139 516 285 c 1,55,-1
 514 324 l 1,40,41
EndSplineSet
EndChar

